M48
; DRILL file {KiCad 7.0.8} date 2024 May 05, Sunday 13:27:44
; FORMAT={-:-/ absolute / inch / decimal}
; #@! TF.CreationDate,2024-05-05T13:27:44-04:00
; #@! TF.GenerationSoftware,Kicad,Pcbnew,7.0.8
; #@! TF.FileFunction,Plated,1,2,PTH
FMAT,2
INCH
; #@! TA.AperFunction,Plated,PTH,ViaDrill
T1C0.0157
; #@! TA.AperFunction,Plated,PTH,ComponentDrill
T2C0.0394
%
G90
G05
T1
X0.4907Y-1.001
X0.4947Y-0.901
X0.5947Y-1.101
X0.5987Y-0.999
X0.6947Y-0.804
X0.6967Y-0.899
X0.6987Y-0.999
X0.7147Y-0.529
X0.7287Y-0.702
X0.7597Y-0.499
X0.7967Y-0.7
X0.9197Y-0.67
X0.9467Y-0.6987
X0.9517Y-0.642
X1.0007Y-0.573
X1.034Y-0.6555
X1.1424Y-0.5115
X1.19Y-0.496
T2
X0.5467Y-0.549
X0.5467Y-0.649
X0.5467Y-0.749
X0.5467Y-0.849
X0.5467Y-0.949
X0.5467Y-1.049
X0.6467Y-0.549
X0.6467Y-0.649
X0.6467Y-0.749
X0.6467Y-0.849
X0.6467Y-0.949
X0.6467Y-1.049
T0
M30
