%TF.GenerationSoftware,KiCad,Pcbnew,7.0.8*%
%TF.CreationDate,2024-05-05T13:27:43-04:00*%
%TF.ProjectId,n64amp,6e363461-6d70-42e6-9b69-6361645f7063,rev?*%
%TF.SameCoordinates,Original*%
%TF.FileFunction,Copper,L1,Top*%
%TF.FilePolarity,Positive*%
%FSLAX46Y46*%
G04 Gerber Fmt 4.6, Leading zero omitted, Abs format (unit mm)*
G04 Created by KiCad (PCBNEW 7.0.8) date 2024-05-05 13:27:43*
%MOMM*%
%LPD*%
G01*
G04 APERTURE LIST*
G04 Aperture macros list*
%AMRoundRect*
0 Rectangle with rounded corners*
0 $1 Rounding radius*
0 $2 $3 $4 $5 $6 $7 $8 $9 X,Y pos of 4 corners*
0 Add a 4 corners polygon primitive as box body*
4,1,4,$2,$3,$4,$5,$6,$7,$8,$9,$2,$3,0*
0 Add four circle primitives for the rounded corners*
1,1,$1+$1,$2,$3*
1,1,$1+$1,$4,$5*
1,1,$1+$1,$6,$7*
1,1,$1+$1,$8,$9*
0 Add four rect primitives between the rounded corners*
20,1,$1+$1,$2,$3,$4,$5,0*
20,1,$1+$1,$4,$5,$6,$7,0*
20,1,$1+$1,$6,$7,$8,$9,0*
20,1,$1+$1,$8,$9,$2,$3,0*%
G04 Aperture macros list end*
%TA.AperFunction,SMDPad,CuDef*%
%ADD10RoundRect,0.140000X0.170000X-0.140000X0.170000X0.140000X-0.170000X0.140000X-0.170000X-0.140000X0*%
%TD*%
%TA.AperFunction,SMDPad,CuDef*%
%ADD11RoundRect,0.135000X0.135000X0.185000X-0.135000X0.185000X-0.135000X-0.185000X0.135000X-0.185000X0*%
%TD*%
%TA.AperFunction,SMDPad,CuDef*%
%ADD12R,0.900000X0.400000*%
%TD*%
%TA.AperFunction,SMDPad,CuDef*%
%ADD13RoundRect,0.135000X-0.135000X-0.185000X0.135000X-0.185000X0.135000X0.185000X-0.135000X0.185000X0*%
%TD*%
%TA.AperFunction,SMDPad,CuDef*%
%ADD14R,2.000000X1.000000*%
%TD*%
%TA.AperFunction,SMDPad,CuDef*%
%ADD15RoundRect,0.140000X0.140000X0.170000X-0.140000X0.170000X-0.140000X-0.170000X0.140000X-0.170000X0*%
%TD*%
%TA.AperFunction,SMDPad,CuDef*%
%ADD16RoundRect,0.100000X0.637500X0.100000X-0.637500X0.100000X-0.637500X-0.100000X0.637500X-0.100000X0*%
%TD*%
%TA.AperFunction,ComponentPad*%
%ADD17R,1.700000X1.700000*%
%TD*%
%TA.AperFunction,ComponentPad*%
%ADD18O,1.700000X1.700000*%
%TD*%
%TA.AperFunction,ViaPad*%
%ADD19C,0.800000*%
%TD*%
%TA.AperFunction,Conductor*%
%ADD20C,0.250000*%
%TD*%
%TA.AperFunction,Conductor*%
%ADD21C,0.200000*%
%TD*%
G04 APERTURE END LIST*
D10*
%TO.P,C4,1*%
%TO.N,+5V*%
X20490600Y-13459600D03*
%TO.P,C4,2*%
%TO.N,GND*%
X20490600Y-12499600D03*
%TD*%
D11*
%TO.P,R1,1*%
%TO.N,CSYNC_IN*%
X30179200Y-13614400D03*
%TO.P,R1,2*%
%TO.N,CSYNC_TERM*%
X29159200Y-13614400D03*
%TD*%
D12*
%TO.P,RN1,1,R1.1*%
%TO.N,R_OUT*%
X18511200Y-14618000D03*
%TO.P,RN1,2,R2.1*%
%TO.N,G_OUT*%
X18511200Y-15418000D03*
%TO.P,RN1,3,R3.1*%
%TO.N,B_OUT*%
X18511200Y-16218000D03*
%TO.P,RN1,4,R4.1*%
%TO.N,GND*%
X18511200Y-17018000D03*
%TO.P,RN1,5,R4.2*%
X20211200Y-17018000D03*
%TO.P,RN1,6,R3.2*%
%TO.N,Net-(RN1-R3.2)*%
X20211200Y-16218000D03*
%TO.P,RN1,7,R2.2*%
%TO.N,Net-(RN1-R2.2)*%
X20211200Y-15418000D03*
%TO.P,RN1,8,R1.2*%
%TO.N,Net-(RN1-R1.2)*%
X20211200Y-14618000D03*
%TD*%
D13*
%TO.P,R2,1*%
%TO.N,GND*%
X29157200Y-14630400D03*
%TO.P,R2,2*%
%TO.N,CSYNC_TERM*%
X30177200Y-14630400D03*
%TD*%
D14*
%TO.P,TP4,1,1*%
%TO.N,G_IN*%
X31850000Y-16256000D03*
%TD*%
D15*
%TO.P,C1,1*%
%TO.N,B_IN*%
X30119200Y-15697200D03*
%TO.P,C1,2*%
%TO.N,Net-(U1-CH2_IN)*%
X29159200Y-15697200D03*
%TD*%
%TO.P,C3,1*%
%TO.N,R_IN*%
X30119200Y-17703800D03*
%TO.P,C3,2*%
%TO.N,Net-(U1-CH4_IN)*%
X29159200Y-17703800D03*
%TD*%
D14*
%TO.P,TP2,1,1*%
%TO.N,CSYNC_IN*%
X31851600Y-13436600D03*
%TD*%
D15*
%TO.P,C2,1*%
%TO.N,G_IN*%
X30119200Y-16713200D03*
%TO.P,C2,2*%
%TO.N,Net-(U1-CH3_IN)*%
X29159200Y-16713200D03*
%TD*%
D14*
%TO.P,TP3,1,1*%
%TO.N,B_IN*%
X31851600Y-14859000D03*
%TD*%
%TO.P,TP5,1,1*%
%TO.N,R_IN*%
X31826200Y-17653000D03*
%TD*%
D16*
%TO.P,U1,1,CH1_IN*%
%TO.N,CSYNC_TERM*%
X27678800Y-16879600D03*
%TO.P,U1,2,CH2_IN*%
%TO.N,Net-(U1-CH2_IN)*%
X27678800Y-16229600D03*
%TO.P,U1,3,CH3_IN*%
%TO.N,Net-(U1-CH3_IN)*%
X27678800Y-15579600D03*
%TO.P,U1,4,CH4_IN*%
%TO.N,Net-(U1-CH4_IN)*%
X27678800Y-14929600D03*
%TO.P,U1,5,GND*%
%TO.N,GND*%
X27678800Y-14279600D03*
%TO.P,U1,6,DISABLE*%
X27678800Y-13629600D03*
%TO.P,U1,7,NC*%
%TO.N,unconnected-(U1-NC-Pad7)*%
X27678800Y-12979600D03*
%TO.P,U1,8,NC*%
%TO.N,unconnected-(U1-NC-Pad8)*%
X21953800Y-12979600D03*
%TO.P,U1,9,BYPASS*%
%TO.N,GND*%
X21953800Y-13629600D03*
%TO.P,U1,10,V_{S+}*%
%TO.N,+5V*%
X21953800Y-14279600D03*
%TO.P,U1,11,CH4_OUT*%
%TO.N,Net-(RN1-R1.2)*%
X21953800Y-14929600D03*
%TO.P,U1,12,CH3_OUT*%
%TO.N,Net-(RN1-R2.2)*%
X21953800Y-15579600D03*
%TO.P,U1,13,CH2_OUT*%
%TO.N,Net-(RN1-R3.2)*%
X21953800Y-16229600D03*
%TO.P,U1,14,CH1_OUT*%
%TO.N,CSYNC_OUT*%
X21953800Y-16879600D03*
%TD*%
D17*
%TO.P,J1,1,Pin_1*%
%TO.N,R_OUT*%
X16426600Y-13944800D03*
D18*
%TO.P,J1,2,Pin_2*%
%TO.N,G_OUT*%
X13886600Y-13944800D03*
%TO.P,J1,3,Pin_3*%
%TO.N,CSYNC_OUT*%
X16426600Y-16484800D03*
%TO.P,J1,4,Pin_4*%
%TO.N,B_OUT*%
X13886600Y-16484800D03*
%TO.P,J1,5,Pin_5*%
%TO.N,GND*%
X16426600Y-19024800D03*
%TO.P,J1,6,Pin_6*%
X13886600Y-19024800D03*
%TO.P,J1,7,Pin_7*%
%TO.N,unconnected-(J1-Pin_7-Pad7)*%
X16426600Y-21564800D03*
%TO.P,J1,8,Pin_8*%
%TO.N,unconnected-(J1-Pin_8-Pad8)*%
X13886600Y-21564800D03*
%TO.P,J1,9,Pin_9*%
%TO.N,unconnected-(J1-Pin_9-Pad9)*%
X16426600Y-24104800D03*
%TO.P,J1,10,Pin_10*%
%TO.N,+5V*%
X13886600Y-24104800D03*
%TO.P,J1,11,Pin_11*%
%TO.N,unconnected-(J1-Pin_11-Pad11)*%
X16426600Y-26644800D03*
%TO.P,J1,12,Pin_12*%
%TO.N,unconnected-(J1-Pin_12-Pad12)*%
X13886600Y-26644800D03*
%TD*%
D19*
%TO.N,+5V*%
X18153800Y-13436800D03*
%TO.N,GND*%
X15105800Y-27965600D03*
X19296800Y-12674800D03*
X12565800Y-22885600D03*
X30226000Y-12598400D03*
X24044966Y-17746843D03*
X18509400Y-17831000D03*
X20236600Y-17780200D03*
X17696600Y-22834800D03*
X12464200Y-25425600D03*
X17747400Y-25374800D03*
X25418200Y-14554400D03*
X17645800Y-20421800D03*
X24173600Y-16307000D03*
X15207400Y-25374800D03*
%TO.N,CSYNC_TERM*%
X26263057Y-16649100D03*
X29015800Y-12992700D03*
%TO.N,CSYNC_OUT*%
X23360800Y-17018200D03*
%TD*%
D20*
%TO.N,+5V*%
X20994400Y-14093000D02*
X21181000Y-14279600D01*
X18153800Y-13436800D02*
X20442400Y-13436800D01*
X20442400Y-13947400D02*
X20588000Y-14093000D01*
X21181000Y-14279600D02*
X21953800Y-14279600D01*
X20442400Y-13436800D02*
X20442400Y-13947400D01*
X20588000Y-14093000D02*
X20994400Y-14093000D01*
D21*
%TO.N,GND*%
X18560200Y-17780200D02*
X20236600Y-17780200D01*
D20*
X12565800Y-20294800D02*
X17696600Y-20294800D01*
D21*
X18509400Y-17831000D02*
X18026800Y-17831000D01*
D20*
X28478200Y-14279600D02*
X27678800Y-14279600D01*
X17747400Y-25374800D02*
X15207400Y-25374800D01*
X26343000Y-13629600D02*
X27678800Y-13629600D01*
D21*
X18509400Y-17032400D02*
X18511200Y-17030600D01*
D20*
X12515000Y-25374800D02*
X12464200Y-25425600D01*
X28854400Y-14655800D02*
X28478200Y-14279600D01*
X12182800Y-12803800D02*
X12182800Y-19024800D01*
X18890400Y-12268400D02*
X12718200Y-12268400D01*
X23986209Y-17805600D02*
X20490600Y-17805600D01*
X20594800Y-12395400D02*
X23259200Y-12395400D01*
X25693000Y-14279600D02*
X25418200Y-14554400D01*
X20183200Y-12268400D02*
X19703200Y-12268400D01*
X12565800Y-22885600D02*
X12565800Y-20294800D01*
X17696600Y-20371000D02*
X17645800Y-20421800D01*
X15207400Y-27864000D02*
X15105800Y-27965600D01*
D21*
X20236600Y-17780200D02*
X20287400Y-18008800D01*
D20*
X30226000Y-12598400D02*
X29895800Y-12268200D01*
D21*
X18026800Y-19024800D02*
X16426600Y-19024800D01*
D20*
X15207400Y-25374800D02*
X15207400Y-27864000D01*
X23259200Y-12395400D02*
X25418200Y-14554400D01*
X24044966Y-17746843D02*
X23986209Y-17805600D01*
X17696600Y-20294800D02*
X17696600Y-20371000D01*
X26459600Y-13513000D02*
X25418200Y-14554400D01*
X20439800Y-12525000D02*
X20183200Y-12268400D01*
X29286200Y-14630400D02*
X29260800Y-14655800D01*
D21*
X18509400Y-17831000D02*
X18560200Y-17780200D01*
D20*
X12182800Y-19024800D02*
X13886600Y-19024800D01*
X19296800Y-12674800D02*
X18890400Y-12268400D01*
X27678800Y-14279600D02*
X25693000Y-14279600D01*
X26459600Y-12751000D02*
X26459600Y-13513000D01*
X20490600Y-17805600D02*
X20287400Y-18008800D01*
X17696600Y-22834800D02*
X15207400Y-22834800D01*
X20211200Y-17754800D02*
X20236600Y-17780200D01*
X20211200Y-17030600D02*
X20211200Y-17754800D01*
D21*
X18026800Y-17831000D02*
X18026800Y-19024800D01*
D20*
X17696600Y-20472600D02*
X17696600Y-22834800D01*
X21953800Y-13629600D02*
X24493400Y-13629600D01*
X15207400Y-19177200D02*
X15207400Y-22834800D01*
X15055000Y-19024800D02*
X13886600Y-19024800D01*
X15207400Y-25374800D02*
X12515000Y-25374800D01*
X12616600Y-22834800D02*
X12565800Y-22885600D01*
X29895800Y-12268200D02*
X26942400Y-12268200D01*
X27678800Y-13629600D02*
X27678800Y-14279600D01*
X19703200Y-12268400D02*
X19296800Y-12674800D01*
X26942400Y-12268200D02*
X26459600Y-12751000D01*
X20490600Y-12499600D02*
X20594800Y-12395400D01*
X17645800Y-20421800D02*
X17696600Y-20472600D01*
X15207400Y-22834800D02*
X15207400Y-25374800D01*
X15055000Y-19024800D02*
X15207400Y-19177200D01*
D21*
X18509400Y-17831000D02*
X18509400Y-17032400D01*
D20*
X12718200Y-12268400D02*
X12182800Y-12803800D01*
X25418200Y-14554400D02*
X26343000Y-13629600D01*
X16426600Y-19024800D02*
X15055000Y-19024800D01*
X24493400Y-13629600D02*
X25418200Y-14554400D01*
X15207400Y-22834800D02*
X12616600Y-22834800D01*
X29260800Y-14655800D02*
X28854400Y-14655800D01*
%TO.N,Net-(U1-CH2_IN)*%
X28398200Y-16229600D02*
X27678800Y-16229600D01*
X28930400Y-15697400D02*
X28398200Y-16229600D01*
X29136400Y-15697400D02*
X28930400Y-15697400D01*
D21*
%TO.N,Net-(U1-CH3_IN)*%
X25538057Y-16348795D02*
X26307252Y-15579600D01*
X29060998Y-16835944D02*
X28833256Y-16835944D01*
X28741300Y-17105700D02*
X28716300Y-17130700D01*
X25538057Y-16949405D02*
X25538057Y-16348795D01*
X28716300Y-17145288D02*
X28456988Y-17404600D01*
X25993252Y-17404600D02*
X25538057Y-16949405D01*
X26307252Y-15579600D02*
X27678800Y-15579600D01*
X28716300Y-17130700D02*
X28716300Y-17145288D01*
X28833256Y-16835944D02*
X28741300Y-16927900D01*
X28456988Y-17404600D02*
X25993252Y-17404600D01*
X28741300Y-16927900D02*
X28741300Y-17105700D01*
D20*
%TO.N,Net-(U1-CH4_IN)*%
X25088057Y-16162399D02*
X25088057Y-17135801D01*
X26320856Y-14929600D02*
X25088057Y-16162399D01*
X25806856Y-17854600D02*
X29216800Y-17854600D01*
X25088057Y-17135801D02*
X25806856Y-17854600D01*
X27678800Y-14929600D02*
X28367342Y-14929600D01*
X29216800Y-17854600D02*
X29367600Y-17703800D01*
X27678800Y-14929600D02*
X26320856Y-14929600D01*
%TO.N,CSYNC_TERM*%
X26263057Y-16649100D02*
X26377300Y-16649100D01*
X29015800Y-12992700D02*
X29284200Y-13261100D01*
X26263057Y-16649100D02*
X26493557Y-16879600D01*
X29284200Y-13261100D02*
X29284200Y-13614400D01*
X29284200Y-13614400D02*
X29584200Y-13914400D01*
X29584200Y-13914400D02*
X29584200Y-14086862D01*
X26377300Y-16649100D02*
X26593800Y-16865600D01*
X30127738Y-14630400D02*
X30306200Y-14630400D01*
X26493557Y-16879600D02*
X27678800Y-16879600D01*
X29584200Y-14086862D02*
X30127738Y-14630400D01*
%TO.N,B_IN*%
X31038800Y-14859000D02*
X30292400Y-15605400D01*
X31851600Y-14859000D02*
X31038800Y-14859000D01*
X30292400Y-15605400D02*
X30292400Y-15697400D01*
%TO.N,G_IN*%
X30734000Y-16256000D02*
X30325000Y-16665000D01*
X31546800Y-16256000D02*
X30734000Y-16256000D01*
X30325000Y-16665000D02*
X30325000Y-16713200D01*
X31673800Y-16383000D02*
X31546800Y-16256000D01*
%TO.N,R_IN*%
X31992800Y-17703800D02*
X32018200Y-17729200D01*
X30327600Y-17703800D02*
X31992800Y-17703800D01*
%TO.N,R_OUT*%
X18511200Y-14630600D02*
X17112400Y-14630600D01*
X17112400Y-14630600D02*
X16426600Y-13944800D01*
%TO.N,G_OUT*%
X13886600Y-15037000D02*
X14064400Y-15214800D01*
X17683800Y-15430600D02*
X18511200Y-15430600D01*
X17468000Y-15214800D02*
X17683800Y-15430600D01*
X14064400Y-15214800D02*
X17468000Y-15214800D01*
X13886600Y-13944800D02*
X13886600Y-15037000D01*
%TO.N,CSYNC_OUT*%
X21953800Y-16879600D02*
X23120600Y-16879600D01*
X23360800Y-17119800D02*
X23284600Y-17043600D01*
X23360800Y-17018200D02*
X23360800Y-17119800D01*
X23259200Y-17018200D02*
X23360800Y-17018200D01*
X23120600Y-16879600D02*
X23259200Y-17018200D01*
%TO.N,B_OUT*%
X13886600Y-17526200D02*
X14191400Y-17831000D01*
X17971608Y-16230600D02*
X18511200Y-16230600D01*
X17696600Y-17558600D02*
X17696600Y-16505608D01*
X14191400Y-17831000D02*
X17424200Y-17831000D01*
X13886600Y-16484800D02*
X13886600Y-17526200D01*
X17696600Y-16505608D02*
X17971608Y-16230600D01*
X17424200Y-17831000D02*
X17696600Y-17558600D01*
%TO.N,CSYNC_IN*%
X31242000Y-13614400D02*
X30304200Y-13614400D01*
X31419800Y-13436600D02*
X31242000Y-13614400D01*
%TO.N,Net-(RN1-R1.2)*%
X20828200Y-14630600D02*
X20211200Y-14630600D01*
X21228800Y-15031200D02*
X20828200Y-14630600D01*
X21303400Y-15031200D02*
X21228800Y-15031200D01*
%TO.N,Net-(RN1-R3.2)*%
X20211200Y-16230600D02*
X21952800Y-16230600D01*
X21952800Y-16230600D02*
X21953800Y-16229600D01*
D21*
%TO.N,Net-(RN1-R2.2)*%
X21868400Y-15494200D02*
X20274800Y-15494200D01*
X21953800Y-15579600D02*
X21868400Y-15494200D01*
X20274800Y-15494200D02*
X20211200Y-15430600D01*
%TD*%
%TA.AperFunction,Conductor*%
%TO.N,GND*%
G36*
X19626671Y-12136111D02*
G01*
X19672427Y-12188914D01*
X19679982Y-12241458D01*
X19686095Y-12249600D01*
X20616600Y-12249600D01*
X20683639Y-12269285D01*
X20729394Y-12322089D01*
X20740600Y-12373600D01*
X20740600Y-12555100D01*
X20720915Y-12622139D01*
X20668111Y-12667894D01*
X20616600Y-12679100D01*
X20255908Y-12679100D01*
X20219608Y-12681956D01*
X20219602Y-12681957D01*
X20064210Y-12727103D01*
X20064205Y-12727106D01*
X20055366Y-12732332D01*
X19992248Y-12749600D01*
X19686095Y-12749600D01*
X19676971Y-12761752D01*
X19620977Y-12803544D01*
X19577810Y-12811300D01*
X18857548Y-12811300D01*
X18790509Y-12791615D01*
X18765400Y-12770274D01*
X18759673Y-12763914D01*
X18759669Y-12763910D01*
X18606534Y-12652651D01*
X18606529Y-12652648D01*
X18433607Y-12575657D01*
X18433602Y-12575655D01*
X18287801Y-12544665D01*
X18248446Y-12536300D01*
X18059154Y-12536300D01*
X18026697Y-12543198D01*
X17873997Y-12575655D01*
X17873992Y-12575657D01*
X17701070Y-12652649D01*
X17683734Y-12665243D01*
X17617926Y-12688719D01*
X17549873Y-12672890D01*
X17536544Y-12664188D01*
X17518935Y-12651006D01*
X17518928Y-12651002D01*
X17384082Y-12600708D01*
X17384083Y-12600708D01*
X17324483Y-12594301D01*
X17324481Y-12594300D01*
X17324473Y-12594300D01*
X17324464Y-12594300D01*
X15528729Y-12594300D01*
X15528723Y-12594301D01*
X15469116Y-12600708D01*
X15334271Y-12651002D01*
X15334264Y-12651006D01*
X15219055Y-12737252D01*
X15219052Y-12737255D01*
X15132806Y-12852464D01*
X15132803Y-12852469D01*
X15083789Y-12983883D01*
X15041917Y-13039816D01*
X14976453Y-13064233D01*
X14908180Y-13049381D01*
X14879926Y-13028230D01*
X14758002Y-12906306D01*
X14757995Y-12906301D01*
X14564434Y-12770767D01*
X14564430Y-12770765D01*
X14545102Y-12761752D01*
X14350263Y-12670897D01*
X14350259Y-12670896D01*
X14350255Y-12670894D01*
X14122013Y-12609738D01*
X14122003Y-12609736D01*
X13886601Y-12589141D01*
X13886599Y-12589141D01*
X13651196Y-12609736D01*
X13651186Y-12609738D01*
X13422944Y-12670894D01*
X13422935Y-12670898D01*
X13208771Y-12770764D01*
X13208769Y-12770765D01*
X13015197Y-12906305D01*
X12848105Y-13073397D01*
X12712565Y-13266969D01*
X12712564Y-13266971D01*
X12612698Y-13481135D01*
X12612694Y-13481144D01*
X12551538Y-13709386D01*
X12551536Y-13709396D01*
X12530941Y-13944799D01*
X12530941Y-13944800D01*
X12551536Y-14180203D01*
X12551538Y-14180213D01*
X12612694Y-14408455D01*
X12612696Y-14408459D01*
X12612697Y-14408463D01*
X12678704Y-14550014D01*
X12712565Y-14622630D01*
X12712567Y-14622634D01*
X12747721Y-14672838D01*
X12829925Y-14790238D01*
X12848101Y-14816195D01*
X12848106Y-14816202D01*
X13015197Y-14983293D01*
X13015203Y-14983298D01*
X13200758Y-15113225D01*
X13244383Y-15167802D01*
X13251577Y-15237300D01*
X13220054Y-15299655D01*
X13200758Y-15316375D01*
X13015197Y-15446305D01*
X12848105Y-15613397D01*
X12712565Y-15806969D01*
X12712564Y-15806971D01*
X12612698Y-16021135D01*
X12612694Y-16021144D01*
X12551538Y-16249386D01*
X12551536Y-16249396D01*
X12530941Y-16484799D01*
X12530941Y-16484800D01*
X12551536Y-16720203D01*
X12551538Y-16720213D01*
X12612694Y-16948455D01*
X12612696Y-16948459D01*
X12612697Y-16948463D01*
X12672387Y-17076468D01*
X12712565Y-17162630D01*
X12712567Y-17162634D01*
X12848101Y-17356195D01*
X12848106Y-17356202D01*
X13015197Y-17523293D01*
X13015203Y-17523298D01*
X13064453Y-17557783D01*
X13178470Y-17637619D01*
X13201194Y-17653530D01*
X13244819Y-17708107D01*
X13252013Y-17777605D01*
X13220490Y-17839960D01*
X13201195Y-17856680D01*
X13015522Y-17986690D01*
X13015520Y-17986691D01*
X12848491Y-18153720D01*
X12848486Y-18153726D01*
X12713000Y-18347220D01*
X12712999Y-18347222D01*
X12613170Y-18561307D01*
X12613167Y-18561313D01*
X12555964Y-18774799D01*
X12555964Y-18774800D01*
X13452914Y-18774800D01*
X13427107Y-18814956D01*
X13386600Y-18952911D01*
X13386600Y-19096689D01*
X13427107Y-19234644D01*
X13452914Y-19274800D01*
X12555964Y-19274800D01*
X12613167Y-19488286D01*
X12613170Y-19488292D01*
X12712999Y-19702378D01*
X12848494Y-19895882D01*
X13015517Y-20062905D01*
X13201195Y-20192919D01*
X13244819Y-20247496D01*
X13252012Y-20316995D01*
X13220490Y-20379349D01*
X13201195Y-20396069D01*
X13015194Y-20526308D01*
X12848105Y-20693397D01*
X12712565Y-20886969D01*
X12712564Y-20886971D01*
X12612698Y-21101135D01*
X12612694Y-21101144D01*
X12551538Y-21329386D01*
X12551536Y-21329396D01*
X12530941Y-21564799D01*
X12530941Y-21564800D01*
X12551536Y-21800203D01*
X12551538Y-21800213D01*
X12612694Y-22028455D01*
X12612696Y-22028459D01*
X12612697Y-22028463D01*
X12616600Y-22036832D01*
X12712565Y-22242630D01*
X12712567Y-22242634D01*
X12820881Y-22397321D01*
X12848101Y-22436196D01*
X12848106Y-22436202D01*
X13015197Y-22603293D01*
X13015203Y-22603298D01*
X13200758Y-22733225D01*
X13244383Y-22787802D01*
X13251577Y-22857300D01*
X13220054Y-22919655D01*
X13200758Y-22936375D01*
X13015197Y-23066305D01*
X12848105Y-23233397D01*
X12712565Y-23426969D01*
X12712564Y-23426971D01*
X12612698Y-23641135D01*
X12612694Y-23641144D01*
X12551538Y-23869386D01*
X12551536Y-23869396D01*
X12530941Y-24104799D01*
X12530941Y-24104800D01*
X12551536Y-24340203D01*
X12551538Y-24340213D01*
X12612694Y-24568455D01*
X12612696Y-24568459D01*
X12612697Y-24568463D01*
X12616600Y-24576832D01*
X12712565Y-24782630D01*
X12712567Y-24782634D01*
X12820881Y-24937321D01*
X12848101Y-24976196D01*
X12848106Y-24976202D01*
X13015197Y-25143293D01*
X13015203Y-25143298D01*
X13200758Y-25273225D01*
X13244383Y-25327802D01*
X13251577Y-25397300D01*
X13220054Y-25459655D01*
X13200758Y-25476375D01*
X13015197Y-25606305D01*
X12848105Y-25773397D01*
X12712565Y-25966969D01*
X12712564Y-25966971D01*
X12612698Y-26181135D01*
X12612694Y-26181144D01*
X12551538Y-26409386D01*
X12551536Y-26409396D01*
X12530941Y-26644799D01*
X12530941Y-26644800D01*
X12551536Y-26880203D01*
X12551538Y-26880213D01*
X12612694Y-27108455D01*
X12612696Y-27108459D01*
X12612697Y-27108463D01*
X12616600Y-27116832D01*
X12712565Y-27322630D01*
X12712567Y-27322634D01*
X12820881Y-27477321D01*
X12848105Y-27516201D01*
X13015199Y-27683295D01*
X13111984Y-27751065D01*
X13208765Y-27818832D01*
X13208767Y-27818833D01*
X13208770Y-27818835D01*
X13422937Y-27918703D01*
X13651192Y-27979863D01*
X13839518Y-27996339D01*
X13886599Y-28000459D01*
X13886600Y-28000459D01*
X13886601Y-28000459D01*
X13925834Y-27997026D01*
X14122008Y-27979863D01*
X14350263Y-27918703D01*
X14564430Y-27818835D01*
X14758001Y-27683295D01*
X14925095Y-27516201D01*
X15055025Y-27330642D01*
X15109602Y-27287017D01*
X15179100Y-27279823D01*
X15241455Y-27311346D01*
X15258175Y-27330642D01*
X15388100Y-27516195D01*
X15388105Y-27516201D01*
X15555199Y-27683295D01*
X15651984Y-27751065D01*
X15748765Y-27818832D01*
X15748767Y-27818833D01*
X15748770Y-27818835D01*
X15962937Y-27918703D01*
X16191192Y-27979863D01*
X16379518Y-27996339D01*
X16426599Y-28000459D01*
X16426600Y-28000459D01*
X16426601Y-28000459D01*
X16465834Y-27997026D01*
X16662008Y-27979863D01*
X16890263Y-27918703D01*
X17104430Y-27818835D01*
X17298001Y-27683295D01*
X17465095Y-27516201D01*
X17600635Y-27322630D01*
X17700503Y-27108463D01*
X17761663Y-26880208D01*
X17782259Y-26644800D01*
X17761663Y-26409392D01*
X17700503Y-26181137D01*
X17600635Y-25966971D01*
X17595025Y-25958958D01*
X17465094Y-25773397D01*
X17298002Y-25606306D01*
X17297996Y-25606301D01*
X17112442Y-25476375D01*
X17068817Y-25421798D01*
X17061623Y-25352300D01*
X17093146Y-25289945D01*
X17112442Y-25273225D01*
X17134626Y-25257691D01*
X17298001Y-25143295D01*
X17465095Y-24976201D01*
X17600635Y-24782630D01*
X17700503Y-24568463D01*
X17761663Y-24340208D01*
X17782259Y-24104800D01*
X17761663Y-23869392D01*
X17700503Y-23641137D01*
X17600635Y-23426971D01*
X17595025Y-23418958D01*
X17465094Y-23233397D01*
X17298002Y-23066306D01*
X17297996Y-23066301D01*
X17112442Y-22936375D01*
X17068817Y-22881798D01*
X17061623Y-22812300D01*
X17093146Y-22749945D01*
X17112442Y-22733225D01*
X17134626Y-22717691D01*
X17298001Y-22603295D01*
X17465095Y-22436201D01*
X17600635Y-22242630D01*
X17700503Y-22028463D01*
X17761663Y-21800208D01*
X17782259Y-21564800D01*
X17761663Y-21329392D01*
X17700503Y-21101137D01*
X17600635Y-20886971D01*
X17595025Y-20878958D01*
X17465094Y-20693397D01*
X17298002Y-20526306D01*
X17298001Y-20526305D01*
X17112005Y-20396069D01*
X17068381Y-20341492D01*
X17061188Y-20271993D01*
X17092710Y-20209639D01*
X17112005Y-20192919D01*
X17297682Y-20062905D01*
X17464705Y-19895882D01*
X17600200Y-19702378D01*
X17700029Y-19488292D01*
X17700032Y-19488286D01*
X17757236Y-19274800D01*
X16860286Y-19274800D01*
X16886093Y-19234644D01*
X16926600Y-19096689D01*
X16926600Y-18952911D01*
X16886093Y-18814956D01*
X16860286Y-18774800D01*
X17757236Y-18774800D01*
X17757235Y-18774799D01*
X17700029Y-18561308D01*
X17688354Y-18536271D01*
X17677861Y-18467194D01*
X17706379Y-18403409D01*
X17727848Y-18383546D01*
X17727928Y-18383487D01*
X17727932Y-18383486D01*
X17765639Y-18356088D01*
X17770490Y-18352901D01*
X17810620Y-18329170D01*
X17824789Y-18314999D01*
X17839579Y-18302368D01*
X17855787Y-18290594D01*
X17885499Y-18254676D01*
X17889412Y-18250376D01*
X18080386Y-18059402D01*
X18092648Y-18049580D01*
X18092465Y-18049359D01*
X18098467Y-18044392D01*
X18098477Y-18044386D01*
X18145841Y-17993948D01*
X18166720Y-17973070D01*
X18170973Y-17967586D01*
X18174750Y-17963163D01*
X18206662Y-17929182D01*
X18216314Y-17911623D01*
X18226989Y-17895372D01*
X18239274Y-17879536D01*
X18257786Y-17836752D01*
X18260342Y-17831535D01*
X18282797Y-17790692D01*
X18287780Y-17771280D01*
X18294078Y-17752887D01*
X18298241Y-17743268D01*
X18311200Y-17724201D01*
X18311200Y-17695732D01*
X18315097Y-17664890D01*
X18316005Y-17661354D01*
X18322100Y-17637619D01*
X18322100Y-17617583D01*
X18323627Y-17598182D01*
X18326760Y-17578404D01*
X18322375Y-17532015D01*
X18322100Y-17526177D01*
X18322100Y-17218000D01*
X18711200Y-17218000D01*
X18711200Y-17718000D01*
X19009028Y-17718000D01*
X19009044Y-17717999D01*
X19068572Y-17711598D01*
X19068579Y-17711596D01*
X19203286Y-17661354D01*
X19203289Y-17661352D01*
X19286888Y-17598770D01*
X19352352Y-17574352D01*
X19420625Y-17589203D01*
X19435512Y-17598770D01*
X19519110Y-17661352D01*
X19519113Y-17661354D01*
X19653820Y-17711596D01*
X19653827Y-17711598D01*
X19713355Y-17717999D01*
X19713372Y-17718000D01*
X20011200Y-17718000D01*
X20011200Y-17218000D01*
X18711200Y-17218000D01*
X18322100Y-17218000D01*
X18322100Y-17042499D01*
X18341785Y-16975460D01*
X18394589Y-16929705D01*
X18446100Y-16918499D01*
X19009071Y-16918499D01*
X19009072Y-16918499D01*
X19068683Y-16912091D01*
X19203531Y-16861796D01*
X19228996Y-16842733D01*
X19294461Y-16818316D01*
X19303307Y-16818000D01*
X19419093Y-16818000D01*
X19486132Y-16837685D01*
X19493404Y-16842733D01*
X19518868Y-16861795D01*
X19518871Y-16861797D01*
X19563818Y-16878561D01*
X19653717Y-16912091D01*
X19713327Y-16918500D01*
X20287201Y-16918499D01*
X20354239Y-16938183D01*
X20399994Y-16990987D01*
X20411200Y-17042499D01*
X20411200Y-17718000D01*
X20709028Y-17718000D01*
X20709044Y-17717999D01*
X20768572Y-17711598D01*
X20768579Y-17711596D01*
X20903286Y-17661354D01*
X20903289Y-17661352D01*
X21021209Y-17573077D01*
X21086673Y-17548659D01*
X21142972Y-17557782D01*
X21159538Y-17564644D01*
X21276939Y-17580100D01*
X22599785Y-17580099D01*
X22666824Y-17599784D01*
X22691934Y-17621126D01*
X22754928Y-17691087D01*
X22754929Y-17691088D01*
X22908065Y-17802348D01*
X22908070Y-17802351D01*
X23080992Y-17879342D01*
X23080997Y-17879344D01*
X23266154Y-17918700D01*
X23266155Y-17918700D01*
X23455444Y-17918700D01*
X23455446Y-17918700D01*
X23640603Y-17879344D01*
X23813530Y-17802351D01*
X23966671Y-17691088D01*
X24093333Y-17550416D01*
X24187979Y-17386484D01*
X24233181Y-17247364D01*
X24272618Y-17189691D01*
X24336977Y-17162492D01*
X24405823Y-17174406D01*
X24457299Y-17221650D01*
X24470182Y-17251067D01*
X24470932Y-17253650D01*
X24474881Y-17272712D01*
X24476111Y-17282441D01*
X24477393Y-17292592D01*
X24494547Y-17335920D01*
X24496439Y-17341448D01*
X24509438Y-17386189D01*
X24519637Y-17403435D01*
X24528195Y-17420904D01*
X24535571Y-17439533D01*
X24562955Y-17477224D01*
X24566163Y-17482108D01*
X24589884Y-17522217D01*
X24589890Y-17522225D01*
X24604047Y-17536381D01*
X24616685Y-17551177D01*
X24628462Y-17567387D01*
X24628463Y-17567388D01*
X24664366Y-17597089D01*
X24668677Y-17601011D01*
X25013677Y-17946012D01*
X25118284Y-18050619D01*
X25151769Y-18111942D01*
X25146785Y-18181634D01*
X25104913Y-18237567D01*
X25039449Y-18261984D01*
X25030603Y-18262300D01*
X18254838Y-18262300D01*
X18254632Y-18262259D01*
X18230078Y-18262259D01*
X18229979Y-18262300D01*
X18229695Y-18262416D01*
X18229693Y-18262418D01*
X18229537Y-18262799D01*
X18229554Y-18287416D01*
X18229549Y-18287416D01*
X18229578Y-18287559D01*
X18229578Y-28298300D01*
X18209893Y-28365339D01*
X18157089Y-28411094D01*
X18105578Y-28422300D01*
X12181800Y-28422300D01*
X12114761Y-28402615D01*
X12069006Y-28349811D01*
X12057800Y-28298300D01*
X12057800Y-12240497D01*
X12077485Y-12173458D01*
X12130289Y-12127703D01*
X12181794Y-12116498D01*
X19559636Y-12116428D01*
X19626671Y-12136111D01*
G37*
%TD.AperFunction*%
%TA.AperFunction,Conductor*%
G36*
X15241455Y-24771346D02*
G01*
X15258175Y-24790642D01*
X15388101Y-24976196D01*
X15388106Y-24976202D01*
X15555197Y-25143293D01*
X15555203Y-25143298D01*
X15740758Y-25273225D01*
X15784383Y-25327802D01*
X15791577Y-25397300D01*
X15760054Y-25459655D01*
X15740758Y-25476375D01*
X15555197Y-25606305D01*
X15388105Y-25773397D01*
X15258175Y-25958958D01*
X15203598Y-26002583D01*
X15134100Y-26009777D01*
X15071745Y-25978254D01*
X15055025Y-25958958D01*
X14925094Y-25773397D01*
X14758002Y-25606306D01*
X14757996Y-25606301D01*
X14572442Y-25476375D01*
X14528817Y-25421798D01*
X14521623Y-25352300D01*
X14553146Y-25289945D01*
X14572442Y-25273225D01*
X14594626Y-25257691D01*
X14758001Y-25143295D01*
X14925095Y-24976201D01*
X15055025Y-24790642D01*
X15109602Y-24747017D01*
X15179100Y-24739823D01*
X15241455Y-24771346D01*
G37*
%TD.AperFunction*%
%TA.AperFunction,Conductor*%
G36*
X15241455Y-22231346D02*
G01*
X15258175Y-22250642D01*
X15388101Y-22436196D01*
X15388106Y-22436202D01*
X15555197Y-22603293D01*
X15555203Y-22603298D01*
X15740758Y-22733225D01*
X15784383Y-22787802D01*
X15791577Y-22857300D01*
X15760054Y-22919655D01*
X15740758Y-22936375D01*
X15555197Y-23066305D01*
X15388105Y-23233397D01*
X15258175Y-23418958D01*
X15203598Y-23462583D01*
X15134100Y-23469777D01*
X15071745Y-23438254D01*
X15055025Y-23418958D01*
X14925094Y-23233397D01*
X14758002Y-23066306D01*
X14757996Y-23066301D01*
X14572442Y-22936375D01*
X14528817Y-22881798D01*
X14521623Y-22812300D01*
X14553146Y-22749945D01*
X14572442Y-22733225D01*
X14594626Y-22717691D01*
X14758001Y-22603295D01*
X14925095Y-22436201D01*
X15055025Y-22250642D01*
X15109602Y-22207017D01*
X15179100Y-22199823D01*
X15241455Y-22231346D01*
G37*
%TD.AperFunction*%
%TA.AperFunction,Conductor*%
G36*
X15241455Y-19690473D02*
G01*
X15258175Y-19709768D01*
X15388494Y-19895882D01*
X15555517Y-20062905D01*
X15741195Y-20192919D01*
X15784819Y-20247496D01*
X15792012Y-20316995D01*
X15760490Y-20379349D01*
X15741195Y-20396069D01*
X15555194Y-20526308D01*
X15388105Y-20693397D01*
X15258175Y-20878958D01*
X15203598Y-20922583D01*
X15134100Y-20929777D01*
X15071745Y-20898254D01*
X15055025Y-20878958D01*
X14925094Y-20693397D01*
X14758002Y-20526306D01*
X14758001Y-20526305D01*
X14572005Y-20396069D01*
X14528381Y-20341492D01*
X14521188Y-20271993D01*
X14552710Y-20209639D01*
X14572005Y-20192919D01*
X14757682Y-20062905D01*
X14924705Y-19895882D01*
X15055025Y-19709768D01*
X15109602Y-19666144D01*
X15179101Y-19658951D01*
X15241455Y-19690473D01*
G37*
%TD.AperFunction*%
%TA.AperFunction,Conductor*%
G36*
X15967107Y-18814956D02*
G01*
X15926600Y-18952911D01*
X15926600Y-19096689D01*
X15967107Y-19234644D01*
X15992914Y-19274800D01*
X14320286Y-19274800D01*
X14346093Y-19234644D01*
X14386600Y-19096689D01*
X14386600Y-18952911D01*
X14346093Y-18814956D01*
X14320286Y-18774800D01*
X15992914Y-18774800D01*
X15967107Y-18814956D01*
G37*
%TD.AperFunction*%
%TA.AperFunction,Conductor*%
G36*
X26758387Y-12136044D02*
G01*
X26804143Y-12188847D01*
X26814087Y-12258006D01*
X26785063Y-12321562D01*
X26745127Y-12350362D01*
X26745496Y-12351001D01*
X26739212Y-12354628D01*
X26738814Y-12354916D01*
X26738463Y-12355061D01*
X26613018Y-12451318D01*
X26516763Y-12576760D01*
X26456256Y-12722837D01*
X26456255Y-12722839D01*
X26440800Y-12840238D01*
X26440800Y-13118963D01*
X26456253Y-13236353D01*
X26456256Y-13236362D01*
X26465137Y-13257803D01*
X26472604Y-13327273D01*
X26465138Y-13352703D01*
X26456743Y-13372970D01*
X26449287Y-13429600D01*
X26491800Y-13429600D01*
X26558839Y-13449285D01*
X26590175Y-13478113D01*
X26613015Y-13507879D01*
X26613016Y-13507880D01*
X26613018Y-13507882D01*
X26738459Y-13604136D01*
X26738460Y-13604136D01*
X26742484Y-13607224D01*
X26783686Y-13663652D01*
X26787841Y-13733398D01*
X26753629Y-13794319D01*
X26691911Y-13827071D01*
X26666997Y-13829600D01*
X26449290Y-13829600D01*
X26449288Y-13829601D01*
X26456742Y-13886227D01*
X26456743Y-13886229D01*
X26465408Y-13907149D01*
X26472876Y-13976618D01*
X26465409Y-14002049D01*
X26456744Y-14022969D01*
X26441300Y-14140269D01*
X26441300Y-14179842D01*
X26421615Y-14246881D01*
X26368811Y-14292636D01*
X26321205Y-14303780D01*
X26312197Y-14304064D01*
X26311060Y-14304100D01*
X26281506Y-14304100D01*
X26280785Y-14304190D01*
X26274613Y-14304969D01*
X26268801Y-14305426D01*
X26222229Y-14306890D01*
X26222228Y-14306890D01*
X26202985Y-14312481D01*
X26183935Y-14316425D01*
X26164067Y-14318934D01*
X26120740Y-14336088D01*
X26115214Y-14337979D01*
X26070470Y-14350979D01*
X26070466Y-14350981D01*
X26053222Y-14361179D01*
X26035761Y-14369733D01*
X26017130Y-14377110D01*
X26017118Y-14377117D01*
X25979426Y-14404502D01*
X25974543Y-14407709D01*
X25934436Y-14431429D01*
X25920270Y-14445595D01*
X25905480Y-14458227D01*
X25889270Y-14470004D01*
X25889267Y-14470007D01*
X25859566Y-14505909D01*
X25855633Y-14510231D01*
X24704265Y-15661598D01*
X24692008Y-15671419D01*
X24692191Y-15671640D01*
X24686180Y-15676612D01*
X24638829Y-15727035D01*
X24617946Y-15747918D01*
X24617934Y-15747931D01*
X24613678Y-15753416D01*
X24609894Y-15757846D01*
X24577994Y-15791817D01*
X24577993Y-15791819D01*
X24568341Y-15809375D01*
X24557667Y-15825625D01*
X24545386Y-15841460D01*
X24545381Y-15841467D01*
X24526872Y-15884237D01*
X24524302Y-15889483D01*
X24501860Y-15930305D01*
X24496879Y-15949706D01*
X24490578Y-15968109D01*
X24482619Y-15986501D01*
X24482618Y-15986504D01*
X24475328Y-16032526D01*
X24474144Y-16038245D01*
X24462558Y-16083371D01*
X24462557Y-16083381D01*
X24462557Y-16103415D01*
X24461030Y-16122814D01*
X24457897Y-16142593D01*
X24457897Y-16142594D01*
X24462282Y-16188982D01*
X24462557Y-16194820D01*
X24462557Y-16712074D01*
X24442872Y-16779113D01*
X24390068Y-16824868D01*
X24320910Y-16834812D01*
X24257354Y-16805787D01*
X24220626Y-16750392D01*
X24187981Y-16649922D01*
X24187980Y-16649921D01*
X24187979Y-16649916D01*
X24093333Y-16485984D01*
X23966671Y-16345312D01*
X23966670Y-16345311D01*
X23813534Y-16234051D01*
X23813529Y-16234048D01*
X23640607Y-16157057D01*
X23640602Y-16157055D01*
X23494801Y-16126065D01*
X23455446Y-16117700D01*
X23304160Y-16117700D01*
X23237121Y-16098015D01*
X23191366Y-16045211D01*
X23181221Y-16009885D01*
X23180903Y-16007474D01*
X23176344Y-15972838D01*
X23167734Y-15952054D01*
X23160265Y-15882586D01*
X23167735Y-15857145D01*
X23174229Y-15841467D01*
X23176344Y-15836362D01*
X23191800Y-15718961D01*
X23191799Y-15440240D01*
X23176344Y-15322838D01*
X23167734Y-15302054D01*
X23160265Y-15232586D01*
X23167735Y-15207145D01*
X23173266Y-15193792D01*
X23176344Y-15186362D01*
X23191800Y-15068961D01*
X23191799Y-14790240D01*
X23176344Y-14672838D01*
X23167734Y-14652054D01*
X23160265Y-14582586D01*
X23167735Y-14557145D01*
X23170689Y-14550014D01*
X23176344Y-14536362D01*
X23191800Y-14418961D01*
X23191799Y-14140240D01*
X23191799Y-14140236D01*
X23176346Y-14022846D01*
X23176344Y-14022841D01*
X23176344Y-14022838D01*
X23167462Y-14001397D01*
X23159994Y-13931928D01*
X23167464Y-13906490D01*
X23175855Y-13886232D01*
X23175855Y-13886230D01*
X23183312Y-13829600D01*
X23140800Y-13829600D01*
X23073761Y-13809915D01*
X23042425Y-13781087D01*
X23019583Y-13751319D01*
X23019582Y-13751318D01*
X22989160Y-13727974D01*
X22947958Y-13671549D01*
X22943803Y-13601803D01*
X22978014Y-13540882D01*
X22989151Y-13531231D01*
X23019582Y-13507882D01*
X23040099Y-13481144D01*
X23042425Y-13478113D01*
X23098853Y-13436910D01*
X23140800Y-13429600D01*
X23183310Y-13429600D01*
X23183311Y-13429598D01*
X23175858Y-13372977D01*
X23175854Y-13372965D01*
X23167463Y-13352706D01*
X23159994Y-13283237D01*
X23167464Y-13257799D01*
X23176344Y-13236362D01*
X23191800Y-13118961D01*
X23191799Y-12840240D01*
X23191799Y-12840238D01*
X23191799Y-12840236D01*
X23176346Y-12722846D01*
X23176344Y-12722839D01*
X23176344Y-12722838D01*
X23115836Y-12576759D01*
X23019582Y-12451318D01*
X22894141Y-12355064D01*
X22893884Y-12354957D01*
X22893700Y-12354809D01*
X22887104Y-12351001D01*
X22887697Y-12349972D01*
X22839480Y-12311118D01*
X22817414Y-12244825D01*
X22834692Y-12177125D01*
X22885828Y-12129513D01*
X22941332Y-12116396D01*
X26691351Y-12116360D01*
X26758387Y-12136044D01*
G37*
%TD.AperFunction*%
%TA.AperFunction,Conductor*%
G36*
X27821839Y-13699784D02*
G01*
X27867594Y-13752588D01*
X27878800Y-13804099D01*
X27878800Y-14105100D01*
X27859115Y-14172139D01*
X27806311Y-14217894D01*
X27754800Y-14229100D01*
X27602800Y-14229100D01*
X27535761Y-14209415D01*
X27490006Y-14156611D01*
X27478800Y-14105100D01*
X27478800Y-13804099D01*
X27498485Y-13737060D01*
X27551289Y-13691305D01*
X27602797Y-13680099D01*
X27754801Y-13680099D01*
X27821839Y-13699784D01*
G37*
%TD.AperFunction*%
%TA.AperFunction,Conductor*%
G36*
X32879216Y-12135987D02*
G01*
X32924972Y-12188790D01*
X32936178Y-12240303D01*
X32936178Y-12312100D01*
X32916493Y-12379139D01*
X32863689Y-12424894D01*
X32812178Y-12436100D01*
X30803729Y-12436100D01*
X30803723Y-12436101D01*
X30744116Y-12442508D01*
X30609271Y-12492802D01*
X30609264Y-12492806D01*
X30494055Y-12579052D01*
X30494052Y-12579055D01*
X30407806Y-12694264D01*
X30407801Y-12694274D01*
X30400729Y-12713235D01*
X30358857Y-12769168D01*
X30293393Y-12793584D01*
X30284548Y-12793900D01*
X29988139Y-12793900D01*
X29921100Y-12774215D01*
X29875345Y-12721411D01*
X29870208Y-12708218D01*
X29842981Y-12624421D01*
X29842978Y-12624415D01*
X29841664Y-12622139D01*
X29748333Y-12460484D01*
X29624814Y-12323303D01*
X29594585Y-12260313D01*
X29603210Y-12190978D01*
X29647951Y-12137312D01*
X29714604Y-12116354D01*
X29716926Y-12116332D01*
X32812177Y-12116303D01*
X32879216Y-12135987D01*
G37*
%TD.AperFunction*%
%TD*%
M02*
