%TF.GenerationSoftware,KiCad,Pcbnew,7.0.8*%
%TF.CreationDate,2024-05-05T13:27:43-04:00*%
%TF.ProjectId,n64amp,6e363461-6d70-42e6-9b69-6361645f7063,rev?*%
%TF.SameCoordinates,Original*%
%TF.FileFunction,Legend,Top*%
%TF.FilePolarity,Positive*%
%FSLAX46Y46*%
G04 Gerber Fmt 4.6, Leading zero omitted, Abs format (unit mm)*
G04 Created by KiCad (PCBNEW 7.0.8) date 2024-05-05 13:27:43*
%MOMM*%
%LPD*%
G01*
G04 APERTURE LIST*
%ADD10C,0.150000*%
%ADD11C,0.120000*%
G04 APERTURE END LIST*
D10*
X14952066Y-24398249D02*
X15418733Y-24398249D01*
X15018733Y-24398249D02*
X14985400Y-24364916D01*
X14985400Y-24364916D02*
X14952066Y-24298249D01*
X14952066Y-24298249D02*
X14952066Y-24198249D01*
X14952066Y-24198249D02*
X14985400Y-24131582D01*
X14985400Y-24131582D02*
X15052066Y-24098249D01*
X15052066Y-24098249D02*
X15418733Y-24098249D01*
X14718733Y-23464916D02*
X14718733Y-23598249D01*
X14718733Y-23598249D02*
X14752066Y-23664916D01*
X14752066Y-23664916D02*
X14785400Y-23698249D01*
X14785400Y-23698249D02*
X14885400Y-23764916D01*
X14885400Y-23764916D02*
X15018733Y-23798249D01*
X15018733Y-23798249D02*
X15285400Y-23798249D01*
X15285400Y-23798249D02*
X15352066Y-23764916D01*
X15352066Y-23764916D02*
X15385400Y-23731583D01*
X15385400Y-23731583D02*
X15418733Y-23664916D01*
X15418733Y-23664916D02*
X15418733Y-23531583D01*
X15418733Y-23531583D02*
X15385400Y-23464916D01*
X15385400Y-23464916D02*
X15352066Y-23431583D01*
X15352066Y-23431583D02*
X15285400Y-23398249D01*
X15285400Y-23398249D02*
X15118733Y-23398249D01*
X15118733Y-23398249D02*
X15052066Y-23431583D01*
X15052066Y-23431583D02*
X15018733Y-23464916D01*
X15018733Y-23464916D02*
X14985400Y-23531583D01*
X14985400Y-23531583D02*
X14985400Y-23664916D01*
X14985400Y-23664916D02*
X15018733Y-23731583D01*
X15018733Y-23731583D02*
X15052066Y-23764916D01*
X15052066Y-23764916D02*
X15118733Y-23798249D01*
X14952066Y-22798249D02*
X15418733Y-22798249D01*
X14685400Y-22964916D02*
X15185400Y-23131582D01*
X15185400Y-23131582D02*
X15185400Y-22698249D01*
X15418733Y-21898249D02*
X14952066Y-21898249D01*
X15018733Y-21898249D02*
X14985400Y-21864916D01*
X14985400Y-21864916D02*
X14952066Y-21798249D01*
X14952066Y-21798249D02*
X14952066Y-21698249D01*
X14952066Y-21698249D02*
X14985400Y-21631582D01*
X14985400Y-21631582D02*
X15052066Y-21598249D01*
X15052066Y-21598249D02*
X15418733Y-21598249D01*
X15052066Y-21598249D02*
X14985400Y-21564916D01*
X14985400Y-21564916D02*
X14952066Y-21498249D01*
X14952066Y-21498249D02*
X14952066Y-21398249D01*
X14952066Y-21398249D02*
X14985400Y-21331582D01*
X14985400Y-21331582D02*
X15052066Y-21298249D01*
X15052066Y-21298249D02*
X15418733Y-21298249D01*
X15418733Y-20964916D02*
X14952066Y-20964916D01*
X14718733Y-20964916D02*
X14752066Y-20998249D01*
X14752066Y-20998249D02*
X14785400Y-20964916D01*
X14785400Y-20964916D02*
X14752066Y-20931583D01*
X14752066Y-20931583D02*
X14718733Y-20964916D01*
X14718733Y-20964916D02*
X14785400Y-20964916D01*
X15385400Y-20331583D02*
X15418733Y-20398250D01*
X15418733Y-20398250D02*
X15418733Y-20531583D01*
X15418733Y-20531583D02*
X15385400Y-20598250D01*
X15385400Y-20598250D02*
X15352066Y-20631583D01*
X15352066Y-20631583D02*
X15285400Y-20664916D01*
X15285400Y-20664916D02*
X15085400Y-20664916D01*
X15085400Y-20664916D02*
X15018733Y-20631583D01*
X15018733Y-20631583D02*
X14985400Y-20598250D01*
X14985400Y-20598250D02*
X14952066Y-20531583D01*
X14952066Y-20531583D02*
X14952066Y-20398250D01*
X14952066Y-20398250D02*
X14985400Y-20331583D01*
X15418733Y-20031583D02*
X14952066Y-20031583D01*
X15085400Y-20031583D02*
X15018733Y-19998250D01*
X15018733Y-19998250D02*
X14985400Y-19964916D01*
X14985400Y-19964916D02*
X14952066Y-19898250D01*
X14952066Y-19898250D02*
X14952066Y-19831583D01*
X15418733Y-19498250D02*
X15385400Y-19564917D01*
X15385400Y-19564917D02*
X15352066Y-19598250D01*
X15352066Y-19598250D02*
X15285400Y-19631583D01*
X15285400Y-19631583D02*
X15085400Y-19631583D01*
X15085400Y-19631583D02*
X15018733Y-19598250D01*
X15018733Y-19598250D02*
X14985400Y-19564917D01*
X14985400Y-19564917D02*
X14952066Y-19498250D01*
X14952066Y-19498250D02*
X14952066Y-19398250D01*
X14952066Y-19398250D02*
X14985400Y-19331583D01*
X14985400Y-19331583D02*
X15018733Y-19298250D01*
X15018733Y-19298250D02*
X15085400Y-19264917D01*
X15085400Y-19264917D02*
X15285400Y-19264917D01*
X15285400Y-19264917D02*
X15352066Y-19298250D01*
X15352066Y-19298250D02*
X15385400Y-19331583D01*
X15385400Y-19331583D02*
X15418733Y-19398250D01*
X15418733Y-19398250D02*
X15418733Y-19498250D01*
X15418733Y-18664917D02*
X15052066Y-18664917D01*
X15052066Y-18664917D02*
X14985400Y-18698250D01*
X14985400Y-18698250D02*
X14952066Y-18764917D01*
X14952066Y-18764917D02*
X14952066Y-18898250D01*
X14952066Y-18898250D02*
X14985400Y-18964917D01*
X15385400Y-18664917D02*
X15418733Y-18731584D01*
X15418733Y-18731584D02*
X15418733Y-18898250D01*
X15418733Y-18898250D02*
X15385400Y-18964917D01*
X15385400Y-18964917D02*
X15318733Y-18998250D01*
X15318733Y-18998250D02*
X15252066Y-18998250D01*
X15252066Y-18998250D02*
X15185400Y-18964917D01*
X15185400Y-18964917D02*
X15152066Y-18898250D01*
X15152066Y-18898250D02*
X15152066Y-18731584D01*
X15152066Y-18731584D02*
X15118733Y-18664917D01*
X15418733Y-18331584D02*
X14952066Y-18331584D01*
X15018733Y-18331584D02*
X14985400Y-18298251D01*
X14985400Y-18298251D02*
X14952066Y-18231584D01*
X14952066Y-18231584D02*
X14952066Y-18131584D01*
X14952066Y-18131584D02*
X14985400Y-18064917D01*
X14985400Y-18064917D02*
X15052066Y-18031584D01*
X15052066Y-18031584D02*
X15418733Y-18031584D01*
X15052066Y-18031584D02*
X14985400Y-17998251D01*
X14985400Y-17998251D02*
X14952066Y-17931584D01*
X14952066Y-17931584D02*
X14952066Y-17831584D01*
X14952066Y-17831584D02*
X14985400Y-17764917D01*
X14985400Y-17764917D02*
X15052066Y-17731584D01*
X15052066Y-17731584D02*
X15418733Y-17731584D01*
X14952066Y-17398251D02*
X15652066Y-17398251D01*
X14985400Y-17398251D02*
X14952066Y-17331584D01*
X14952066Y-17331584D02*
X14952066Y-17198251D01*
X14952066Y-17198251D02*
X14985400Y-17131584D01*
X14985400Y-17131584D02*
X15018733Y-17098251D01*
X15018733Y-17098251D02*
X15085400Y-17064918D01*
X15085400Y-17064918D02*
X15285400Y-17064918D01*
X15285400Y-17064918D02*
X15352066Y-17098251D01*
X15352066Y-17098251D02*
X15385400Y-17131584D01*
X15385400Y-17131584D02*
X15418733Y-17198251D01*
X15418733Y-17198251D02*
X15418733Y-17331584D01*
X15418733Y-17331584D02*
X15385400Y-17398251D01*
X24087495Y-14364819D02*
X24087495Y-15174342D01*
X24087495Y-15174342D02*
X24135114Y-15269580D01*
X24135114Y-15269580D02*
X24182733Y-15317200D01*
X24182733Y-15317200D02*
X24277971Y-15364819D01*
X24277971Y-15364819D02*
X24468447Y-15364819D01*
X24468447Y-15364819D02*
X24563685Y-15317200D01*
X24563685Y-15317200D02*
X24611304Y-15269580D01*
X24611304Y-15269580D02*
X24658923Y-15174342D01*
X24658923Y-15174342D02*
X24658923Y-14364819D01*
X25658923Y-15364819D02*
X25087495Y-15364819D01*
X25373209Y-15364819D02*
X25373209Y-14364819D01*
X25373209Y-14364819D02*
X25277971Y-14507676D01*
X25277971Y-14507676D02*
X25182733Y-14602914D01*
X25182733Y-14602914D02*
X25087495Y-14650533D01*
D11*
%TO.C,C4*%
X20130600Y-13087436D02*
X20130600Y-12871764D01*
X20850600Y-13087436D02*
X20850600Y-12871764D01*
%TO.C,R1*%
X29822841Y-13994400D02*
X29515559Y-13994400D01*
X29822841Y-13234400D02*
X29515559Y-13234400D01*
%TO.C,RN1*%
X19761200Y-14098000D02*
X18961200Y-14098000D01*
X19761200Y-17538000D02*
X18961200Y-17538000D01*
%TO.C,R2*%
X29513559Y-14250400D02*
X29820841Y-14250400D01*
X29513559Y-15010400D02*
X29820841Y-15010400D01*
%TO.C,C1*%
X29747036Y-16057200D02*
X29531364Y-16057200D01*
X29747036Y-15337200D02*
X29531364Y-15337200D01*
%TO.C,C3*%
X29747036Y-18063800D02*
X29531364Y-18063800D01*
X29747036Y-17343800D02*
X29531364Y-17343800D01*
%TO.C,C2*%
X29747036Y-17073200D02*
X29531364Y-17073200D01*
X29747036Y-16353200D02*
X29531364Y-16353200D01*
%TO.C,U1*%
X24816300Y-17539600D02*
X28416300Y-17539600D01*
X24816300Y-17539600D02*
X22616300Y-17539600D01*
X24816300Y-12319600D02*
X27016300Y-12319600D01*
X24816300Y-12319600D02*
X22616300Y-12319600D01*
%TD*%
M02*
