%TF.GenerationSoftware,KiCad,Pcbnew,7.0.8*%
%TF.CreationDate,2024-06-22T11:04:55-04:00*%
%TF.ProjectId,n64amp,6e363461-6d70-42e6-9b69-6361645f7063,rev?*%
%TF.SameCoordinates,Original*%
%TF.FileFunction,Drillmap*%
%TF.FilePolarity,Positive*%
%FSLAX45Y45*%
G04 Gerber Fmt 4.5, Leading zero omitted, Abs format (unit mm)*
G04 Created by KiCad (PCBNEW 7.0.8) date 2024-06-22 11:04:55*
%MOMM*%
%LPD*%
G01*
G04 APERTURE LIST*
%ADD10C,0.100000*%
%ADD11C,0.200000*%
%ADD12C,0.040000*%
G04 APERTURE END LIST*
D10*
X3293668Y-1826280D02*
X1823008Y-1826280D01*
X1823008Y-1917720D01*
X1823008Y-2842280D01*
X1203248Y-2842280D01*
X1203248Y-1216680D01*
X1208328Y-1211600D01*
X3293668Y-1211580D01*
X3293668Y-1826280D01*
D11*
D12*
X1226420Y-2522560D02*
X1266420Y-2562560D01*
X1266420Y-2522560D02*
X1226420Y-2562560D01*
X1236580Y-2268560D02*
X1276580Y-2308560D01*
X1276580Y-2268560D02*
X1236580Y-2308560D01*
X1490580Y-2776560D02*
X1530580Y-2816560D01*
X1530580Y-2776560D02*
X1490580Y-2816560D01*
X1500740Y-2517480D02*
X1540740Y-2557480D01*
X1540740Y-2517480D02*
X1500740Y-2557480D01*
X1744580Y-2022180D02*
X1784580Y-2062180D01*
X1784580Y-2022180D02*
X1744580Y-2062180D01*
X1749660Y-2263480D02*
X1789660Y-2303480D01*
X1789660Y-2263480D02*
X1749660Y-2303480D01*
X1754740Y-2517480D02*
X1794740Y-2557480D01*
X1794740Y-2517480D02*
X1754740Y-2557480D01*
X1830940Y-1763100D02*
X1870940Y-1803100D01*
X1870940Y-1763100D02*
X1830940Y-1803100D01*
X1986600Y-1372010D02*
X2026600Y-1412010D01*
X2026600Y-1372010D02*
X1986600Y-1412010D01*
X2301190Y-1677090D02*
X2341190Y-1717090D01*
X2341190Y-1677090D02*
X2301190Y-1717090D01*
X2384497Y-1754684D02*
X2424497Y-1794684D01*
X2424497Y-1754684D02*
X2384497Y-1794684D01*
X2416356Y-1676623D02*
X2456356Y-1716623D01*
X2456356Y-1676623D02*
X2416356Y-1716623D01*
X2456500Y-1404940D02*
X2496500Y-1444940D01*
X2496500Y-1404940D02*
X2456500Y-1444940D01*
X2617210Y-1650510D02*
X2657210Y-1690510D01*
X2657210Y-1650510D02*
X2617210Y-1690510D01*
X2881580Y-1279270D02*
X2921580Y-1319270D01*
X2921580Y-1279270D02*
X2881580Y-1319270D01*
X3002600Y-1239840D02*
X3042600Y-1279840D01*
X3042600Y-1239840D02*
X3002600Y-1279840D01*
D10*
X1438660Y-1394480D02*
G75*
G03*
X1438660Y-1394480I-50000J0D01*
G01*
X1438660Y-1648480D02*
G75*
G03*
X1438660Y-1648480I-50000J0D01*
G01*
X1438660Y-1902480D02*
G75*
G03*
X1438660Y-1902480I-50000J0D01*
G01*
X1438660Y-2156480D02*
G75*
G03*
X1438660Y-2156480I-50000J0D01*
G01*
X1438660Y-2410480D02*
G75*
G03*
X1438660Y-2410480I-50000J0D01*
G01*
X1438660Y-2664480D02*
G75*
G03*
X1438660Y-2664480I-50000J0D01*
G01*
X1692660Y-1394480D02*
G75*
G03*
X1692660Y-1394480I-50000J0D01*
G01*
X1692660Y-1648480D02*
G75*
G03*
X1692660Y-1648480I-50000J0D01*
G01*
X1692660Y-1902480D02*
G75*
G03*
X1692660Y-1902480I-50000J0D01*
G01*
X1692660Y-2156480D02*
G75*
G03*
X1692660Y-2156480I-50000J0D01*
G01*
X1692660Y-2410480D02*
G75*
G03*
X1692660Y-2410480I-50000J0D01*
G01*
X1692660Y-2664480D02*
G75*
G03*
X1692660Y-2664480I-50000J0D01*
G01*
D11*
X1459025Y-3158764D02*
X1459025Y-2958764D01*
X1459025Y-2958764D02*
X1506644Y-2958764D01*
X1506644Y-2958764D02*
X1535215Y-2968288D01*
X1535215Y-2968288D02*
X1554263Y-2987335D01*
X1554263Y-2987335D02*
X1563786Y-3006383D01*
X1563786Y-3006383D02*
X1573310Y-3044478D01*
X1573310Y-3044478D02*
X1573310Y-3073049D01*
X1573310Y-3073049D02*
X1563786Y-3111145D01*
X1563786Y-3111145D02*
X1554263Y-3130192D01*
X1554263Y-3130192D02*
X1535215Y-3149240D01*
X1535215Y-3149240D02*
X1506644Y-3158764D01*
X1506644Y-3158764D02*
X1459025Y-3158764D01*
X1659025Y-3158764D02*
X1659025Y-3025430D01*
X1659025Y-3063526D02*
X1668548Y-3044478D01*
X1668548Y-3044478D02*
X1678072Y-3034954D01*
X1678072Y-3034954D02*
X1697120Y-3025430D01*
X1697120Y-3025430D02*
X1716167Y-3025430D01*
X1782834Y-3158764D02*
X1782834Y-3025430D01*
X1782834Y-2958764D02*
X1773310Y-2968288D01*
X1773310Y-2968288D02*
X1782834Y-2977811D01*
X1782834Y-2977811D02*
X1792358Y-2968288D01*
X1792358Y-2968288D02*
X1782834Y-2958764D01*
X1782834Y-2958764D02*
X1782834Y-2977811D01*
X1906644Y-3158764D02*
X1887596Y-3149240D01*
X1887596Y-3149240D02*
X1878072Y-3130192D01*
X1878072Y-3130192D02*
X1878072Y-2958764D01*
X2011405Y-3158764D02*
X1992358Y-3149240D01*
X1992358Y-3149240D02*
X1982834Y-3130192D01*
X1982834Y-3130192D02*
X1982834Y-2958764D01*
X2239977Y-3158764D02*
X2239977Y-2958764D01*
X2239977Y-2958764D02*
X2306644Y-3101621D01*
X2306644Y-3101621D02*
X2373310Y-2958764D01*
X2373310Y-2958764D02*
X2373310Y-3158764D01*
X2554263Y-3158764D02*
X2554263Y-3054002D01*
X2554263Y-3054002D02*
X2544739Y-3034954D01*
X2544739Y-3034954D02*
X2525691Y-3025430D01*
X2525691Y-3025430D02*
X2487596Y-3025430D01*
X2487596Y-3025430D02*
X2468548Y-3034954D01*
X2554263Y-3149240D02*
X2535215Y-3158764D01*
X2535215Y-3158764D02*
X2487596Y-3158764D01*
X2487596Y-3158764D02*
X2468548Y-3149240D01*
X2468548Y-3149240D02*
X2459025Y-3130192D01*
X2459025Y-3130192D02*
X2459025Y-3111145D01*
X2459025Y-3111145D02*
X2468548Y-3092097D01*
X2468548Y-3092097D02*
X2487596Y-3082573D01*
X2487596Y-3082573D02*
X2535215Y-3082573D01*
X2535215Y-3082573D02*
X2554263Y-3073049D01*
X2649501Y-3025430D02*
X2649501Y-3225430D01*
X2649501Y-3034954D02*
X2668548Y-3025430D01*
X2668548Y-3025430D02*
X2706644Y-3025430D01*
X2706644Y-3025430D02*
X2725691Y-3034954D01*
X2725691Y-3034954D02*
X2735215Y-3044478D01*
X2735215Y-3044478D02*
X2744739Y-3063526D01*
X2744739Y-3063526D02*
X2744739Y-3120668D01*
X2744739Y-3120668D02*
X2735215Y-3139716D01*
X2735215Y-3139716D02*
X2725691Y-3149240D01*
X2725691Y-3149240D02*
X2706644Y-3158764D01*
X2706644Y-3158764D02*
X2668548Y-3158764D01*
X2668548Y-3158764D02*
X2649501Y-3149240D01*
X2830453Y-3139716D02*
X2839977Y-3149240D01*
X2839977Y-3149240D02*
X2830453Y-3158764D01*
X2830453Y-3158764D02*
X2820929Y-3149240D01*
X2820929Y-3149240D02*
X2830453Y-3139716D01*
X2830453Y-3139716D02*
X2830453Y-3158764D01*
X2830453Y-3034954D02*
X2839977Y-3044478D01*
X2839977Y-3044478D02*
X2830453Y-3054002D01*
X2830453Y-3054002D02*
X2820929Y-3044478D01*
X2820929Y-3044478D02*
X2830453Y-3034954D01*
X2830453Y-3034954D02*
X2830453Y-3054002D01*
D12*
X1158248Y-3467280D02*
X1198248Y-3507280D01*
X1198248Y-3467280D02*
X1158248Y-3507280D01*
D11*
X1497120Y-3378764D02*
X1516167Y-3378764D01*
X1516167Y-3378764D02*
X1535215Y-3388288D01*
X1535215Y-3388288D02*
X1544739Y-3397811D01*
X1544739Y-3397811D02*
X1554263Y-3416859D01*
X1554263Y-3416859D02*
X1563786Y-3454954D01*
X1563786Y-3454954D02*
X1563786Y-3502573D01*
X1563786Y-3502573D02*
X1554263Y-3540668D01*
X1554263Y-3540668D02*
X1544739Y-3559716D01*
X1544739Y-3559716D02*
X1535215Y-3569240D01*
X1535215Y-3569240D02*
X1516167Y-3578764D01*
X1516167Y-3578764D02*
X1497120Y-3578764D01*
X1497120Y-3578764D02*
X1478072Y-3569240D01*
X1478072Y-3569240D02*
X1468548Y-3559716D01*
X1468548Y-3559716D02*
X1459025Y-3540668D01*
X1459025Y-3540668D02*
X1449501Y-3502573D01*
X1449501Y-3502573D02*
X1449501Y-3454954D01*
X1449501Y-3454954D02*
X1459025Y-3416859D01*
X1459025Y-3416859D02*
X1468548Y-3397811D01*
X1468548Y-3397811D02*
X1478072Y-3388288D01*
X1478072Y-3388288D02*
X1497120Y-3378764D01*
X1649501Y-3559716D02*
X1659025Y-3569240D01*
X1659025Y-3569240D02*
X1649501Y-3578764D01*
X1649501Y-3578764D02*
X1639977Y-3569240D01*
X1639977Y-3569240D02*
X1649501Y-3559716D01*
X1649501Y-3559716D02*
X1649501Y-3578764D01*
X1830453Y-3445430D02*
X1830453Y-3578764D01*
X1782834Y-3369240D02*
X1735215Y-3512097D01*
X1735215Y-3512097D02*
X1859025Y-3512097D01*
X1973310Y-3378764D02*
X1992358Y-3378764D01*
X1992358Y-3378764D02*
X2011406Y-3388288D01*
X2011406Y-3388288D02*
X2020929Y-3397811D01*
X2020929Y-3397811D02*
X2030453Y-3416859D01*
X2030453Y-3416859D02*
X2039977Y-3454954D01*
X2039977Y-3454954D02*
X2039977Y-3502573D01*
X2039977Y-3502573D02*
X2030453Y-3540668D01*
X2030453Y-3540668D02*
X2020929Y-3559716D01*
X2020929Y-3559716D02*
X2011406Y-3569240D01*
X2011406Y-3569240D02*
X1992358Y-3578764D01*
X1992358Y-3578764D02*
X1973310Y-3578764D01*
X1973310Y-3578764D02*
X1954263Y-3569240D01*
X1954263Y-3569240D02*
X1944739Y-3559716D01*
X1944739Y-3559716D02*
X1935215Y-3540668D01*
X1935215Y-3540668D02*
X1925691Y-3502573D01*
X1925691Y-3502573D02*
X1925691Y-3454954D01*
X1925691Y-3454954D02*
X1935215Y-3416859D01*
X1935215Y-3416859D02*
X1944739Y-3397811D01*
X1944739Y-3397811D02*
X1954263Y-3388288D01*
X1954263Y-3388288D02*
X1973310Y-3378764D01*
X2163787Y-3378764D02*
X2182834Y-3378764D01*
X2182834Y-3378764D02*
X2201882Y-3388288D01*
X2201882Y-3388288D02*
X2211406Y-3397811D01*
X2211406Y-3397811D02*
X2220929Y-3416859D01*
X2220929Y-3416859D02*
X2230453Y-3454954D01*
X2230453Y-3454954D02*
X2230453Y-3502573D01*
X2230453Y-3502573D02*
X2220929Y-3540668D01*
X2220929Y-3540668D02*
X2211406Y-3559716D01*
X2211406Y-3559716D02*
X2201882Y-3569240D01*
X2201882Y-3569240D02*
X2182834Y-3578764D01*
X2182834Y-3578764D02*
X2163787Y-3578764D01*
X2163787Y-3578764D02*
X2144739Y-3569240D01*
X2144739Y-3569240D02*
X2135215Y-3559716D01*
X2135215Y-3559716D02*
X2125691Y-3540668D01*
X2125691Y-3540668D02*
X2116168Y-3502573D01*
X2116168Y-3502573D02*
X2116168Y-3454954D01*
X2116168Y-3454954D02*
X2125691Y-3416859D01*
X2125691Y-3416859D02*
X2135215Y-3397811D01*
X2135215Y-3397811D02*
X2144739Y-3388288D01*
X2144739Y-3388288D02*
X2163787Y-3378764D01*
X2316168Y-3578764D02*
X2316168Y-3445430D01*
X2316168Y-3464478D02*
X2325691Y-3454954D01*
X2325691Y-3454954D02*
X2344739Y-3445430D01*
X2344739Y-3445430D02*
X2373310Y-3445430D01*
X2373310Y-3445430D02*
X2392358Y-3454954D01*
X2392358Y-3454954D02*
X2401882Y-3474002D01*
X2401882Y-3474002D02*
X2401882Y-3578764D01*
X2401882Y-3474002D02*
X2411406Y-3454954D01*
X2411406Y-3454954D02*
X2430453Y-3445430D01*
X2430453Y-3445430D02*
X2459025Y-3445430D01*
X2459025Y-3445430D02*
X2478072Y-3454954D01*
X2478072Y-3454954D02*
X2487596Y-3474002D01*
X2487596Y-3474002D02*
X2487596Y-3578764D01*
X2582834Y-3578764D02*
X2582834Y-3445430D01*
X2582834Y-3464478D02*
X2592358Y-3454954D01*
X2592358Y-3454954D02*
X2611406Y-3445430D01*
X2611406Y-3445430D02*
X2639977Y-3445430D01*
X2639977Y-3445430D02*
X2659025Y-3454954D01*
X2659025Y-3454954D02*
X2668549Y-3474002D01*
X2668549Y-3474002D02*
X2668549Y-3578764D01*
X2668549Y-3474002D02*
X2678072Y-3454954D01*
X2678072Y-3454954D02*
X2697120Y-3445430D01*
X2697120Y-3445430D02*
X2725691Y-3445430D01*
X2725691Y-3445430D02*
X2744739Y-3454954D01*
X2744739Y-3454954D02*
X2754263Y-3474002D01*
X2754263Y-3474002D02*
X2754263Y-3578764D01*
X3144739Y-3369240D02*
X2973310Y-3626383D01*
X3401882Y-3378764D02*
X3420930Y-3378764D01*
X3420930Y-3378764D02*
X3439977Y-3388288D01*
X3439977Y-3388288D02*
X3449501Y-3397811D01*
X3449501Y-3397811D02*
X3459025Y-3416859D01*
X3459025Y-3416859D02*
X3468549Y-3454954D01*
X3468549Y-3454954D02*
X3468549Y-3502573D01*
X3468549Y-3502573D02*
X3459025Y-3540668D01*
X3459025Y-3540668D02*
X3449501Y-3559716D01*
X3449501Y-3559716D02*
X3439977Y-3569240D01*
X3439977Y-3569240D02*
X3420930Y-3578764D01*
X3420930Y-3578764D02*
X3401882Y-3578764D01*
X3401882Y-3578764D02*
X3382834Y-3569240D01*
X3382834Y-3569240D02*
X3373310Y-3559716D01*
X3373310Y-3559716D02*
X3363787Y-3540668D01*
X3363787Y-3540668D02*
X3354263Y-3502573D01*
X3354263Y-3502573D02*
X3354263Y-3454954D01*
X3354263Y-3454954D02*
X3363787Y-3416859D01*
X3363787Y-3416859D02*
X3373310Y-3397811D01*
X3373310Y-3397811D02*
X3382834Y-3388288D01*
X3382834Y-3388288D02*
X3401882Y-3378764D01*
X3554263Y-3559716D02*
X3563787Y-3569240D01*
X3563787Y-3569240D02*
X3554263Y-3578764D01*
X3554263Y-3578764D02*
X3544739Y-3569240D01*
X3544739Y-3569240D02*
X3554263Y-3559716D01*
X3554263Y-3559716D02*
X3554263Y-3578764D01*
X3687596Y-3378764D02*
X3706644Y-3378764D01*
X3706644Y-3378764D02*
X3725691Y-3388288D01*
X3725691Y-3388288D02*
X3735215Y-3397811D01*
X3735215Y-3397811D02*
X3744739Y-3416859D01*
X3744739Y-3416859D02*
X3754263Y-3454954D01*
X3754263Y-3454954D02*
X3754263Y-3502573D01*
X3754263Y-3502573D02*
X3744739Y-3540668D01*
X3744739Y-3540668D02*
X3735215Y-3559716D01*
X3735215Y-3559716D02*
X3725691Y-3569240D01*
X3725691Y-3569240D02*
X3706644Y-3578764D01*
X3706644Y-3578764D02*
X3687596Y-3578764D01*
X3687596Y-3578764D02*
X3668549Y-3569240D01*
X3668549Y-3569240D02*
X3659025Y-3559716D01*
X3659025Y-3559716D02*
X3649501Y-3540668D01*
X3649501Y-3540668D02*
X3639977Y-3502573D01*
X3639977Y-3502573D02*
X3639977Y-3454954D01*
X3639977Y-3454954D02*
X3649501Y-3416859D01*
X3649501Y-3416859D02*
X3659025Y-3397811D01*
X3659025Y-3397811D02*
X3668549Y-3388288D01*
X3668549Y-3388288D02*
X3687596Y-3378764D01*
X3944739Y-3578764D02*
X3830453Y-3578764D01*
X3887596Y-3578764D02*
X3887596Y-3378764D01*
X3887596Y-3378764D02*
X3868549Y-3407335D01*
X3868549Y-3407335D02*
X3849501Y-3426383D01*
X3849501Y-3426383D02*
X3830453Y-3435907D01*
X4125691Y-3378764D02*
X4030453Y-3378764D01*
X4030453Y-3378764D02*
X4020930Y-3474002D01*
X4020930Y-3474002D02*
X4030453Y-3464478D01*
X4030453Y-3464478D02*
X4049501Y-3454954D01*
X4049501Y-3454954D02*
X4097120Y-3454954D01*
X4097120Y-3454954D02*
X4116168Y-3464478D01*
X4116168Y-3464478D02*
X4125691Y-3474002D01*
X4125691Y-3474002D02*
X4135215Y-3493049D01*
X4135215Y-3493049D02*
X4135215Y-3540668D01*
X4135215Y-3540668D02*
X4125691Y-3559716D01*
X4125691Y-3559716D02*
X4116168Y-3569240D01*
X4116168Y-3569240D02*
X4097120Y-3578764D01*
X4097120Y-3578764D02*
X4049501Y-3578764D01*
X4049501Y-3578764D02*
X4030453Y-3569240D01*
X4030453Y-3569240D02*
X4020930Y-3559716D01*
X4201882Y-3378764D02*
X4335215Y-3378764D01*
X4335215Y-3378764D02*
X4249501Y-3578764D01*
X4401882Y-3378764D02*
X4401882Y-3416859D01*
X4478073Y-3378764D02*
X4478073Y-3416859D01*
X4773311Y-3654954D02*
X4763787Y-3645430D01*
X4763787Y-3645430D02*
X4744739Y-3616859D01*
X4744739Y-3616859D02*
X4735215Y-3597811D01*
X4735215Y-3597811D02*
X4725692Y-3569240D01*
X4725692Y-3569240D02*
X4716168Y-3521621D01*
X4716168Y-3521621D02*
X4716168Y-3483526D01*
X4716168Y-3483526D02*
X4725692Y-3435907D01*
X4725692Y-3435907D02*
X4735215Y-3407335D01*
X4735215Y-3407335D02*
X4744739Y-3388288D01*
X4744739Y-3388288D02*
X4763787Y-3359716D01*
X4763787Y-3359716D02*
X4773311Y-3350192D01*
X4954263Y-3578764D02*
X4839977Y-3578764D01*
X4897120Y-3578764D02*
X4897120Y-3378764D01*
X4897120Y-3378764D02*
X4878073Y-3407335D01*
X4878073Y-3407335D02*
X4859025Y-3426383D01*
X4859025Y-3426383D02*
X4839977Y-3435907D01*
X5125692Y-3378764D02*
X5087596Y-3378764D01*
X5087596Y-3378764D02*
X5068549Y-3388288D01*
X5068549Y-3388288D02*
X5059025Y-3397811D01*
X5059025Y-3397811D02*
X5039977Y-3426383D01*
X5039977Y-3426383D02*
X5030454Y-3464478D01*
X5030454Y-3464478D02*
X5030454Y-3540668D01*
X5030454Y-3540668D02*
X5039977Y-3559716D01*
X5039977Y-3559716D02*
X5049501Y-3569240D01*
X5049501Y-3569240D02*
X5068549Y-3578764D01*
X5068549Y-3578764D02*
X5106644Y-3578764D01*
X5106644Y-3578764D02*
X5125692Y-3569240D01*
X5125692Y-3569240D02*
X5135215Y-3559716D01*
X5135215Y-3559716D02*
X5144739Y-3540668D01*
X5144739Y-3540668D02*
X5144739Y-3493049D01*
X5144739Y-3493049D02*
X5135215Y-3474002D01*
X5135215Y-3474002D02*
X5125692Y-3464478D01*
X5125692Y-3464478D02*
X5106644Y-3454954D01*
X5106644Y-3454954D02*
X5068549Y-3454954D01*
X5068549Y-3454954D02*
X5049501Y-3464478D01*
X5049501Y-3464478D02*
X5039977Y-3474002D01*
X5039977Y-3474002D02*
X5030454Y-3493049D01*
X5382835Y-3578764D02*
X5382835Y-3378764D01*
X5468549Y-3578764D02*
X5468549Y-3474002D01*
X5468549Y-3474002D02*
X5459025Y-3454954D01*
X5459025Y-3454954D02*
X5439977Y-3445430D01*
X5439977Y-3445430D02*
X5411406Y-3445430D01*
X5411406Y-3445430D02*
X5392358Y-3454954D01*
X5392358Y-3454954D02*
X5382835Y-3464478D01*
X5592358Y-3578764D02*
X5573311Y-3569240D01*
X5573311Y-3569240D02*
X5563787Y-3559716D01*
X5563787Y-3559716D02*
X5554263Y-3540668D01*
X5554263Y-3540668D02*
X5554263Y-3483526D01*
X5554263Y-3483526D02*
X5563787Y-3464478D01*
X5563787Y-3464478D02*
X5573311Y-3454954D01*
X5573311Y-3454954D02*
X5592358Y-3445430D01*
X5592358Y-3445430D02*
X5620930Y-3445430D01*
X5620930Y-3445430D02*
X5639977Y-3454954D01*
X5639977Y-3454954D02*
X5649501Y-3464478D01*
X5649501Y-3464478D02*
X5659025Y-3483526D01*
X5659025Y-3483526D02*
X5659025Y-3540668D01*
X5659025Y-3540668D02*
X5649501Y-3559716D01*
X5649501Y-3559716D02*
X5639977Y-3569240D01*
X5639977Y-3569240D02*
X5620930Y-3578764D01*
X5620930Y-3578764D02*
X5592358Y-3578764D01*
X5773311Y-3578764D02*
X5754263Y-3569240D01*
X5754263Y-3569240D02*
X5744739Y-3550192D01*
X5744739Y-3550192D02*
X5744739Y-3378764D01*
X5925692Y-3569240D02*
X5906644Y-3578764D01*
X5906644Y-3578764D02*
X5868549Y-3578764D01*
X5868549Y-3578764D02*
X5849501Y-3569240D01*
X5849501Y-3569240D02*
X5839977Y-3550192D01*
X5839977Y-3550192D02*
X5839977Y-3474002D01*
X5839977Y-3474002D02*
X5849501Y-3454954D01*
X5849501Y-3454954D02*
X5868549Y-3445430D01*
X5868549Y-3445430D02*
X5906644Y-3445430D01*
X5906644Y-3445430D02*
X5925692Y-3454954D01*
X5925692Y-3454954D02*
X5935215Y-3474002D01*
X5935215Y-3474002D02*
X5935215Y-3493049D01*
X5935215Y-3493049D02*
X5839977Y-3512097D01*
X6011406Y-3569240D02*
X6030454Y-3578764D01*
X6030454Y-3578764D02*
X6068549Y-3578764D01*
X6068549Y-3578764D02*
X6087596Y-3569240D01*
X6087596Y-3569240D02*
X6097120Y-3550192D01*
X6097120Y-3550192D02*
X6097120Y-3540668D01*
X6097120Y-3540668D02*
X6087596Y-3521621D01*
X6087596Y-3521621D02*
X6068549Y-3512097D01*
X6068549Y-3512097D02*
X6039977Y-3512097D01*
X6039977Y-3512097D02*
X6020930Y-3502573D01*
X6020930Y-3502573D02*
X6011406Y-3483526D01*
X6011406Y-3483526D02*
X6011406Y-3474002D01*
X6011406Y-3474002D02*
X6020930Y-3454954D01*
X6020930Y-3454954D02*
X6039977Y-3445430D01*
X6039977Y-3445430D02*
X6068549Y-3445430D01*
X6068549Y-3445430D02*
X6087596Y-3454954D01*
X6163787Y-3654954D02*
X6173311Y-3645430D01*
X6173311Y-3645430D02*
X6192358Y-3616859D01*
X6192358Y-3616859D02*
X6201882Y-3597811D01*
X6201882Y-3597811D02*
X6211406Y-3569240D01*
X6211406Y-3569240D02*
X6220930Y-3521621D01*
X6220930Y-3521621D02*
X6220930Y-3483526D01*
X6220930Y-3483526D02*
X6211406Y-3435907D01*
X6211406Y-3435907D02*
X6201882Y-3407335D01*
X6201882Y-3407335D02*
X6192358Y-3388288D01*
X6192358Y-3388288D02*
X6173311Y-3359716D01*
X6173311Y-3359716D02*
X6163787Y-3350192D01*
D10*
X1198248Y-3751280D02*
G75*
G03*
X1198248Y-3751280I-50000J0D01*
G01*
D11*
X1563786Y-3842764D02*
X1449501Y-3842764D01*
X1506644Y-3842764D02*
X1506644Y-3642764D01*
X1506644Y-3642764D02*
X1487596Y-3671335D01*
X1487596Y-3671335D02*
X1468548Y-3690383D01*
X1468548Y-3690383D02*
X1449501Y-3699907D01*
X1649501Y-3823716D02*
X1659025Y-3833240D01*
X1659025Y-3833240D02*
X1649501Y-3842764D01*
X1649501Y-3842764D02*
X1639977Y-3833240D01*
X1639977Y-3833240D02*
X1649501Y-3823716D01*
X1649501Y-3823716D02*
X1649501Y-3842764D01*
X1782834Y-3642764D02*
X1801882Y-3642764D01*
X1801882Y-3642764D02*
X1820929Y-3652288D01*
X1820929Y-3652288D02*
X1830453Y-3661811D01*
X1830453Y-3661811D02*
X1839977Y-3680859D01*
X1839977Y-3680859D02*
X1849501Y-3718954D01*
X1849501Y-3718954D02*
X1849501Y-3766573D01*
X1849501Y-3766573D02*
X1839977Y-3804668D01*
X1839977Y-3804668D02*
X1830453Y-3823716D01*
X1830453Y-3823716D02*
X1820929Y-3833240D01*
X1820929Y-3833240D02*
X1801882Y-3842764D01*
X1801882Y-3842764D02*
X1782834Y-3842764D01*
X1782834Y-3842764D02*
X1763786Y-3833240D01*
X1763786Y-3833240D02*
X1754263Y-3823716D01*
X1754263Y-3823716D02*
X1744739Y-3804668D01*
X1744739Y-3804668D02*
X1735215Y-3766573D01*
X1735215Y-3766573D02*
X1735215Y-3718954D01*
X1735215Y-3718954D02*
X1744739Y-3680859D01*
X1744739Y-3680859D02*
X1754263Y-3661811D01*
X1754263Y-3661811D02*
X1763786Y-3652288D01*
X1763786Y-3652288D02*
X1782834Y-3642764D01*
X1973310Y-3642764D02*
X1992358Y-3642764D01*
X1992358Y-3642764D02*
X2011406Y-3652288D01*
X2011406Y-3652288D02*
X2020929Y-3661811D01*
X2020929Y-3661811D02*
X2030453Y-3680859D01*
X2030453Y-3680859D02*
X2039977Y-3718954D01*
X2039977Y-3718954D02*
X2039977Y-3766573D01*
X2039977Y-3766573D02*
X2030453Y-3804668D01*
X2030453Y-3804668D02*
X2020929Y-3823716D01*
X2020929Y-3823716D02*
X2011406Y-3833240D01*
X2011406Y-3833240D02*
X1992358Y-3842764D01*
X1992358Y-3842764D02*
X1973310Y-3842764D01*
X1973310Y-3842764D02*
X1954263Y-3833240D01*
X1954263Y-3833240D02*
X1944739Y-3823716D01*
X1944739Y-3823716D02*
X1935215Y-3804668D01*
X1935215Y-3804668D02*
X1925691Y-3766573D01*
X1925691Y-3766573D02*
X1925691Y-3718954D01*
X1925691Y-3718954D02*
X1935215Y-3680859D01*
X1935215Y-3680859D02*
X1944739Y-3661811D01*
X1944739Y-3661811D02*
X1954263Y-3652288D01*
X1954263Y-3652288D02*
X1973310Y-3642764D01*
X2163787Y-3642764D02*
X2182834Y-3642764D01*
X2182834Y-3642764D02*
X2201882Y-3652288D01*
X2201882Y-3652288D02*
X2211406Y-3661811D01*
X2211406Y-3661811D02*
X2220929Y-3680859D01*
X2220929Y-3680859D02*
X2230453Y-3718954D01*
X2230453Y-3718954D02*
X2230453Y-3766573D01*
X2230453Y-3766573D02*
X2220929Y-3804668D01*
X2220929Y-3804668D02*
X2211406Y-3823716D01*
X2211406Y-3823716D02*
X2201882Y-3833240D01*
X2201882Y-3833240D02*
X2182834Y-3842764D01*
X2182834Y-3842764D02*
X2163787Y-3842764D01*
X2163787Y-3842764D02*
X2144739Y-3833240D01*
X2144739Y-3833240D02*
X2135215Y-3823716D01*
X2135215Y-3823716D02*
X2125691Y-3804668D01*
X2125691Y-3804668D02*
X2116168Y-3766573D01*
X2116168Y-3766573D02*
X2116168Y-3718954D01*
X2116168Y-3718954D02*
X2125691Y-3680859D01*
X2125691Y-3680859D02*
X2135215Y-3661811D01*
X2135215Y-3661811D02*
X2144739Y-3652288D01*
X2144739Y-3652288D02*
X2163787Y-3642764D01*
X2316168Y-3842764D02*
X2316168Y-3709430D01*
X2316168Y-3728478D02*
X2325691Y-3718954D01*
X2325691Y-3718954D02*
X2344739Y-3709430D01*
X2344739Y-3709430D02*
X2373310Y-3709430D01*
X2373310Y-3709430D02*
X2392358Y-3718954D01*
X2392358Y-3718954D02*
X2401882Y-3738002D01*
X2401882Y-3738002D02*
X2401882Y-3842764D01*
X2401882Y-3738002D02*
X2411406Y-3718954D01*
X2411406Y-3718954D02*
X2430453Y-3709430D01*
X2430453Y-3709430D02*
X2459025Y-3709430D01*
X2459025Y-3709430D02*
X2478072Y-3718954D01*
X2478072Y-3718954D02*
X2487596Y-3738002D01*
X2487596Y-3738002D02*
X2487596Y-3842764D01*
X2582834Y-3842764D02*
X2582834Y-3709430D01*
X2582834Y-3728478D02*
X2592358Y-3718954D01*
X2592358Y-3718954D02*
X2611406Y-3709430D01*
X2611406Y-3709430D02*
X2639977Y-3709430D01*
X2639977Y-3709430D02*
X2659025Y-3718954D01*
X2659025Y-3718954D02*
X2668549Y-3738002D01*
X2668549Y-3738002D02*
X2668549Y-3842764D01*
X2668549Y-3738002D02*
X2678072Y-3718954D01*
X2678072Y-3718954D02*
X2697120Y-3709430D01*
X2697120Y-3709430D02*
X2725691Y-3709430D01*
X2725691Y-3709430D02*
X2744739Y-3718954D01*
X2744739Y-3718954D02*
X2754263Y-3738002D01*
X2754263Y-3738002D02*
X2754263Y-3842764D01*
X3144739Y-3633240D02*
X2973310Y-3890383D01*
X3401882Y-3642764D02*
X3420930Y-3642764D01*
X3420930Y-3642764D02*
X3439977Y-3652288D01*
X3439977Y-3652288D02*
X3449501Y-3661811D01*
X3449501Y-3661811D02*
X3459025Y-3680859D01*
X3459025Y-3680859D02*
X3468549Y-3718954D01*
X3468549Y-3718954D02*
X3468549Y-3766573D01*
X3468549Y-3766573D02*
X3459025Y-3804668D01*
X3459025Y-3804668D02*
X3449501Y-3823716D01*
X3449501Y-3823716D02*
X3439977Y-3833240D01*
X3439977Y-3833240D02*
X3420930Y-3842764D01*
X3420930Y-3842764D02*
X3401882Y-3842764D01*
X3401882Y-3842764D02*
X3382834Y-3833240D01*
X3382834Y-3833240D02*
X3373310Y-3823716D01*
X3373310Y-3823716D02*
X3363787Y-3804668D01*
X3363787Y-3804668D02*
X3354263Y-3766573D01*
X3354263Y-3766573D02*
X3354263Y-3718954D01*
X3354263Y-3718954D02*
X3363787Y-3680859D01*
X3363787Y-3680859D02*
X3373310Y-3661811D01*
X3373310Y-3661811D02*
X3382834Y-3652288D01*
X3382834Y-3652288D02*
X3401882Y-3642764D01*
X3554263Y-3823716D02*
X3563787Y-3833240D01*
X3563787Y-3833240D02*
X3554263Y-3842764D01*
X3554263Y-3842764D02*
X3544739Y-3833240D01*
X3544739Y-3833240D02*
X3554263Y-3823716D01*
X3554263Y-3823716D02*
X3554263Y-3842764D01*
X3687596Y-3642764D02*
X3706644Y-3642764D01*
X3706644Y-3642764D02*
X3725691Y-3652288D01*
X3725691Y-3652288D02*
X3735215Y-3661811D01*
X3735215Y-3661811D02*
X3744739Y-3680859D01*
X3744739Y-3680859D02*
X3754263Y-3718954D01*
X3754263Y-3718954D02*
X3754263Y-3766573D01*
X3754263Y-3766573D02*
X3744739Y-3804668D01*
X3744739Y-3804668D02*
X3735215Y-3823716D01*
X3735215Y-3823716D02*
X3725691Y-3833240D01*
X3725691Y-3833240D02*
X3706644Y-3842764D01*
X3706644Y-3842764D02*
X3687596Y-3842764D01*
X3687596Y-3842764D02*
X3668549Y-3833240D01*
X3668549Y-3833240D02*
X3659025Y-3823716D01*
X3659025Y-3823716D02*
X3649501Y-3804668D01*
X3649501Y-3804668D02*
X3639977Y-3766573D01*
X3639977Y-3766573D02*
X3639977Y-3718954D01*
X3639977Y-3718954D02*
X3649501Y-3680859D01*
X3649501Y-3680859D02*
X3659025Y-3661811D01*
X3659025Y-3661811D02*
X3668549Y-3652288D01*
X3668549Y-3652288D02*
X3687596Y-3642764D01*
X3820930Y-3642764D02*
X3944739Y-3642764D01*
X3944739Y-3642764D02*
X3878072Y-3718954D01*
X3878072Y-3718954D02*
X3906644Y-3718954D01*
X3906644Y-3718954D02*
X3925691Y-3728478D01*
X3925691Y-3728478D02*
X3935215Y-3738002D01*
X3935215Y-3738002D02*
X3944739Y-3757049D01*
X3944739Y-3757049D02*
X3944739Y-3804668D01*
X3944739Y-3804668D02*
X3935215Y-3823716D01*
X3935215Y-3823716D02*
X3925691Y-3833240D01*
X3925691Y-3833240D02*
X3906644Y-3842764D01*
X3906644Y-3842764D02*
X3849501Y-3842764D01*
X3849501Y-3842764D02*
X3830453Y-3833240D01*
X3830453Y-3833240D02*
X3820930Y-3823716D01*
X4039977Y-3842764D02*
X4078072Y-3842764D01*
X4078072Y-3842764D02*
X4097120Y-3833240D01*
X4097120Y-3833240D02*
X4106644Y-3823716D01*
X4106644Y-3823716D02*
X4125691Y-3795145D01*
X4125691Y-3795145D02*
X4135215Y-3757049D01*
X4135215Y-3757049D02*
X4135215Y-3680859D01*
X4135215Y-3680859D02*
X4125691Y-3661811D01*
X4125691Y-3661811D02*
X4116168Y-3652288D01*
X4116168Y-3652288D02*
X4097120Y-3642764D01*
X4097120Y-3642764D02*
X4059025Y-3642764D01*
X4059025Y-3642764D02*
X4039977Y-3652288D01*
X4039977Y-3652288D02*
X4030453Y-3661811D01*
X4030453Y-3661811D02*
X4020930Y-3680859D01*
X4020930Y-3680859D02*
X4020930Y-3728478D01*
X4020930Y-3728478D02*
X4030453Y-3747526D01*
X4030453Y-3747526D02*
X4039977Y-3757049D01*
X4039977Y-3757049D02*
X4059025Y-3766573D01*
X4059025Y-3766573D02*
X4097120Y-3766573D01*
X4097120Y-3766573D02*
X4116168Y-3757049D01*
X4116168Y-3757049D02*
X4125691Y-3747526D01*
X4125691Y-3747526D02*
X4135215Y-3728478D01*
X4306644Y-3709430D02*
X4306644Y-3842764D01*
X4259025Y-3633240D02*
X4211406Y-3776097D01*
X4211406Y-3776097D02*
X4335215Y-3776097D01*
X4401882Y-3642764D02*
X4401882Y-3680859D01*
X4478073Y-3642764D02*
X4478073Y-3680859D01*
X4773311Y-3918954D02*
X4763787Y-3909430D01*
X4763787Y-3909430D02*
X4744739Y-3880859D01*
X4744739Y-3880859D02*
X4735215Y-3861811D01*
X4735215Y-3861811D02*
X4725692Y-3833240D01*
X4725692Y-3833240D02*
X4716168Y-3785621D01*
X4716168Y-3785621D02*
X4716168Y-3747526D01*
X4716168Y-3747526D02*
X4725692Y-3699907D01*
X4725692Y-3699907D02*
X4735215Y-3671335D01*
X4735215Y-3671335D02*
X4744739Y-3652288D01*
X4744739Y-3652288D02*
X4763787Y-3623716D01*
X4763787Y-3623716D02*
X4773311Y-3614192D01*
X4954263Y-3842764D02*
X4839977Y-3842764D01*
X4897120Y-3842764D02*
X4897120Y-3642764D01*
X4897120Y-3642764D02*
X4878073Y-3671335D01*
X4878073Y-3671335D02*
X4859025Y-3690383D01*
X4859025Y-3690383D02*
X4839977Y-3699907D01*
X5030454Y-3661811D02*
X5039977Y-3652288D01*
X5039977Y-3652288D02*
X5059025Y-3642764D01*
X5059025Y-3642764D02*
X5106644Y-3642764D01*
X5106644Y-3642764D02*
X5125692Y-3652288D01*
X5125692Y-3652288D02*
X5135215Y-3661811D01*
X5135215Y-3661811D02*
X5144739Y-3680859D01*
X5144739Y-3680859D02*
X5144739Y-3699907D01*
X5144739Y-3699907D02*
X5135215Y-3728478D01*
X5135215Y-3728478D02*
X5020930Y-3842764D01*
X5020930Y-3842764D02*
X5144739Y-3842764D01*
X5382835Y-3842764D02*
X5382835Y-3642764D01*
X5468549Y-3842764D02*
X5468549Y-3738002D01*
X5468549Y-3738002D02*
X5459025Y-3718954D01*
X5459025Y-3718954D02*
X5439977Y-3709430D01*
X5439977Y-3709430D02*
X5411406Y-3709430D01*
X5411406Y-3709430D02*
X5392358Y-3718954D01*
X5392358Y-3718954D02*
X5382835Y-3728478D01*
X5592358Y-3842764D02*
X5573311Y-3833240D01*
X5573311Y-3833240D02*
X5563787Y-3823716D01*
X5563787Y-3823716D02*
X5554263Y-3804668D01*
X5554263Y-3804668D02*
X5554263Y-3747526D01*
X5554263Y-3747526D02*
X5563787Y-3728478D01*
X5563787Y-3728478D02*
X5573311Y-3718954D01*
X5573311Y-3718954D02*
X5592358Y-3709430D01*
X5592358Y-3709430D02*
X5620930Y-3709430D01*
X5620930Y-3709430D02*
X5639977Y-3718954D01*
X5639977Y-3718954D02*
X5649501Y-3728478D01*
X5649501Y-3728478D02*
X5659025Y-3747526D01*
X5659025Y-3747526D02*
X5659025Y-3804668D01*
X5659025Y-3804668D02*
X5649501Y-3823716D01*
X5649501Y-3823716D02*
X5639977Y-3833240D01*
X5639977Y-3833240D02*
X5620930Y-3842764D01*
X5620930Y-3842764D02*
X5592358Y-3842764D01*
X5773311Y-3842764D02*
X5754263Y-3833240D01*
X5754263Y-3833240D02*
X5744739Y-3814192D01*
X5744739Y-3814192D02*
X5744739Y-3642764D01*
X5925692Y-3833240D02*
X5906644Y-3842764D01*
X5906644Y-3842764D02*
X5868549Y-3842764D01*
X5868549Y-3842764D02*
X5849501Y-3833240D01*
X5849501Y-3833240D02*
X5839977Y-3814192D01*
X5839977Y-3814192D02*
X5839977Y-3738002D01*
X5839977Y-3738002D02*
X5849501Y-3718954D01*
X5849501Y-3718954D02*
X5868549Y-3709430D01*
X5868549Y-3709430D02*
X5906644Y-3709430D01*
X5906644Y-3709430D02*
X5925692Y-3718954D01*
X5925692Y-3718954D02*
X5935215Y-3738002D01*
X5935215Y-3738002D02*
X5935215Y-3757049D01*
X5935215Y-3757049D02*
X5839977Y-3776097D01*
X6011406Y-3833240D02*
X6030454Y-3842764D01*
X6030454Y-3842764D02*
X6068549Y-3842764D01*
X6068549Y-3842764D02*
X6087596Y-3833240D01*
X6087596Y-3833240D02*
X6097120Y-3814192D01*
X6097120Y-3814192D02*
X6097120Y-3804668D01*
X6097120Y-3804668D02*
X6087596Y-3785621D01*
X6087596Y-3785621D02*
X6068549Y-3776097D01*
X6068549Y-3776097D02*
X6039977Y-3776097D01*
X6039977Y-3776097D02*
X6020930Y-3766573D01*
X6020930Y-3766573D02*
X6011406Y-3747526D01*
X6011406Y-3747526D02*
X6011406Y-3738002D01*
X6011406Y-3738002D02*
X6020930Y-3718954D01*
X6020930Y-3718954D02*
X6039977Y-3709430D01*
X6039977Y-3709430D02*
X6068549Y-3709430D01*
X6068549Y-3709430D02*
X6087596Y-3718954D01*
X6163787Y-3918954D02*
X6173311Y-3909430D01*
X6173311Y-3909430D02*
X6192358Y-3880859D01*
X6192358Y-3880859D02*
X6201882Y-3861811D01*
X6201882Y-3861811D02*
X6211406Y-3833240D01*
X6211406Y-3833240D02*
X6220930Y-3785621D01*
X6220930Y-3785621D02*
X6220930Y-3747526D01*
X6220930Y-3747526D02*
X6211406Y-3699907D01*
X6211406Y-3699907D02*
X6201882Y-3671335D01*
X6201882Y-3671335D02*
X6192358Y-3652288D01*
X6192358Y-3652288D02*
X6173311Y-3623716D01*
X6173311Y-3623716D02*
X6163787Y-3614192D01*
M02*
