%TF.GenerationSoftware,KiCad,Pcbnew,7.0.8*%
%TF.CreationDate,2024-06-22T11:04:44-04:00*%
%TF.ProjectId,n64amp,6e363461-6d70-42e6-9b69-6361645f7063,rev?*%
%TF.SameCoordinates,Original*%
%TF.FileFunction,Copper,L1,Top*%
%TF.FilePolarity,Positive*%
%FSLAX46Y46*%
G04 Gerber Fmt 4.6, Leading zero omitted, Abs format (unit mm)*
G04 Created by KiCad (PCBNEW 7.0.8) date 2024-06-22 11:04:44*
%MOMM*%
%LPD*%
G01*
G04 APERTURE LIST*
G04 Aperture macros list*
%AMRoundRect*
0 Rectangle with rounded corners*
0 $1 Rounding radius*
0 $2 $3 $4 $5 $6 $7 $8 $9 X,Y pos of 4 corners*
0 Add a 4 corners polygon primitive as box body*
4,1,4,$2,$3,$4,$5,$6,$7,$8,$9,$2,$3,0*
0 Add four circle primitives for the rounded corners*
1,1,$1+$1,$2,$3*
1,1,$1+$1,$4,$5*
1,1,$1+$1,$6,$7*
1,1,$1+$1,$8,$9*
0 Add four rect primitives between the rounded corners*
20,1,$1+$1,$2,$3,$4,$5,0*
20,1,$1+$1,$4,$5,$6,$7,0*
20,1,$1+$1,$6,$7,$8,$9,0*
20,1,$1+$1,$8,$9,$2,$3,0*%
G04 Aperture macros list end*
%TA.AperFunction,SMDPad,CuDef*%
%ADD10RoundRect,0.250000X0.250000X0.475000X-0.250000X0.475000X-0.250000X-0.475000X0.250000X-0.475000X0*%
%TD*%
%TA.AperFunction,SMDPad,CuDef*%
%ADD11RoundRect,0.135000X0.135000X0.185000X-0.135000X0.185000X-0.135000X-0.185000X0.135000X-0.185000X0*%
%TD*%
%TA.AperFunction,SMDPad,CuDef*%
%ADD12R,0.900000X0.400000*%
%TD*%
%TA.AperFunction,SMDPad,CuDef*%
%ADD13RoundRect,0.135000X-0.135000X-0.185000X0.135000X-0.185000X0.135000X0.185000X-0.135000X0.185000X0*%
%TD*%
%TA.AperFunction,SMDPad,CuDef*%
%ADD14R,2.000000X1.000000*%
%TD*%
%TA.AperFunction,SMDPad,CuDef*%
%ADD15RoundRect,0.140000X0.140000X0.170000X-0.140000X0.170000X-0.140000X-0.170000X0.140000X-0.170000X0*%
%TD*%
%TA.AperFunction,SMDPad,CuDef*%
%ADD16RoundRect,0.100000X0.637500X0.100000X-0.637500X0.100000X-0.637500X-0.100000X0.637500X-0.100000X0*%
%TD*%
%TA.AperFunction,ComponentPad*%
%ADD17R,1.700000X1.700000*%
%TD*%
%TA.AperFunction,ComponentPad*%
%ADD18O,1.700000X1.700000*%
%TD*%
%TA.AperFunction,ViaPad*%
%ADD19C,0.800000*%
%TD*%
%TA.AperFunction,Conductor*%
%ADD20C,0.250000*%
%TD*%
%TA.AperFunction,Conductor*%
%ADD21C,0.200000*%
%TD*%
G04 APERTURE END LIST*
D10*
%TO.P,C4,1*%
%TO.N,+5V*%
X20152400Y-13004800D03*
%TO.P,C4,2*%
%TO.N,GND*%
X18252400Y-13004800D03*
%TD*%
D11*
%TO.P,R1,1*%
%TO.N,CSYNC_IN*%
X30128400Y-13614400D03*
%TO.P,R1,2*%
%TO.N,CSYNC_TERM*%
X29108400Y-13614400D03*
%TD*%
D12*
%TO.P,RN1,1,R1.1*%
%TO.N,R_OUT*%
X18511200Y-14719600D03*
%TO.P,RN1,2,R2.1*%
%TO.N,G_OUT*%
X18511200Y-15519600D03*
%TO.P,RN1,3,R3.1*%
%TO.N,B_OUT*%
X18511200Y-16319600D03*
%TO.P,RN1,4,R4.1*%
%TO.N,GND*%
X18511200Y-17119600D03*
%TO.P,RN1,5,R4.2*%
X20211200Y-17119600D03*
%TO.P,RN1,6,R3.2*%
%TO.N,Net-(RN1-R3.2)*%
X20211200Y-16319600D03*
%TO.P,RN1,7,R2.2*%
%TO.N,Net-(RN1-R2.2)*%
X20211200Y-15519600D03*
%TO.P,RN1,8,R1.2*%
%TO.N,Net-(RN1-R1.2)*%
X20211200Y-14719600D03*
%TD*%
D13*
%TO.P,R2,1*%
%TO.N,GND*%
X29108400Y-14630400D03*
%TO.P,R2,2*%
%TO.N,CSYNC_TERM*%
X30128400Y-14630400D03*
%TD*%
D14*
%TO.P,TP3,1,1*%
%TO.N,G_IN*%
X31851600Y-16002000D03*
%TD*%
D15*
%TO.P,C1,1*%
%TO.N,B_IN*%
X30096400Y-15697200D03*
%TO.P,C1,2*%
%TO.N,Net-(U1-CH2_IN)*%
X29136400Y-15697200D03*
%TD*%
%TO.P,C3,1*%
%TO.N,R_IN*%
X30096400Y-17703800D03*
%TO.P,C3,2*%
%TO.N,Net-(U1-CH4_IN)*%
X29136400Y-17703800D03*
%TD*%
D14*
%TO.P,TP1,1,1*%
%TO.N,CSYNC_IN*%
X31851600Y-12700000D03*
%TD*%
D15*
%TO.P,C2,1*%
%TO.N,G_IN*%
X30096400Y-16713200D03*
%TO.P,C2,2*%
%TO.N,Net-(U1-CH3_IN)*%
X29136400Y-16713200D03*
%TD*%
D14*
%TO.P,TP2,1,1*%
%TO.N,B_IN*%
X31851600Y-14376400D03*
%TD*%
%TO.P,TP4,1,1*%
%TO.N,R_IN*%
X31826200Y-17653000D03*
%TD*%
D16*
%TO.P,U1,1,CH1_IN*%
%TO.N,CSYNC_TERM*%
X27670600Y-16879600D03*
%TO.P,U1,2,CH2_IN*%
%TO.N,Net-(U1-CH2_IN)*%
X27670600Y-16229600D03*
%TO.P,U1,3,CH3_IN*%
%TO.N,Net-(U1-CH3_IN)*%
X27670600Y-15579600D03*
%TO.P,U1,4,CH4_IN*%
%TO.N,Net-(U1-CH4_IN)*%
X27670600Y-14929600D03*
%TO.P,U1,5,GND*%
%TO.N,GND*%
X27670600Y-14279600D03*
%TO.P,U1,6,DISABLE*%
X27670600Y-13629600D03*
%TO.P,U1,7,NC*%
%TO.N,unconnected-(U1-NC-Pad7)*%
X27670600Y-12979600D03*
%TO.P,U1,8,NC*%
%TO.N,unconnected-(U1-NC-Pad8)*%
X21945600Y-12979600D03*
%TO.P,U1,9,BYPASS*%
%TO.N,+5V*%
X21945600Y-13629600D03*
%TO.P,U1,10,V_{S+}*%
X21945600Y-14279600D03*
%TO.P,U1,11,CH4_OUT*%
%TO.N,Net-(RN1-R1.2)*%
X21945600Y-14929600D03*
%TO.P,U1,12,CH3_OUT*%
%TO.N,Net-(RN1-R2.2)*%
X21945600Y-15579600D03*
%TO.P,U1,13,CH2_OUT*%
%TO.N,Net-(RN1-R3.2)*%
X21945600Y-16229600D03*
%TO.P,U1,14,CH1_OUT*%
%TO.N,Net-(JP1-A)*%
X21945600Y-16879600D03*
%TD*%
D17*
%TO.P,J1,1,Pin_1*%
%TO.N,R_OUT*%
X16426600Y-13944800D03*
D18*
%TO.P,J1,2,Pin_2*%
%TO.N,G_OUT*%
X13886600Y-13944800D03*
%TO.P,J1,3,Pin_3*%
%TO.N,CSYNC_OUT*%
X16426600Y-16484800D03*
%TO.P,J1,4,Pin_4*%
%TO.N,B_OUT*%
X13886600Y-16484800D03*
%TO.P,J1,5,Pin_5*%
%TO.N,GND*%
X16426600Y-19024800D03*
%TO.P,J1,6,Pin_6*%
X13886600Y-19024800D03*
%TO.P,J1,7,Pin_7*%
%TO.N,unconnected-(J1-Pin_7-Pad7)*%
X16426600Y-21564800D03*
%TO.P,J1,8,Pin_8*%
%TO.N,unconnected-(J1-Pin_8-Pad8)*%
X13886600Y-21564800D03*
%TO.P,J1,9,Pin_9*%
%TO.N,unconnected-(J1-Pin_9-Pad9)*%
X16426600Y-24104800D03*
%TO.P,J1,10,Pin_10*%
%TO.N,+5V*%
X13886600Y-24104800D03*
%TO.P,J1,11,Pin_11*%
%TO.N,unconnected-(J1-Pin_11-Pad11)*%
X16426600Y-26644800D03*
%TO.P,J1,12,Pin_12*%
%TO.N,unconnected-(J1-Pin_12-Pad12)*%
X13886600Y-26644800D03*
%TD*%
D19*
%TO.N,+5V*%
X20066000Y-13920100D03*
%TO.N,GND*%
X15105800Y-27965600D03*
X12565800Y-22885600D03*
X30226000Y-12598400D03*
X24044966Y-17746843D03*
X18509400Y-17831000D03*
X17696600Y-22834800D03*
X12464200Y-25425600D03*
X17747400Y-25374800D03*
X24765000Y-14249400D03*
X17645800Y-20421800D03*
X24363557Y-16966230D03*
X15207400Y-25374800D03*
%TO.N,CSYNC_TERM*%
X26372100Y-16705100D03*
X29015800Y-12992700D03*
%TO.N,Net-(JP1-A)*%
X23211900Y-16970900D03*
%TD*%
D20*
%TO.N,+5V*%
X20218400Y-13258800D02*
X20218400Y-13665200D01*
X20887596Y-14180600D02*
X20930996Y-14224000D01*
X20066000Y-13920100D02*
X20066000Y-13411200D01*
X20218400Y-13665200D02*
X20733800Y-14180600D01*
X21953800Y-14224000D02*
X21953800Y-13629600D01*
X20930996Y-14224000D02*
X21953800Y-14224000D01*
X20733800Y-14180600D02*
X20887596Y-14180600D01*
D21*
%TO.N,GND*%
X18560200Y-17780200D02*
X20236600Y-17780200D01*
D20*
X28389300Y-14279600D02*
X27678800Y-14279600D01*
X12565800Y-20294800D02*
X17696600Y-20294800D01*
D21*
X18509400Y-17831000D02*
X18026800Y-17831000D01*
D20*
X17747400Y-25374800D02*
X15207400Y-25374800D01*
X25384800Y-13629600D02*
X27678800Y-13629600D01*
D21*
X18509400Y-17032400D02*
X18511200Y-17030600D01*
D20*
X12515000Y-25374800D02*
X12464200Y-25425600D01*
X29895800Y-12268200D02*
X30226000Y-12598400D01*
X12565800Y-22885600D02*
X12565800Y-20294800D01*
X17696600Y-20371000D02*
X17645800Y-20421800D01*
X24765000Y-14249400D02*
X26263400Y-12751000D01*
X18668400Y-13258800D02*
X18668400Y-12344800D01*
X15207400Y-27864000D02*
X15105800Y-27965600D01*
D21*
X18026800Y-19024800D02*
X16426600Y-19024800D01*
D20*
X18668400Y-12344800D02*
X18668800Y-12344400D01*
X26459600Y-12751000D02*
X26942400Y-12268200D01*
X15207400Y-25374800D02*
X15207400Y-27864000D01*
X24795200Y-14279600D02*
X27678800Y-14279600D01*
X17696600Y-20294800D02*
X17696600Y-20371000D01*
D21*
X18509400Y-17831000D02*
X18560200Y-17780200D01*
D20*
X29260800Y-14655800D02*
X28765500Y-14655800D01*
X24765000Y-14249400D02*
X25384800Y-13629600D01*
X17696600Y-22834800D02*
X15207400Y-22834800D01*
X20211200Y-17754800D02*
X20236600Y-17780200D01*
X20211200Y-17030600D02*
X20211200Y-17754800D01*
X26263400Y-12751000D02*
X26459600Y-12751000D01*
D21*
X18026800Y-17831000D02*
X18026800Y-19024800D01*
D20*
X28765500Y-14655800D02*
X28389300Y-14279600D01*
X20262000Y-17805600D02*
X23986209Y-17805600D01*
X23986209Y-17805600D02*
X24044966Y-17746843D01*
X29286200Y-14630400D02*
X29260800Y-14655800D01*
X17696600Y-20472600D02*
X17696600Y-22834800D01*
X15207400Y-19177200D02*
X15207400Y-22834800D01*
X26942400Y-12268200D02*
X29895800Y-12268200D01*
X15055000Y-19024800D02*
X13886600Y-19024800D01*
X24765000Y-14249400D02*
X24795200Y-14279600D01*
X15207400Y-25374800D02*
X12515000Y-25374800D01*
X12616600Y-22834800D02*
X12565800Y-22885600D01*
X12642200Y-12344400D02*
X18668800Y-12344400D01*
X27678800Y-13629600D02*
X27678800Y-14279600D01*
X17645800Y-20421800D02*
X17696600Y-20472600D01*
X15207400Y-22834800D02*
X15207400Y-25374800D01*
X15055000Y-19024800D02*
X15207400Y-19177200D01*
X12182800Y-12803800D02*
X12642200Y-12344400D01*
X13886600Y-19024800D02*
X12182800Y-19024800D01*
X24765000Y-13901200D02*
X24765000Y-14249400D01*
D21*
X18509400Y-17831000D02*
X18509400Y-17032400D01*
D20*
X12182800Y-19024800D02*
X12182800Y-12803800D01*
X20236600Y-17780200D02*
X20262000Y-17805600D01*
X16426600Y-19024800D02*
X15055000Y-19024800D01*
X15207400Y-22834800D02*
X12616600Y-22834800D01*
%TO.N,Net-(U1-CH2_IN)*%
X28359142Y-16229600D02*
X27678800Y-16229600D01*
X28891542Y-15697200D02*
X28359142Y-16229600D01*
X29136400Y-15697200D02*
X28891542Y-15697200D01*
X29136400Y-15697400D02*
X29136400Y-15697200D01*
D21*
%TO.N,Net-(U1-CH3_IN)*%
X25672600Y-16127240D02*
X26220240Y-15579600D01*
X28708100Y-17145288D02*
X28448788Y-17404600D01*
X26220240Y-15579600D02*
X27678800Y-15579600D01*
X28708100Y-16961100D02*
X28708100Y-17145288D01*
X29060998Y-16835944D02*
X28833256Y-16835944D01*
X28833256Y-16835944D02*
X28708100Y-16961100D01*
X25672600Y-17138200D02*
X25672600Y-16127240D01*
X28448788Y-17404600D02*
X25939000Y-17404600D01*
X25939000Y-17404600D02*
X25672600Y-17138200D01*
D20*
%TO.N,Net-(U1-CH4_IN)*%
X28367342Y-14929600D02*
X26269200Y-14929600D01*
X28985600Y-17854600D02*
X29136400Y-17703800D01*
X26269200Y-14929600D02*
X25247600Y-15951200D01*
X25728600Y-17854600D02*
X28985600Y-17854600D01*
X25247600Y-17373600D02*
X25728600Y-17854600D01*
X25247600Y-15951200D02*
X25247600Y-17373600D01*
%TO.N,CSYNC_TERM*%
X29015800Y-13567262D02*
X30078938Y-14630400D01*
X26546600Y-16879600D02*
X27678800Y-16879600D01*
X29015800Y-12992700D02*
X29015800Y-13567262D01*
X26372100Y-16705100D02*
X26546600Y-16879600D01*
%TO.N,B_IN*%
X31026100Y-14846300D02*
X30292400Y-15580000D01*
X30292400Y-15580000D02*
X30292400Y-15697400D01*
X31026100Y-14376400D02*
X31026100Y-14846300D01*
X31851600Y-14376400D02*
X31026100Y-14376400D01*
%TO.N,G_IN*%
X31673800Y-16383000D02*
X31851600Y-16205200D01*
X31851600Y-16205200D02*
X31851600Y-16002000D01*
X31851600Y-16002000D02*
X30988000Y-16002000D01*
X30325000Y-16665000D02*
X30325000Y-16713200D01*
X30988000Y-16002000D02*
X30325000Y-16665000D01*
%TO.N,R_IN*%
X31992800Y-17703800D02*
X32018200Y-17729200D01*
X30327600Y-17703800D02*
X31992800Y-17703800D01*
%TO.N,R_OUT*%
X18511200Y-14630600D02*
X17112400Y-14630600D01*
X17112400Y-14630600D02*
X16426600Y-13944800D01*
%TO.N,G_OUT*%
X17310200Y-15430600D02*
X18511200Y-15430600D01*
X13886600Y-13988200D02*
X13886600Y-15029600D01*
X17170400Y-15290800D02*
X17310200Y-15430600D01*
X13886600Y-15029600D02*
X14147800Y-15290800D01*
X14147800Y-15290800D02*
X17170400Y-15290800D01*
%TO.N,B_OUT*%
X17627600Y-17373600D02*
X17627600Y-16408400D01*
X13886600Y-16484800D02*
X14910000Y-16484800D01*
X17246600Y-17754600D02*
X17627600Y-17373600D01*
X17805400Y-16230600D02*
X18511200Y-16230600D01*
X17627600Y-16408400D02*
X17805400Y-16230600D01*
X15113000Y-16687800D02*
X15113000Y-17322800D01*
X14910000Y-16484800D02*
X15113000Y-16687800D01*
X15544800Y-17754600D02*
X17246600Y-17754600D01*
X15113000Y-17322800D02*
X15544800Y-17754600D01*
%TO.N,CSYNC_IN*%
X30235305Y-13614400D02*
X30128400Y-13614400D01*
X30946505Y-12903200D02*
X30235305Y-13614400D01*
X31851600Y-12903200D02*
X30946505Y-12903200D01*
%TO.N,Net-(RN1-R1.2)*%
X21000200Y-14929600D02*
X20701200Y-14630600D01*
X21953800Y-14929600D02*
X21000200Y-14929600D01*
X20701200Y-14630600D02*
X20211200Y-14630600D01*
%TO.N,Net-(RN1-R3.2)*%
X20211200Y-16230600D02*
X21952800Y-16230600D01*
X21952800Y-16230600D02*
X21953800Y-16229600D01*
D21*
%TO.N,Net-(RN1-R2.2)*%
X21893600Y-15519400D02*
X20300000Y-15519400D01*
X20300000Y-15519400D02*
X20211200Y-15430600D01*
X21953800Y-15579600D02*
X21893600Y-15519400D01*
D20*
%TO.N,Net-(JP1-A)*%
X23120600Y-16879600D02*
X21953800Y-16879600D01*
X23211900Y-16970900D02*
X23120600Y-16879600D01*
X23211900Y-16970900D02*
X23284600Y-17043600D01*
%TD*%
%TA.AperFunction,Conductor*%
%TO.N,GND*%
G36*
X26750186Y-12136045D02*
G01*
X26795942Y-12188848D01*
X26805886Y-12258007D01*
X26776862Y-12321563D01*
X26736926Y-12350361D01*
X26737296Y-12351001D01*
X26731000Y-12354635D01*
X26730606Y-12354920D01*
X26730261Y-12355062D01*
X26604818Y-12451318D01*
X26508563Y-12576760D01*
X26448056Y-12722837D01*
X26448055Y-12722839D01*
X26432600Y-12840238D01*
X26432600Y-13118963D01*
X26448053Y-13236353D01*
X26448056Y-13236362D01*
X26456937Y-13257803D01*
X26464404Y-13327273D01*
X26456938Y-13352703D01*
X26448543Y-13372970D01*
X26441087Y-13429600D01*
X26483600Y-13429600D01*
X26550639Y-13449285D01*
X26581975Y-13478113D01*
X26604815Y-13507879D01*
X26604816Y-13507880D01*
X26604818Y-13507882D01*
X26730259Y-13604136D01*
X26730260Y-13604136D01*
X26734284Y-13607224D01*
X26775486Y-13663652D01*
X26779641Y-13733398D01*
X26745429Y-13794319D01*
X26683711Y-13827071D01*
X26658797Y-13829600D01*
X26441090Y-13829600D01*
X26441088Y-13829601D01*
X26448542Y-13886227D01*
X26448543Y-13886229D01*
X26457208Y-13907149D01*
X26464676Y-13976618D01*
X26457209Y-14002049D01*
X26448544Y-14022969D01*
X26433100Y-14140269D01*
X26433100Y-14178476D01*
X26413415Y-14245515D01*
X26360611Y-14291270D01*
X26312995Y-14302415D01*
X26259372Y-14304100D01*
X26229849Y-14304100D01*
X26222978Y-14304967D01*
X26217159Y-14305425D01*
X26170574Y-14306889D01*
X26170568Y-14306890D01*
X26151326Y-14312480D01*
X26132287Y-14316423D01*
X26112417Y-14318934D01*
X26112403Y-14318937D01*
X26069083Y-14336088D01*
X26063558Y-14337980D01*
X26018813Y-14350980D01*
X26018810Y-14350981D01*
X26001566Y-14361179D01*
X25984105Y-14369733D01*
X25965474Y-14377110D01*
X25965462Y-14377117D01*
X25927770Y-14404502D01*
X25922887Y-14407709D01*
X25882780Y-14431429D01*
X25868614Y-14445595D01*
X25853824Y-14458227D01*
X25837614Y-14470004D01*
X25837611Y-14470007D01*
X25807910Y-14505909D01*
X25803977Y-14510231D01*
X24863808Y-15450399D01*
X24851551Y-15460220D01*
X24851734Y-15460441D01*
X24845723Y-15465413D01*
X24798372Y-15515836D01*
X24777489Y-15536719D01*
X24777477Y-15536732D01*
X24773221Y-15542217D01*
X24769437Y-15546647D01*
X24737537Y-15580618D01*
X24737536Y-15580620D01*
X24727884Y-15598176D01*
X24717210Y-15614426D01*
X24704929Y-15630261D01*
X24704924Y-15630268D01*
X24686415Y-15673038D01*
X24683845Y-15678284D01*
X24661403Y-15719106D01*
X24656422Y-15738507D01*
X24650121Y-15756910D01*
X24642162Y-15775302D01*
X24642161Y-15775305D01*
X24634871Y-15821327D01*
X24633687Y-15827046D01*
X24622101Y-15872172D01*
X24622100Y-15872182D01*
X24622100Y-15892216D01*
X24620573Y-15911615D01*
X24617440Y-15931394D01*
X24617440Y-15931395D01*
X24621825Y-15977783D01*
X24622100Y-15983621D01*
X24622100Y-17290855D01*
X24620375Y-17306472D01*
X24620661Y-17306499D01*
X24619926Y-17314265D01*
X24622100Y-17383414D01*
X24622100Y-17412943D01*
X24622101Y-17412960D01*
X24622968Y-17419831D01*
X24623426Y-17425650D01*
X24624890Y-17472224D01*
X24624891Y-17472227D01*
X24630480Y-17491467D01*
X24634424Y-17510511D01*
X24636040Y-17523298D01*
X24636936Y-17530391D01*
X24654090Y-17573719D01*
X24655982Y-17579247D01*
X24668981Y-17623988D01*
X24679180Y-17641234D01*
X24687738Y-17658703D01*
X24695114Y-17677332D01*
X24722498Y-17715023D01*
X24725706Y-17719907D01*
X24749427Y-17760016D01*
X24749433Y-17760024D01*
X24763590Y-17774180D01*
X24776227Y-17788975D01*
X24788006Y-17805187D01*
X24805746Y-17819863D01*
X24823909Y-17834888D01*
X24828220Y-17838810D01*
X24976100Y-17986690D01*
X25040029Y-18050619D01*
X25073514Y-18111942D01*
X25068530Y-18181634D01*
X25026658Y-18237567D01*
X24961194Y-18261984D01*
X24952348Y-18262300D01*
X18254838Y-18262300D01*
X18254632Y-18262259D01*
X18230078Y-18262259D01*
X18229979Y-18262300D01*
X18229695Y-18262416D01*
X18229693Y-18262418D01*
X18229537Y-18262799D01*
X18229554Y-18287416D01*
X18229549Y-18287416D01*
X18229578Y-18287559D01*
X18229578Y-28298300D01*
X18209893Y-28365339D01*
X18157089Y-28411094D01*
X18105578Y-28422300D01*
X12181800Y-28422300D01*
X12114761Y-28402615D01*
X12069006Y-28349811D01*
X12057800Y-28298300D01*
X12057800Y-12240497D01*
X12077485Y-12173458D01*
X12130289Y-12127703D01*
X12181794Y-12116498D01*
X17177551Y-12116450D01*
X17244584Y-12136133D01*
X17290340Y-12188936D01*
X17300284Y-12258095D01*
X17295252Y-12279452D01*
X17262895Y-12377099D01*
X17262893Y-12377109D01*
X17252085Y-12482903D01*
X17225689Y-12547594D01*
X17168508Y-12587746D01*
X17128727Y-12594300D01*
X15528729Y-12594300D01*
X15528723Y-12594301D01*
X15469116Y-12600708D01*
X15334271Y-12651002D01*
X15334264Y-12651006D01*
X15219055Y-12737252D01*
X15219052Y-12737255D01*
X15132806Y-12852464D01*
X15132803Y-12852469D01*
X15083789Y-12983883D01*
X15041917Y-13039816D01*
X14976453Y-13064233D01*
X14908180Y-13049381D01*
X14879926Y-13028230D01*
X14758002Y-12906306D01*
X14757995Y-12906301D01*
X14564434Y-12770767D01*
X14564430Y-12770765D01*
X14536159Y-12757582D01*
X14350263Y-12670897D01*
X14350259Y-12670896D01*
X14350255Y-12670894D01*
X14122013Y-12609738D01*
X14122003Y-12609736D01*
X13886601Y-12589141D01*
X13886599Y-12589141D01*
X13651196Y-12609736D01*
X13651186Y-12609738D01*
X13422944Y-12670894D01*
X13422935Y-12670898D01*
X13208771Y-12770764D01*
X13208769Y-12770765D01*
X13015197Y-12906305D01*
X12848105Y-13073397D01*
X12712565Y-13266969D01*
X12712564Y-13266971D01*
X12612698Y-13481135D01*
X12612694Y-13481144D01*
X12551538Y-13709386D01*
X12551536Y-13709396D01*
X12530941Y-13944799D01*
X12530941Y-13944800D01*
X12551536Y-14180203D01*
X12551538Y-14180213D01*
X12612694Y-14408455D01*
X12612696Y-14408459D01*
X12612697Y-14408463D01*
X12682029Y-14557145D01*
X12712565Y-14622630D01*
X12712567Y-14622634D01*
X12747721Y-14672838D01*
X12829925Y-14790238D01*
X12848101Y-14816195D01*
X12848106Y-14816202D01*
X13015197Y-14983293D01*
X13015203Y-14983298D01*
X13200758Y-15113225D01*
X13244383Y-15167802D01*
X13251577Y-15237300D01*
X13220054Y-15299655D01*
X13200758Y-15316375D01*
X13015197Y-15446305D01*
X12848105Y-15613397D01*
X12712565Y-15806969D01*
X12712564Y-15806971D01*
X12612698Y-16021135D01*
X12612694Y-16021144D01*
X12551538Y-16249386D01*
X12551536Y-16249396D01*
X12530941Y-16484799D01*
X12530941Y-16484800D01*
X12551536Y-16720203D01*
X12551538Y-16720213D01*
X12612694Y-16948455D01*
X12612696Y-16948459D01*
X12612697Y-16948463D01*
X12657954Y-17045517D01*
X12712565Y-17162630D01*
X12712567Y-17162634D01*
X12848101Y-17356195D01*
X12848106Y-17356202D01*
X13015197Y-17523293D01*
X13015203Y-17523298D01*
X13052618Y-17549496D01*
X13159003Y-17623988D01*
X13201194Y-17653530D01*
X13244819Y-17708107D01*
X13252013Y-17777605D01*
X13220490Y-17839960D01*
X13201195Y-17856680D01*
X13015522Y-17986690D01*
X13015520Y-17986691D01*
X12848491Y-18153720D01*
X12848486Y-18153726D01*
X12713000Y-18347220D01*
X12712999Y-18347222D01*
X12613170Y-18561307D01*
X12613167Y-18561313D01*
X12555964Y-18774799D01*
X12555964Y-18774800D01*
X13452914Y-18774800D01*
X13427107Y-18814956D01*
X13386600Y-18952911D01*
X13386600Y-19096689D01*
X13427107Y-19234644D01*
X13452914Y-19274800D01*
X12555964Y-19274800D01*
X12613167Y-19488286D01*
X12613170Y-19488292D01*
X12712999Y-19702378D01*
X12848494Y-19895882D01*
X13015517Y-20062905D01*
X13201195Y-20192919D01*
X13244819Y-20247496D01*
X13252012Y-20316995D01*
X13220490Y-20379349D01*
X13201195Y-20396069D01*
X13015194Y-20526308D01*
X12848105Y-20693397D01*
X12712565Y-20886969D01*
X12712564Y-20886971D01*
X12612698Y-21101135D01*
X12612694Y-21101144D01*
X12551538Y-21329386D01*
X12551536Y-21329396D01*
X12530941Y-21564799D01*
X12530941Y-21564800D01*
X12551536Y-21800203D01*
X12551538Y-21800213D01*
X12612694Y-22028455D01*
X12612696Y-22028459D01*
X12612697Y-22028463D01*
X12616600Y-22036832D01*
X12712565Y-22242630D01*
X12712567Y-22242634D01*
X12820881Y-22397321D01*
X12848101Y-22436196D01*
X12848106Y-22436202D01*
X13015197Y-22603293D01*
X13015203Y-22603298D01*
X13200758Y-22733225D01*
X13244383Y-22787802D01*
X13251577Y-22857300D01*
X13220054Y-22919655D01*
X13200758Y-22936375D01*
X13015197Y-23066305D01*
X12848105Y-23233397D01*
X12712565Y-23426969D01*
X12712564Y-23426971D01*
X12612698Y-23641135D01*
X12612694Y-23641144D01*
X12551538Y-23869386D01*
X12551536Y-23869396D01*
X12530941Y-24104799D01*
X12530941Y-24104800D01*
X12551536Y-24340203D01*
X12551538Y-24340213D01*
X12612694Y-24568455D01*
X12612696Y-24568459D01*
X12612697Y-24568463D01*
X12616600Y-24576832D01*
X12712565Y-24782630D01*
X12712567Y-24782634D01*
X12820881Y-24937321D01*
X12848101Y-24976196D01*
X12848106Y-24976202D01*
X13015197Y-25143293D01*
X13015203Y-25143298D01*
X13200758Y-25273225D01*
X13244383Y-25327802D01*
X13251577Y-25397300D01*
X13220054Y-25459655D01*
X13200758Y-25476375D01*
X13015197Y-25606305D01*
X12848105Y-25773397D01*
X12712565Y-25966969D01*
X12712564Y-25966971D01*
X12612698Y-26181135D01*
X12612694Y-26181144D01*
X12551538Y-26409386D01*
X12551536Y-26409396D01*
X12530941Y-26644799D01*
X12530941Y-26644800D01*
X12551536Y-26880203D01*
X12551538Y-26880213D01*
X12612694Y-27108455D01*
X12612696Y-27108459D01*
X12612697Y-27108463D01*
X12616600Y-27116832D01*
X12712565Y-27322630D01*
X12712567Y-27322634D01*
X12820881Y-27477321D01*
X12848105Y-27516201D01*
X13015199Y-27683295D01*
X13111984Y-27751065D01*
X13208765Y-27818832D01*
X13208767Y-27818833D01*
X13208770Y-27818835D01*
X13422937Y-27918703D01*
X13651192Y-27979863D01*
X13839518Y-27996339D01*
X13886599Y-28000459D01*
X13886600Y-28000459D01*
X13886601Y-28000459D01*
X13925834Y-27997026D01*
X14122008Y-27979863D01*
X14350263Y-27918703D01*
X14564430Y-27818835D01*
X14758001Y-27683295D01*
X14925095Y-27516201D01*
X15055025Y-27330642D01*
X15109602Y-27287017D01*
X15179100Y-27279823D01*
X15241455Y-27311346D01*
X15258175Y-27330642D01*
X15388100Y-27516195D01*
X15388105Y-27516201D01*
X15555199Y-27683295D01*
X15651984Y-27751065D01*
X15748765Y-27818832D01*
X15748767Y-27818833D01*
X15748770Y-27818835D01*
X15962937Y-27918703D01*
X16191192Y-27979863D01*
X16379518Y-27996339D01*
X16426599Y-28000459D01*
X16426600Y-28000459D01*
X16426601Y-28000459D01*
X16465834Y-27997026D01*
X16662008Y-27979863D01*
X16890263Y-27918703D01*
X17104430Y-27818835D01*
X17298001Y-27683295D01*
X17465095Y-27516201D01*
X17600635Y-27322630D01*
X17700503Y-27108463D01*
X17761663Y-26880208D01*
X17782259Y-26644800D01*
X17761663Y-26409392D01*
X17700503Y-26181137D01*
X17600635Y-25966971D01*
X17595025Y-25958958D01*
X17465094Y-25773397D01*
X17298002Y-25606306D01*
X17297996Y-25606301D01*
X17112442Y-25476375D01*
X17068817Y-25421798D01*
X17061623Y-25352300D01*
X17093146Y-25289945D01*
X17112442Y-25273225D01*
X17134626Y-25257691D01*
X17298001Y-25143295D01*
X17465095Y-24976201D01*
X17600635Y-24782630D01*
X17700503Y-24568463D01*
X17761663Y-24340208D01*
X17782259Y-24104800D01*
X17761663Y-23869392D01*
X17700503Y-23641137D01*
X17600635Y-23426971D01*
X17595025Y-23418958D01*
X17465094Y-23233397D01*
X17298002Y-23066306D01*
X17297996Y-23066301D01*
X17112442Y-22936375D01*
X17068817Y-22881798D01*
X17061623Y-22812300D01*
X17093146Y-22749945D01*
X17112442Y-22733225D01*
X17134626Y-22717691D01*
X17298001Y-22603295D01*
X17465095Y-22436201D01*
X17600635Y-22242630D01*
X17700503Y-22028463D01*
X17761663Y-21800208D01*
X17782259Y-21564800D01*
X17761663Y-21329392D01*
X17700503Y-21101137D01*
X17600635Y-20886971D01*
X17595025Y-20878958D01*
X17465094Y-20693397D01*
X17298002Y-20526306D01*
X17298001Y-20526305D01*
X17112005Y-20396069D01*
X17068381Y-20341492D01*
X17061188Y-20271993D01*
X17092710Y-20209639D01*
X17112005Y-20192919D01*
X17297682Y-20062905D01*
X17464705Y-19895882D01*
X17600200Y-19702378D01*
X17700029Y-19488292D01*
X17700032Y-19488286D01*
X17757236Y-19274800D01*
X16860286Y-19274800D01*
X16886093Y-19234644D01*
X16926600Y-19096689D01*
X16926600Y-18952911D01*
X16886093Y-18814956D01*
X16860286Y-18774800D01*
X17757236Y-18774800D01*
X17757235Y-18774799D01*
X17700032Y-18561313D01*
X17700029Y-18561307D01*
X17617294Y-18383880D01*
X17606802Y-18314802D01*
X17635322Y-18251018D01*
X17641988Y-18243801D01*
X17647184Y-18238605D01*
X17661981Y-18225968D01*
X17678184Y-18214196D01*
X17678183Y-18214196D01*
X17678187Y-18214194D01*
X17707899Y-18178276D01*
X17711811Y-18173978D01*
X18011385Y-17874403D01*
X18023641Y-17864587D01*
X18023458Y-17864365D01*
X18029470Y-17859390D01*
X18029477Y-17859386D01*
X18030111Y-17858710D01*
X18030738Y-17858342D01*
X18035487Y-17854414D01*
X18036120Y-17855180D01*
X18090352Y-17823320D01*
X18120498Y-17819600D01*
X18311200Y-17819600D01*
X18311200Y-17319600D01*
X18711200Y-17319600D01*
X18711200Y-17819600D01*
X19009028Y-17819600D01*
X19009044Y-17819599D01*
X19068572Y-17813198D01*
X19068579Y-17813196D01*
X19203286Y-17762954D01*
X19203289Y-17762952D01*
X19286888Y-17700370D01*
X19352352Y-17675952D01*
X19420625Y-17690803D01*
X19435512Y-17700370D01*
X19519110Y-17762952D01*
X19519113Y-17762954D01*
X19653820Y-17813196D01*
X19653827Y-17813198D01*
X19713355Y-17819599D01*
X19713372Y-17819600D01*
X20011200Y-17819600D01*
X20011200Y-17319600D01*
X18711200Y-17319600D01*
X18311200Y-17319600D01*
X18311200Y-17144099D01*
X18330885Y-17077060D01*
X18383689Y-17031305D01*
X18435200Y-17020099D01*
X19009071Y-17020099D01*
X19009072Y-17020099D01*
X19068683Y-17013691D01*
X19203531Y-16963396D01*
X19228996Y-16944333D01*
X19294461Y-16919916D01*
X19303307Y-16919600D01*
X19419093Y-16919600D01*
X19486132Y-16939285D01*
X19493404Y-16944333D01*
X19518868Y-16963395D01*
X19518871Y-16963397D01*
X19538988Y-16970900D01*
X19653717Y-17013691D01*
X19713327Y-17020100D01*
X20287201Y-17020099D01*
X20354239Y-17039783D01*
X20399994Y-17092587D01*
X20411200Y-17144099D01*
X20411200Y-17819600D01*
X20709028Y-17819600D01*
X20709044Y-17819599D01*
X20768572Y-17813198D01*
X20768579Y-17813196D01*
X20903286Y-17762954D01*
X20903293Y-17762950D01*
X21018386Y-17676791D01*
X21063241Y-17616873D01*
X21119175Y-17575002D01*
X21178692Y-17568245D01*
X21268739Y-17580100D01*
X22493474Y-17580099D01*
X22560513Y-17599784D01*
X22585622Y-17621125D01*
X22606027Y-17643786D01*
X22606029Y-17643788D01*
X22759165Y-17755048D01*
X22759170Y-17755051D01*
X22932092Y-17832042D01*
X22932097Y-17832044D01*
X23117254Y-17871400D01*
X23117255Y-17871400D01*
X23306544Y-17871400D01*
X23306546Y-17871400D01*
X23491703Y-17832044D01*
X23664630Y-17755051D01*
X23817771Y-17643788D01*
X23944433Y-17503116D01*
X24039079Y-17339184D01*
X24097574Y-17159156D01*
X24117360Y-16970900D01*
X24097574Y-16782644D01*
X24039079Y-16602616D01*
X23944433Y-16438684D01*
X23817771Y-16298012D01*
X23750857Y-16249396D01*
X23664634Y-16186751D01*
X23664629Y-16186748D01*
X23491707Y-16109757D01*
X23491702Y-16109755D01*
X23345901Y-16078765D01*
X23306546Y-16070400D01*
X23306545Y-16070400D01*
X23289435Y-16070400D01*
X23222396Y-16050715D01*
X23176641Y-15997911D01*
X23169662Y-15978500D01*
X23168145Y-15972841D01*
X23159535Y-15952055D01*
X23152065Y-15882586D01*
X23159535Y-15857145D01*
X23168144Y-15836362D01*
X23183600Y-15718961D01*
X23183599Y-15440240D01*
X23168144Y-15322838D01*
X23159534Y-15302054D01*
X23152065Y-15232586D01*
X23159535Y-15207145D01*
X23166968Y-15189200D01*
X23168144Y-15186362D01*
X23183600Y-15068961D01*
X23183599Y-14790240D01*
X23168144Y-14672838D01*
X23159534Y-14652054D01*
X23152065Y-14582586D01*
X23159535Y-14557145D01*
X23168144Y-14536362D01*
X23183600Y-14418961D01*
X23183599Y-14140240D01*
X23168144Y-14022838D01*
X23159534Y-14002054D01*
X23152065Y-13932586D01*
X23159535Y-13907145D01*
X23168144Y-13886362D01*
X23183600Y-13768961D01*
X23183599Y-13490240D01*
X23182400Y-13481135D01*
X23180377Y-13465770D01*
X23168144Y-13372838D01*
X23159534Y-13352054D01*
X23152065Y-13282586D01*
X23159535Y-13257145D01*
X23168144Y-13236362D01*
X23183600Y-13118961D01*
X23183599Y-12840240D01*
X23183599Y-12840238D01*
X23183599Y-12840236D01*
X23168146Y-12722846D01*
X23168144Y-12722839D01*
X23168144Y-12722838D01*
X23107636Y-12576759D01*
X23011382Y-12451318D01*
X22885941Y-12355064D01*
X22885940Y-12355063D01*
X22885938Y-12355062D01*
X22885676Y-12354954D01*
X22885486Y-12354801D01*
X22878904Y-12351001D01*
X22879496Y-12349973D01*
X22831276Y-12311109D01*
X22809216Y-12244813D01*
X22826500Y-12177115D01*
X22877640Y-12129508D01*
X22933132Y-12116396D01*
X26683147Y-12116361D01*
X26750186Y-12136045D01*
G37*
%TD.AperFunction*%
%TA.AperFunction,Conductor*%
G36*
X15241455Y-24771346D02*
G01*
X15258175Y-24790642D01*
X15388101Y-24976196D01*
X15388106Y-24976202D01*
X15555197Y-25143293D01*
X15555203Y-25143298D01*
X15740758Y-25273225D01*
X15784383Y-25327802D01*
X15791577Y-25397300D01*
X15760054Y-25459655D01*
X15740758Y-25476375D01*
X15555197Y-25606305D01*
X15388105Y-25773397D01*
X15258175Y-25958958D01*
X15203598Y-26002583D01*
X15134100Y-26009777D01*
X15071745Y-25978254D01*
X15055025Y-25958958D01*
X14925094Y-25773397D01*
X14758002Y-25606306D01*
X14757996Y-25606301D01*
X14572442Y-25476375D01*
X14528817Y-25421798D01*
X14521623Y-25352300D01*
X14553146Y-25289945D01*
X14572442Y-25273225D01*
X14594626Y-25257691D01*
X14758001Y-25143295D01*
X14925095Y-24976201D01*
X15055025Y-24790642D01*
X15109602Y-24747017D01*
X15179100Y-24739823D01*
X15241455Y-24771346D01*
G37*
%TD.AperFunction*%
%TA.AperFunction,Conductor*%
G36*
X15241455Y-22231346D02*
G01*
X15258175Y-22250642D01*
X15388101Y-22436196D01*
X15388106Y-22436202D01*
X15555197Y-22603293D01*
X15555203Y-22603298D01*
X15740758Y-22733225D01*
X15784383Y-22787802D01*
X15791577Y-22857300D01*
X15760054Y-22919655D01*
X15740758Y-22936375D01*
X15555197Y-23066305D01*
X15388105Y-23233397D01*
X15258175Y-23418958D01*
X15203598Y-23462583D01*
X15134100Y-23469777D01*
X15071745Y-23438254D01*
X15055025Y-23418958D01*
X14925094Y-23233397D01*
X14758002Y-23066306D01*
X14757996Y-23066301D01*
X14572442Y-22936375D01*
X14528817Y-22881798D01*
X14521623Y-22812300D01*
X14553146Y-22749945D01*
X14572442Y-22733225D01*
X14594626Y-22717691D01*
X14758001Y-22603295D01*
X14925095Y-22436201D01*
X15055025Y-22250642D01*
X15109602Y-22207017D01*
X15179100Y-22199823D01*
X15241455Y-22231346D01*
G37*
%TD.AperFunction*%
%TA.AperFunction,Conductor*%
G36*
X15241455Y-19690473D02*
G01*
X15258175Y-19709768D01*
X15388494Y-19895882D01*
X15555517Y-20062905D01*
X15741195Y-20192919D01*
X15784819Y-20247496D01*
X15792012Y-20316995D01*
X15760490Y-20379349D01*
X15741195Y-20396069D01*
X15555194Y-20526308D01*
X15388105Y-20693397D01*
X15258175Y-20878958D01*
X15203598Y-20922583D01*
X15134100Y-20929777D01*
X15071745Y-20898254D01*
X15055025Y-20878958D01*
X14925094Y-20693397D01*
X14758002Y-20526306D01*
X14758001Y-20526305D01*
X14572005Y-20396069D01*
X14528381Y-20341492D01*
X14521188Y-20271993D01*
X14552710Y-20209639D01*
X14572005Y-20192919D01*
X14757682Y-20062905D01*
X14924705Y-19895882D01*
X15055025Y-19709768D01*
X15109602Y-19666144D01*
X15179101Y-19658951D01*
X15241455Y-19690473D01*
G37*
%TD.AperFunction*%
%TA.AperFunction,Conductor*%
G36*
X15967107Y-18814956D02*
G01*
X15926600Y-18952911D01*
X15926600Y-19096689D01*
X15967107Y-19234644D01*
X15992914Y-19274800D01*
X14320286Y-19274800D01*
X14346093Y-19234644D01*
X14386600Y-19096689D01*
X14386600Y-18952911D01*
X14346093Y-18814956D01*
X14320286Y-18774800D01*
X15992914Y-18774800D01*
X15967107Y-18814956D01*
G37*
%TD.AperFunction*%
%TA.AperFunction,Conductor*%
G36*
X27813639Y-13699784D02*
G01*
X27859394Y-13752588D01*
X27870600Y-13804099D01*
X27870600Y-14105100D01*
X27850915Y-14172139D01*
X27798111Y-14217894D01*
X27746600Y-14229100D01*
X27594600Y-14229100D01*
X27527561Y-14209415D01*
X27481806Y-14156611D01*
X27470600Y-14105100D01*
X27470600Y-13804099D01*
X27490285Y-13737060D01*
X27543089Y-13691305D01*
X27594597Y-13680099D01*
X27746601Y-13680099D01*
X27813639Y-13699784D01*
G37*
%TD.AperFunction*%
%TA.AperFunction,Conductor*%
G36*
X30294138Y-12136011D02*
G01*
X30339894Y-12188814D01*
X30351100Y-12240327D01*
X30351100Y-12562652D01*
X30331415Y-12629691D01*
X30314785Y-12650328D01*
X30256896Y-12708218D01*
X30207532Y-12757582D01*
X30146209Y-12791066D01*
X30119851Y-12793900D01*
X29988139Y-12793900D01*
X29921100Y-12774215D01*
X29875345Y-12721411D01*
X29870208Y-12708218D01*
X29842981Y-12624421D01*
X29842978Y-12624415D01*
X29836973Y-12614014D01*
X29748333Y-12460484D01*
X29624814Y-12323303D01*
X29594585Y-12260313D01*
X29603210Y-12190978D01*
X29647951Y-12137312D01*
X29714604Y-12116354D01*
X29716941Y-12116332D01*
X30227099Y-12116327D01*
X30294138Y-12136011D01*
G37*
%TD.AperFunction*%
%TD*%
M02*
