%TF.GenerationSoftware,KiCad,Pcbnew,7.0.8*%
%TF.CreationDate,2024-06-22T11:04:55-04:00*%
%TF.ProjectId,n64amp,6e363461-6d70-42e6-9b69-6361645f7063,rev?*%
%TF.SameCoordinates,Original*%
%TF.FileFunction,Drillmap*%
%TF.FilePolarity,Positive*%
%FSLAX45Y45*%
G04 Gerber Fmt 4.5, Leading zero omitted, Abs format (unit mm)*
G04 Created by KiCad (PCBNEW 7.0.8) date 2024-06-22 11:04:55*
%MOMM*%
%LPD*%
G01*
G04 APERTURE LIST*
%ADD10C,0.100000*%
%ADD11C,0.200000*%
G04 APERTURE END LIST*
D10*
X3293668Y-1826280D02*
X1823008Y-1826280D01*
X1823008Y-1917720D01*
X1823008Y-2842280D01*
X1203248Y-2842280D01*
X1203248Y-1216680D01*
X1208328Y-1211600D01*
X3293668Y-1211580D01*
X3293668Y-1826280D01*
D11*
X1459025Y-3158764D02*
X1459025Y-2958764D01*
X1459025Y-2958764D02*
X1506644Y-2958764D01*
X1506644Y-2958764D02*
X1535215Y-2968288D01*
X1535215Y-2968288D02*
X1554263Y-2987335D01*
X1554263Y-2987335D02*
X1563786Y-3006383D01*
X1563786Y-3006383D02*
X1573310Y-3044478D01*
X1573310Y-3044478D02*
X1573310Y-3073049D01*
X1573310Y-3073049D02*
X1563786Y-3111145D01*
X1563786Y-3111145D02*
X1554263Y-3130192D01*
X1554263Y-3130192D02*
X1535215Y-3149240D01*
X1535215Y-3149240D02*
X1506644Y-3158764D01*
X1506644Y-3158764D02*
X1459025Y-3158764D01*
X1659025Y-3158764D02*
X1659025Y-3025430D01*
X1659025Y-3063526D02*
X1668548Y-3044478D01*
X1668548Y-3044478D02*
X1678072Y-3034954D01*
X1678072Y-3034954D02*
X1697120Y-3025430D01*
X1697120Y-3025430D02*
X1716167Y-3025430D01*
X1782834Y-3158764D02*
X1782834Y-3025430D01*
X1782834Y-2958764D02*
X1773310Y-2968288D01*
X1773310Y-2968288D02*
X1782834Y-2977811D01*
X1782834Y-2977811D02*
X1792358Y-2968288D01*
X1792358Y-2968288D02*
X1782834Y-2958764D01*
X1782834Y-2958764D02*
X1782834Y-2977811D01*
X1906644Y-3158764D02*
X1887596Y-3149240D01*
X1887596Y-3149240D02*
X1878072Y-3130192D01*
X1878072Y-3130192D02*
X1878072Y-2958764D01*
X2011405Y-3158764D02*
X1992358Y-3149240D01*
X1992358Y-3149240D02*
X1982834Y-3130192D01*
X1982834Y-3130192D02*
X1982834Y-2958764D01*
X2239977Y-3158764D02*
X2239977Y-2958764D01*
X2239977Y-2958764D02*
X2306644Y-3101621D01*
X2306644Y-3101621D02*
X2373310Y-2958764D01*
X2373310Y-2958764D02*
X2373310Y-3158764D01*
X2554263Y-3158764D02*
X2554263Y-3054002D01*
X2554263Y-3054002D02*
X2544739Y-3034954D01*
X2544739Y-3034954D02*
X2525691Y-3025430D01*
X2525691Y-3025430D02*
X2487596Y-3025430D01*
X2487596Y-3025430D02*
X2468548Y-3034954D01*
X2554263Y-3149240D02*
X2535215Y-3158764D01*
X2535215Y-3158764D02*
X2487596Y-3158764D01*
X2487596Y-3158764D02*
X2468548Y-3149240D01*
X2468548Y-3149240D02*
X2459025Y-3130192D01*
X2459025Y-3130192D02*
X2459025Y-3111145D01*
X2459025Y-3111145D02*
X2468548Y-3092097D01*
X2468548Y-3092097D02*
X2487596Y-3082573D01*
X2487596Y-3082573D02*
X2535215Y-3082573D01*
X2535215Y-3082573D02*
X2554263Y-3073049D01*
X2649501Y-3025430D02*
X2649501Y-3225430D01*
X2649501Y-3034954D02*
X2668548Y-3025430D01*
X2668548Y-3025430D02*
X2706644Y-3025430D01*
X2706644Y-3025430D02*
X2725691Y-3034954D01*
X2725691Y-3034954D02*
X2735215Y-3044478D01*
X2735215Y-3044478D02*
X2744739Y-3063526D01*
X2744739Y-3063526D02*
X2744739Y-3120668D01*
X2744739Y-3120668D02*
X2735215Y-3139716D01*
X2735215Y-3139716D02*
X2725691Y-3149240D01*
X2725691Y-3149240D02*
X2706644Y-3158764D01*
X2706644Y-3158764D02*
X2668548Y-3158764D01*
X2668548Y-3158764D02*
X2649501Y-3149240D01*
X2830453Y-3139716D02*
X2839977Y-3149240D01*
X2839977Y-3149240D02*
X2830453Y-3158764D01*
X2830453Y-3158764D02*
X2820929Y-3149240D01*
X2820929Y-3149240D02*
X2830453Y-3139716D01*
X2830453Y-3139716D02*
X2830453Y-3158764D01*
X2830453Y-3034954D02*
X2839977Y-3044478D01*
X2839977Y-3044478D02*
X2830453Y-3054002D01*
X2830453Y-3054002D02*
X2820929Y-3044478D01*
X2820929Y-3044478D02*
X2830453Y-3034954D01*
X2830453Y-3034954D02*
X2830453Y-3054002D01*
M02*
