%TF.GenerationSoftware,KiCad,Pcbnew,7.0.8*%
%TF.CreationDate,2024-06-22T11:04:44-04:00*%
%TF.ProjectId,n64amp,6e363461-6d70-42e6-9b69-6361645f7063,rev?*%
%TF.SameCoordinates,Original*%
%TF.FileFunction,Legend,Top*%
%TF.FilePolarity,Positive*%
%FSLAX46Y46*%
G04 Gerber Fmt 4.6, Leading zero omitted, Abs format (unit mm)*
G04 Created by KiCad (PCBNEW 7.0.8) date 2024-06-22 11:04:44*
%MOMM*%
%LPD*%
G01*
G04 APERTURE LIST*
%ADD10C,0.150000*%
%ADD11C,0.120000*%
G04 APERTURE END LIST*
D10*
X14883066Y-26607849D02*
X15349733Y-26607849D01*
X14949733Y-26607849D02*
X14916400Y-26574516D01*
X14916400Y-26574516D02*
X14883066Y-26507849D01*
X14883066Y-26507849D02*
X14883066Y-26407849D01*
X14883066Y-26407849D02*
X14916400Y-26341182D01*
X14916400Y-26341182D02*
X14983066Y-26307849D01*
X14983066Y-26307849D02*
X15349733Y-26307849D01*
X14649733Y-25674516D02*
X14649733Y-25807849D01*
X14649733Y-25807849D02*
X14683066Y-25874516D01*
X14683066Y-25874516D02*
X14716400Y-25907849D01*
X14716400Y-25907849D02*
X14816400Y-25974516D01*
X14816400Y-25974516D02*
X14949733Y-26007849D01*
X14949733Y-26007849D02*
X15216400Y-26007849D01*
X15216400Y-26007849D02*
X15283066Y-25974516D01*
X15283066Y-25974516D02*
X15316400Y-25941183D01*
X15316400Y-25941183D02*
X15349733Y-25874516D01*
X15349733Y-25874516D02*
X15349733Y-25741183D01*
X15349733Y-25741183D02*
X15316400Y-25674516D01*
X15316400Y-25674516D02*
X15283066Y-25641183D01*
X15283066Y-25641183D02*
X15216400Y-25607849D01*
X15216400Y-25607849D02*
X15049733Y-25607849D01*
X15049733Y-25607849D02*
X14983066Y-25641183D01*
X14983066Y-25641183D02*
X14949733Y-25674516D01*
X14949733Y-25674516D02*
X14916400Y-25741183D01*
X14916400Y-25741183D02*
X14916400Y-25874516D01*
X14916400Y-25874516D02*
X14949733Y-25941183D01*
X14949733Y-25941183D02*
X14983066Y-25974516D01*
X14983066Y-25974516D02*
X15049733Y-26007849D01*
X14883066Y-25007849D02*
X15349733Y-25007849D01*
X14616400Y-25174516D02*
X15116400Y-25341182D01*
X15116400Y-25341182D02*
X15116400Y-24907849D01*
X15349733Y-24107849D02*
X14883066Y-24107849D01*
X14949733Y-24107849D02*
X14916400Y-24074516D01*
X14916400Y-24074516D02*
X14883066Y-24007849D01*
X14883066Y-24007849D02*
X14883066Y-23907849D01*
X14883066Y-23907849D02*
X14916400Y-23841182D01*
X14916400Y-23841182D02*
X14983066Y-23807849D01*
X14983066Y-23807849D02*
X15349733Y-23807849D01*
X14983066Y-23807849D02*
X14916400Y-23774516D01*
X14916400Y-23774516D02*
X14883066Y-23707849D01*
X14883066Y-23707849D02*
X14883066Y-23607849D01*
X14883066Y-23607849D02*
X14916400Y-23541182D01*
X14916400Y-23541182D02*
X14983066Y-23507849D01*
X14983066Y-23507849D02*
X15349733Y-23507849D01*
X15349733Y-23174516D02*
X14883066Y-23174516D01*
X14649733Y-23174516D02*
X14683066Y-23207849D01*
X14683066Y-23207849D02*
X14716400Y-23174516D01*
X14716400Y-23174516D02*
X14683066Y-23141183D01*
X14683066Y-23141183D02*
X14649733Y-23174516D01*
X14649733Y-23174516D02*
X14716400Y-23174516D01*
X15316400Y-22541183D02*
X15349733Y-22607850D01*
X15349733Y-22607850D02*
X15349733Y-22741183D01*
X15349733Y-22741183D02*
X15316400Y-22807850D01*
X15316400Y-22807850D02*
X15283066Y-22841183D01*
X15283066Y-22841183D02*
X15216400Y-22874516D01*
X15216400Y-22874516D02*
X15016400Y-22874516D01*
X15016400Y-22874516D02*
X14949733Y-22841183D01*
X14949733Y-22841183D02*
X14916400Y-22807850D01*
X14916400Y-22807850D02*
X14883066Y-22741183D01*
X14883066Y-22741183D02*
X14883066Y-22607850D01*
X14883066Y-22607850D02*
X14916400Y-22541183D01*
X15349733Y-22241183D02*
X14883066Y-22241183D01*
X15016400Y-22241183D02*
X14949733Y-22207850D01*
X14949733Y-22207850D02*
X14916400Y-22174516D01*
X14916400Y-22174516D02*
X14883066Y-22107850D01*
X14883066Y-22107850D02*
X14883066Y-22041183D01*
X15349733Y-21707850D02*
X15316400Y-21774517D01*
X15316400Y-21774517D02*
X15283066Y-21807850D01*
X15283066Y-21807850D02*
X15216400Y-21841183D01*
X15216400Y-21841183D02*
X15016400Y-21841183D01*
X15016400Y-21841183D02*
X14949733Y-21807850D01*
X14949733Y-21807850D02*
X14916400Y-21774517D01*
X14916400Y-21774517D02*
X14883066Y-21707850D01*
X14883066Y-21707850D02*
X14883066Y-21607850D01*
X14883066Y-21607850D02*
X14916400Y-21541183D01*
X14916400Y-21541183D02*
X14949733Y-21507850D01*
X14949733Y-21507850D02*
X15016400Y-21474517D01*
X15016400Y-21474517D02*
X15216400Y-21474517D01*
X15216400Y-21474517D02*
X15283066Y-21507850D01*
X15283066Y-21507850D02*
X15316400Y-21541183D01*
X15316400Y-21541183D02*
X15349733Y-21607850D01*
X15349733Y-21607850D02*
X15349733Y-21707850D01*
X15349733Y-20874517D02*
X14983066Y-20874517D01*
X14983066Y-20874517D02*
X14916400Y-20907850D01*
X14916400Y-20907850D02*
X14883066Y-20974517D01*
X14883066Y-20974517D02*
X14883066Y-21107850D01*
X14883066Y-21107850D02*
X14916400Y-21174517D01*
X15316400Y-20874517D02*
X15349733Y-20941184D01*
X15349733Y-20941184D02*
X15349733Y-21107850D01*
X15349733Y-21107850D02*
X15316400Y-21174517D01*
X15316400Y-21174517D02*
X15249733Y-21207850D01*
X15249733Y-21207850D02*
X15183066Y-21207850D01*
X15183066Y-21207850D02*
X15116400Y-21174517D01*
X15116400Y-21174517D02*
X15083066Y-21107850D01*
X15083066Y-21107850D02*
X15083066Y-20941184D01*
X15083066Y-20941184D02*
X15049733Y-20874517D01*
X15349733Y-20541184D02*
X14883066Y-20541184D01*
X14949733Y-20541184D02*
X14916400Y-20507851D01*
X14916400Y-20507851D02*
X14883066Y-20441184D01*
X14883066Y-20441184D02*
X14883066Y-20341184D01*
X14883066Y-20341184D02*
X14916400Y-20274517D01*
X14916400Y-20274517D02*
X14983066Y-20241184D01*
X14983066Y-20241184D02*
X15349733Y-20241184D01*
X14983066Y-20241184D02*
X14916400Y-20207851D01*
X14916400Y-20207851D02*
X14883066Y-20141184D01*
X14883066Y-20141184D02*
X14883066Y-20041184D01*
X14883066Y-20041184D02*
X14916400Y-19974517D01*
X14916400Y-19974517D02*
X14983066Y-19941184D01*
X14983066Y-19941184D02*
X15349733Y-19941184D01*
X14883066Y-19607851D02*
X15583066Y-19607851D01*
X14916400Y-19607851D02*
X14883066Y-19541184D01*
X14883066Y-19541184D02*
X14883066Y-19407851D01*
X14883066Y-19407851D02*
X14916400Y-19341184D01*
X14916400Y-19341184D02*
X14949733Y-19307851D01*
X14949733Y-19307851D02*
X15016400Y-19274518D01*
X15016400Y-19274518D02*
X15216400Y-19274518D01*
X15216400Y-19274518D02*
X15283066Y-19307851D01*
X15283066Y-19307851D02*
X15316400Y-19341184D01*
X15316400Y-19341184D02*
X15349733Y-19407851D01*
X15349733Y-19407851D02*
X15349733Y-19541184D01*
X15349733Y-19541184D02*
X15316400Y-19607851D01*
X14883066Y-18507852D02*
X15349733Y-18341185D01*
X15349733Y-18341185D02*
X14883066Y-18174518D01*
X14716400Y-17941185D02*
X14683066Y-17907852D01*
X14683066Y-17907852D02*
X14649733Y-17841185D01*
X14649733Y-17841185D02*
X14649733Y-17674519D01*
X14649733Y-17674519D02*
X14683066Y-17607852D01*
X14683066Y-17607852D02*
X14716400Y-17574519D01*
X14716400Y-17574519D02*
X14783066Y-17541185D01*
X14783066Y-17541185D02*
X14849733Y-17541185D01*
X14849733Y-17541185D02*
X14949733Y-17574519D01*
X14949733Y-17574519D02*
X15349733Y-17974519D01*
X15349733Y-17974519D02*
X15349733Y-17541185D01*
X24079295Y-14364819D02*
X24079295Y-15174342D01*
X24079295Y-15174342D02*
X24126914Y-15269580D01*
X24126914Y-15269580D02*
X24174533Y-15317200D01*
X24174533Y-15317200D02*
X24269771Y-15364819D01*
X24269771Y-15364819D02*
X24460247Y-15364819D01*
X24460247Y-15364819D02*
X24555485Y-15317200D01*
X24555485Y-15317200D02*
X24603104Y-15269580D01*
X24603104Y-15269580D02*
X24650723Y-15174342D01*
X24650723Y-15174342D02*
X24650723Y-14364819D01*
X25650723Y-15364819D02*
X25079295Y-15364819D01*
X25365009Y-15364819D02*
X25365009Y-14364819D01*
X25365009Y-14364819D02*
X25269771Y-14507676D01*
X25269771Y-14507676D02*
X25174533Y-14602914D01*
X25174533Y-14602914D02*
X25079295Y-14650533D01*
D11*
%TO.C,C4*%
X19463652Y-13739800D02*
X18941148Y-13739800D01*
X19463652Y-12269800D02*
X18941148Y-12269800D01*
%TO.C,R1*%
X29772041Y-13994400D02*
X29464759Y-13994400D01*
X29772041Y-13234400D02*
X29464759Y-13234400D01*
%TO.C,RN1*%
X19761200Y-14199600D02*
X18961200Y-14199600D01*
X19761200Y-17639600D02*
X18961200Y-17639600D01*
%TO.C,R2*%
X29464759Y-14250400D02*
X29772041Y-14250400D01*
X29464759Y-15010400D02*
X29772041Y-15010400D01*
%TO.C,C1*%
X29724236Y-16057200D02*
X29508564Y-16057200D01*
X29724236Y-15337200D02*
X29508564Y-15337200D01*
%TO.C,C3*%
X29724236Y-18063800D02*
X29508564Y-18063800D01*
X29724236Y-17343800D02*
X29508564Y-17343800D01*
%TO.C,C2*%
X29724236Y-17073200D02*
X29508564Y-17073200D01*
X29724236Y-16353200D02*
X29508564Y-16353200D01*
%TO.C,U1*%
X24808100Y-17539600D02*
X28408100Y-17539600D01*
X24808100Y-17539600D02*
X22608100Y-17539600D01*
X24808100Y-12319600D02*
X27008100Y-12319600D01*
X24808100Y-12319600D02*
X22608100Y-12319600D01*
%TD*%
M02*
