%TF.GenerationSoftware,KiCad,Pcbnew,7.0.8*%
%TF.CreationDate,2024-06-22T11:04:44-04:00*%
%TF.ProjectId,n64amp,6e363461-6d70-42e6-9b69-6361645f7063,rev?*%
%TF.SameCoordinates,Original*%
%TF.FileFunction,Legend,Bot*%
%TF.FilePolarity,Positive*%
%FSLAX46Y46*%
G04 Gerber Fmt 4.6, Leading zero omitted, Abs format (unit mm)*
G04 Created by KiCad (PCBNEW 7.0.8) date 2024-06-22 11:04:44*
%MOMM*%
%LPD*%
G01*
G04 APERTURE LIST*
%ADD10C,0.150000*%
%ADD11C,0.120000*%
G04 APERTURE END LIST*
D10*
X30307847Y-13922504D02*
X30345943Y-13960600D01*
X30345943Y-13960600D02*
X30460228Y-13998695D01*
X30460228Y-13998695D02*
X30536419Y-13998695D01*
X30536419Y-13998695D02*
X30650705Y-13960600D01*
X30650705Y-13960600D02*
X30726895Y-13884409D01*
X30726895Y-13884409D02*
X30764990Y-13808219D01*
X30764990Y-13808219D02*
X30803086Y-13655838D01*
X30803086Y-13655838D02*
X30803086Y-13541552D01*
X30803086Y-13541552D02*
X30764990Y-13389171D01*
X30764990Y-13389171D02*
X30726895Y-13312980D01*
X30726895Y-13312980D02*
X30650705Y-13236790D01*
X30650705Y-13236790D02*
X30536419Y-13198695D01*
X30536419Y-13198695D02*
X30460228Y-13198695D01*
X30460228Y-13198695D02*
X30345943Y-13236790D01*
X30345943Y-13236790D02*
X30307847Y-13274885D01*
X29964990Y-13198695D02*
X29964990Y-13846314D01*
X29964990Y-13846314D02*
X29926895Y-13922504D01*
X29926895Y-13922504D02*
X29888800Y-13960600D01*
X29888800Y-13960600D02*
X29812609Y-13998695D01*
X29812609Y-13998695D02*
X29660228Y-13998695D01*
X29660228Y-13998695D02*
X29584038Y-13960600D01*
X29584038Y-13960600D02*
X29545943Y-13922504D01*
X29545943Y-13922504D02*
X29507847Y-13846314D01*
X29507847Y-13846314D02*
X29507847Y-13198695D01*
X29241181Y-13198695D02*
X28784038Y-13198695D01*
X29012610Y-13998695D02*
X29012610Y-13198695D01*
X27679276Y-13198695D02*
X27679276Y-13770123D01*
X27679276Y-13770123D02*
X27717371Y-13884409D01*
X27717371Y-13884409D02*
X27793562Y-13960600D01*
X27793562Y-13960600D02*
X27907847Y-13998695D01*
X27907847Y-13998695D02*
X27984038Y-13998695D01*
X27298323Y-13198695D02*
X27298323Y-13846314D01*
X27298323Y-13846314D02*
X27260228Y-13922504D01*
X27260228Y-13922504D02*
X27222133Y-13960600D01*
X27222133Y-13960600D02*
X27145942Y-13998695D01*
X27145942Y-13998695D02*
X26993561Y-13998695D01*
X26993561Y-13998695D02*
X26917371Y-13960600D01*
X26917371Y-13960600D02*
X26879276Y-13922504D01*
X26879276Y-13922504D02*
X26841180Y-13846314D01*
X26841180Y-13846314D02*
X26841180Y-13198695D01*
X26460228Y-13998695D02*
X26460228Y-13198695D01*
X26460228Y-13198695D02*
X26193562Y-13770123D01*
X26193562Y-13770123D02*
X25926895Y-13198695D01*
X25926895Y-13198695D02*
X25926895Y-13998695D01*
X25545942Y-13998695D02*
X25545942Y-13198695D01*
X25545942Y-13198695D02*
X25241180Y-13198695D01*
X25241180Y-13198695D02*
X25164990Y-13236790D01*
X25164990Y-13236790D02*
X25126895Y-13274885D01*
X25126895Y-13274885D02*
X25088799Y-13351076D01*
X25088799Y-13351076D02*
X25088799Y-13465361D01*
X25088799Y-13465361D02*
X25126895Y-13541552D01*
X25126895Y-13541552D02*
X25164990Y-13579647D01*
X25164990Y-13579647D02*
X25241180Y-13617742D01*
X25241180Y-13617742D02*
X25545942Y-13617742D01*
X24745942Y-13579647D02*
X24479276Y-13579647D01*
X24364990Y-13998695D02*
X24745942Y-13998695D01*
X24745942Y-13998695D02*
X24745942Y-13198695D01*
X24745942Y-13198695D02*
X24364990Y-13198695D01*
X23564989Y-13998695D02*
X23831656Y-13617742D01*
X24022132Y-13998695D02*
X24022132Y-13198695D01*
X24022132Y-13198695D02*
X23717370Y-13198695D01*
X23717370Y-13198695D02*
X23641180Y-13236790D01*
X23641180Y-13236790D02*
X23603085Y-13274885D01*
X23603085Y-13274885D02*
X23564989Y-13351076D01*
X23564989Y-13351076D02*
X23564989Y-13465361D01*
X23564989Y-13465361D02*
X23603085Y-13541552D01*
X23603085Y-13541552D02*
X23641180Y-13579647D01*
X23641180Y-13579647D02*
X23717370Y-13617742D01*
X23717370Y-13617742D02*
X24022132Y-13617742D01*
X22726894Y-13198695D02*
X22269751Y-13198695D01*
X22498323Y-13998695D02*
X22498323Y-13198695D01*
X21850703Y-13198695D02*
X21698322Y-13198695D01*
X21698322Y-13198695D02*
X21622132Y-13236790D01*
X21622132Y-13236790D02*
X21545941Y-13312980D01*
X21545941Y-13312980D02*
X21507846Y-13465361D01*
X21507846Y-13465361D02*
X21507846Y-13732028D01*
X21507846Y-13732028D02*
X21545941Y-13884409D01*
X21545941Y-13884409D02*
X21622132Y-13960600D01*
X21622132Y-13960600D02*
X21698322Y-13998695D01*
X21698322Y-13998695D02*
X21850703Y-13998695D01*
X21850703Y-13998695D02*
X21926894Y-13960600D01*
X21926894Y-13960600D02*
X22003084Y-13884409D01*
X22003084Y-13884409D02*
X22041180Y-13732028D01*
X22041180Y-13732028D02*
X22041180Y-13465361D01*
X22041180Y-13465361D02*
X22003084Y-13312980D01*
X22003084Y-13312980D02*
X21926894Y-13236790D01*
X21926894Y-13236790D02*
X21850703Y-13198695D01*
X20555465Y-13198695D02*
X20555465Y-13846314D01*
X20555465Y-13846314D02*
X20517370Y-13922504D01*
X20517370Y-13922504D02*
X20479275Y-13960600D01*
X20479275Y-13960600D02*
X20403084Y-13998695D01*
X20403084Y-13998695D02*
X20250703Y-13998695D01*
X20250703Y-13998695D02*
X20174513Y-13960600D01*
X20174513Y-13960600D02*
X20136418Y-13922504D01*
X20136418Y-13922504D02*
X20098322Y-13846314D01*
X20098322Y-13846314D02*
X20098322Y-13198695D01*
X19755466Y-13960600D02*
X19641180Y-13998695D01*
X19641180Y-13998695D02*
X19450704Y-13998695D01*
X19450704Y-13998695D02*
X19374513Y-13960600D01*
X19374513Y-13960600D02*
X19336418Y-13922504D01*
X19336418Y-13922504D02*
X19298323Y-13846314D01*
X19298323Y-13846314D02*
X19298323Y-13770123D01*
X19298323Y-13770123D02*
X19336418Y-13693933D01*
X19336418Y-13693933D02*
X19374513Y-13655838D01*
X19374513Y-13655838D02*
X19450704Y-13617742D01*
X19450704Y-13617742D02*
X19603085Y-13579647D01*
X19603085Y-13579647D02*
X19679275Y-13541552D01*
X19679275Y-13541552D02*
X19717370Y-13503457D01*
X19717370Y-13503457D02*
X19755466Y-13427266D01*
X19755466Y-13427266D02*
X19755466Y-13351076D01*
X19755466Y-13351076D02*
X19717370Y-13274885D01*
X19717370Y-13274885D02*
X19679275Y-13236790D01*
X19679275Y-13236790D02*
X19603085Y-13198695D01*
X19603085Y-13198695D02*
X19412608Y-13198695D01*
X19412608Y-13198695D02*
X19298323Y-13236790D01*
X18955465Y-13579647D02*
X18688799Y-13579647D01*
X18574513Y-13998695D02*
X18955465Y-13998695D01*
X18955465Y-13998695D02*
X18955465Y-13198695D01*
X18955465Y-13198695D02*
X18574513Y-13198695D01*
X30993561Y-15286695D02*
X30993561Y-14486695D01*
X30993561Y-14486695D02*
X30536418Y-15286695D01*
X30536418Y-15286695D02*
X30536418Y-14486695D01*
X29812609Y-14486695D02*
X29964990Y-14486695D01*
X29964990Y-14486695D02*
X30041181Y-14524790D01*
X30041181Y-14524790D02*
X30079276Y-14562885D01*
X30079276Y-14562885D02*
X30155466Y-14677171D01*
X30155466Y-14677171D02*
X30193562Y-14829552D01*
X30193562Y-14829552D02*
X30193562Y-15134314D01*
X30193562Y-15134314D02*
X30155466Y-15210504D01*
X30155466Y-15210504D02*
X30117371Y-15248600D01*
X30117371Y-15248600D02*
X30041181Y-15286695D01*
X30041181Y-15286695D02*
X29888800Y-15286695D01*
X29888800Y-15286695D02*
X29812609Y-15248600D01*
X29812609Y-15248600D02*
X29774514Y-15210504D01*
X29774514Y-15210504D02*
X29736419Y-15134314D01*
X29736419Y-15134314D02*
X29736419Y-14943838D01*
X29736419Y-14943838D02*
X29774514Y-14867647D01*
X29774514Y-14867647D02*
X29812609Y-14829552D01*
X29812609Y-14829552D02*
X29888800Y-14791457D01*
X29888800Y-14791457D02*
X30041181Y-14791457D01*
X30041181Y-14791457D02*
X30117371Y-14829552D01*
X30117371Y-14829552D02*
X30155466Y-14867647D01*
X30155466Y-14867647D02*
X30193562Y-14943838D01*
X29050704Y-14753361D02*
X29050704Y-15286695D01*
X29241180Y-14448600D02*
X29431657Y-15020028D01*
X29431657Y-15020028D02*
X28936418Y-15020028D01*
X28022132Y-15286695D02*
X28022132Y-14486695D01*
X27641180Y-15286695D02*
X27641180Y-14486695D01*
X27641180Y-14486695D02*
X27184037Y-15286695D01*
X27184037Y-15286695D02*
X27184037Y-14486695D01*
X26917371Y-14486695D02*
X26460228Y-14486695D01*
X26688800Y-15286695D02*
X26688800Y-14486695D01*
X26193561Y-14867647D02*
X25926895Y-14867647D01*
X25812609Y-15286695D02*
X26193561Y-15286695D01*
X26193561Y-15286695D02*
X26193561Y-14486695D01*
X26193561Y-14486695D02*
X25812609Y-14486695D01*
X25012608Y-15286695D02*
X25279275Y-14905742D01*
X25469751Y-15286695D02*
X25469751Y-14486695D01*
X25469751Y-14486695D02*
X25164989Y-14486695D01*
X25164989Y-14486695D02*
X25088799Y-14524790D01*
X25088799Y-14524790D02*
X25050704Y-14562885D01*
X25050704Y-14562885D02*
X25012608Y-14639076D01*
X25012608Y-14639076D02*
X25012608Y-14753361D01*
X25012608Y-14753361D02*
X25050704Y-14829552D01*
X25050704Y-14829552D02*
X25088799Y-14867647D01*
X25088799Y-14867647D02*
X25164989Y-14905742D01*
X25164989Y-14905742D02*
X25469751Y-14905742D01*
X24669751Y-15286695D02*
X24669751Y-14486695D01*
X24669751Y-14486695D02*
X24212608Y-15286695D01*
X24212608Y-15286695D02*
X24212608Y-14486695D01*
X23869752Y-15058123D02*
X23488799Y-15058123D01*
X23945942Y-15286695D02*
X23679275Y-14486695D01*
X23679275Y-14486695D02*
X23412609Y-15286695D01*
X22764990Y-15286695D02*
X23145942Y-15286695D01*
X23145942Y-15286695D02*
X23145942Y-14486695D01*
X21431656Y-15210504D02*
X21469752Y-15248600D01*
X21469752Y-15248600D02*
X21584037Y-15286695D01*
X21584037Y-15286695D02*
X21660228Y-15286695D01*
X21660228Y-15286695D02*
X21774514Y-15248600D01*
X21774514Y-15248600D02*
X21850704Y-15172409D01*
X21850704Y-15172409D02*
X21888799Y-15096219D01*
X21888799Y-15096219D02*
X21926895Y-14943838D01*
X21926895Y-14943838D02*
X21926895Y-14829552D01*
X21926895Y-14829552D02*
X21888799Y-14677171D01*
X21888799Y-14677171D02*
X21850704Y-14600980D01*
X21850704Y-14600980D02*
X21774514Y-14524790D01*
X21774514Y-14524790D02*
X21660228Y-14486695D01*
X21660228Y-14486695D02*
X21584037Y-14486695D01*
X21584037Y-14486695D02*
X21469752Y-14524790D01*
X21469752Y-14524790D02*
X21431656Y-14562885D01*
X21126895Y-15248600D02*
X21012609Y-15286695D01*
X21012609Y-15286695D02*
X20822133Y-15286695D01*
X20822133Y-15286695D02*
X20745942Y-15248600D01*
X20745942Y-15248600D02*
X20707847Y-15210504D01*
X20707847Y-15210504D02*
X20669752Y-15134314D01*
X20669752Y-15134314D02*
X20669752Y-15058123D01*
X20669752Y-15058123D02*
X20707847Y-14981933D01*
X20707847Y-14981933D02*
X20745942Y-14943838D01*
X20745942Y-14943838D02*
X20822133Y-14905742D01*
X20822133Y-14905742D02*
X20974514Y-14867647D01*
X20974514Y-14867647D02*
X21050704Y-14829552D01*
X21050704Y-14829552D02*
X21088799Y-14791457D01*
X21088799Y-14791457D02*
X21126895Y-14715266D01*
X21126895Y-14715266D02*
X21126895Y-14639076D01*
X21126895Y-14639076D02*
X21088799Y-14562885D01*
X21088799Y-14562885D02*
X21050704Y-14524790D01*
X21050704Y-14524790D02*
X20974514Y-14486695D01*
X20974514Y-14486695D02*
X20784037Y-14486695D01*
X20784037Y-14486695D02*
X20669752Y-14524790D01*
X20174513Y-14905742D02*
X20174513Y-15286695D01*
X20441180Y-14486695D02*
X20174513Y-14905742D01*
X20174513Y-14905742D02*
X19907847Y-14486695D01*
X19641180Y-15286695D02*
X19641180Y-14486695D01*
X19641180Y-14486695D02*
X19184037Y-15286695D01*
X19184037Y-15286695D02*
X19184037Y-14486695D01*
X18345942Y-15210504D02*
X18384038Y-15248600D01*
X18384038Y-15248600D02*
X18498323Y-15286695D01*
X18498323Y-15286695D02*
X18574514Y-15286695D01*
X18574514Y-15286695D02*
X18688800Y-15248600D01*
X18688800Y-15248600D02*
X18764990Y-15172409D01*
X18764990Y-15172409D02*
X18803085Y-15096219D01*
X18803085Y-15096219D02*
X18841181Y-14943838D01*
X18841181Y-14943838D02*
X18841181Y-14829552D01*
X18841181Y-14829552D02*
X18803085Y-14677171D01*
X18803085Y-14677171D02*
X18764990Y-14600980D01*
X18764990Y-14600980D02*
X18688800Y-14524790D01*
X18688800Y-14524790D02*
X18574514Y-14486695D01*
X18574514Y-14486695D02*
X18498323Y-14486695D01*
X18498323Y-14486695D02*
X18384038Y-14524790D01*
X18384038Y-14524790D02*
X18345942Y-14562885D01*
G36*
X32084628Y-17718026D02*
G01*
X32050370Y-17786542D01*
X32019963Y-17816949D01*
X31951447Y-17851207D01*
X31844000Y-17851207D01*
X31775484Y-17816949D01*
X31745077Y-17786542D01*
X31710819Y-17718026D01*
X31710819Y-17429779D01*
X32084628Y-17429779D01*
X32084628Y-17718026D01*
G37*
G36*
X32853392Y-18144064D02*
G01*
X31417962Y-18144064D01*
X31417962Y-17735731D01*
X31560819Y-17735731D01*
X31562352Y-17739944D01*
X31561311Y-17744305D01*
X31568737Y-17769272D01*
X31616356Y-17864510D01*
X31617545Y-17865635D01*
X31630405Y-17884002D01*
X31678024Y-17931621D01*
X31679505Y-17932312D01*
X31697516Y-17945670D01*
X31792754Y-17993289D01*
X31797207Y-17993801D01*
X31800643Y-17996684D01*
X31826295Y-18001207D01*
X31969152Y-18001207D01*
X31973365Y-17999673D01*
X31977726Y-18000715D01*
X32002693Y-17993289D01*
X32097931Y-17945670D01*
X32099056Y-17944480D01*
X32117423Y-17931621D01*
X32165042Y-17884002D01*
X32165733Y-17882520D01*
X32179091Y-17864510D01*
X32226710Y-17769272D01*
X32227222Y-17764818D01*
X32230105Y-17761383D01*
X32234440Y-17736791D01*
X32592810Y-17987650D01*
X32642366Y-18000920D01*
X32688860Y-17979233D01*
X32710535Y-17932733D01*
X32697250Y-17883181D01*
X32678829Y-17864765D01*
X32234628Y-17553824D01*
X32234628Y-17429779D01*
X32635819Y-17429779D01*
X32684028Y-17412232D01*
X32709680Y-17367803D01*
X32700771Y-17317279D01*
X32661471Y-17284302D01*
X32635819Y-17279779D01*
X31635819Y-17279779D01*
X31617510Y-17286442D01*
X31598319Y-17289827D01*
X31593968Y-17295011D01*
X31587610Y-17297326D01*
X31577867Y-17314199D01*
X31565342Y-17329127D01*
X31563624Y-17338869D01*
X31561958Y-17341755D01*
X31562536Y-17345037D01*
X31560819Y-17354779D01*
X31560819Y-17735731D01*
X31417962Y-17735731D01*
X31417962Y-17136922D01*
X32853392Y-17136922D01*
X32853392Y-18144064D01*
G37*
G36*
X32560819Y-14466826D02*
G01*
X32526561Y-14535341D01*
X32496153Y-14565748D01*
X32427637Y-14600007D01*
X32320190Y-14600007D01*
X32251674Y-14565749D01*
X32225180Y-14539255D01*
X32187009Y-14424741D01*
X32187009Y-14178579D01*
X32560819Y-14178579D01*
X32560819Y-14466826D01*
G37*
G36*
X32037009Y-14419207D02*
G01*
X32002751Y-14487723D01*
X31972344Y-14518130D01*
X31903828Y-14552388D01*
X31844000Y-14552388D01*
X31775484Y-14518130D01*
X31745077Y-14487723D01*
X31710819Y-14419207D01*
X31710819Y-14178579D01*
X32037009Y-14178579D01*
X32037009Y-14419207D01*
G37*
G36*
X32853676Y-14892864D02*
G01*
X31417962Y-14892864D01*
X31417962Y-14436912D01*
X31560819Y-14436912D01*
X31562352Y-14441125D01*
X31561311Y-14445486D01*
X31568737Y-14470453D01*
X31616356Y-14565691D01*
X31617545Y-14566816D01*
X31630405Y-14585183D01*
X31678024Y-14632802D01*
X31679505Y-14633493D01*
X31697516Y-14646851D01*
X31792754Y-14694470D01*
X31797207Y-14694982D01*
X31800643Y-14697865D01*
X31826295Y-14702388D01*
X31921533Y-14702388D01*
X31925746Y-14700854D01*
X31930107Y-14701896D01*
X31955074Y-14694470D01*
X32050312Y-14646851D01*
X32051437Y-14645661D01*
X32069804Y-14632802D01*
X32091613Y-14610992D01*
X32091655Y-14611465D01*
X32106595Y-14632802D01*
X32154214Y-14680421D01*
X32155695Y-14681112D01*
X32173706Y-14694470D01*
X32268944Y-14742089D01*
X32273397Y-14742601D01*
X32276833Y-14745484D01*
X32302485Y-14750007D01*
X32445342Y-14750007D01*
X32449555Y-14748473D01*
X32453916Y-14749515D01*
X32478883Y-14742089D01*
X32574121Y-14694470D01*
X32575246Y-14693281D01*
X32593612Y-14680422D01*
X32641232Y-14632803D01*
X32641922Y-14631321D01*
X32655282Y-14613310D01*
X32702901Y-14518072D01*
X32703413Y-14513618D01*
X32706296Y-14510183D01*
X32710819Y-14484531D01*
X32710819Y-14103579D01*
X32704155Y-14085270D01*
X32700771Y-14066079D01*
X32695586Y-14061728D01*
X32693272Y-14055370D01*
X32676398Y-14045627D01*
X32661471Y-14033102D01*
X32651728Y-14031384D01*
X32648843Y-14029718D01*
X32645560Y-14030296D01*
X32635819Y-14028579D01*
X31635819Y-14028579D01*
X31617510Y-14035242D01*
X31598319Y-14038627D01*
X31593968Y-14043811D01*
X31587610Y-14046126D01*
X31577867Y-14062999D01*
X31565342Y-14077927D01*
X31563624Y-14087669D01*
X31561958Y-14090555D01*
X31562536Y-14093837D01*
X31560819Y-14103579D01*
X31560819Y-14436912D01*
X31417962Y-14436912D01*
X31417962Y-13885722D01*
X32853676Y-13885722D01*
X32853676Y-14892864D01*
G37*
G36*
X32853676Y-13266978D02*
G01*
X31417962Y-13266978D01*
X31417962Y-12858931D01*
X31560819Y-12858931D01*
X31561379Y-12860469D01*
X31564668Y-12882648D01*
X31612287Y-13025505D01*
X31615074Y-13029017D01*
X31615465Y-13033484D01*
X31630405Y-13054821D01*
X31678024Y-13102440D01*
X31724520Y-13124121D01*
X31774075Y-13110844D01*
X31803501Y-13068818D01*
X31799030Y-13017711D01*
X31784090Y-12996374D01*
X31748990Y-12961274D01*
X31710819Y-12846760D01*
X31710819Y-12775863D01*
X31748990Y-12661349D01*
X31823103Y-12587237D01*
X31900090Y-12548743D01*
X32073624Y-12505360D01*
X32198013Y-12505360D01*
X32371547Y-12548743D01*
X32448534Y-12587237D01*
X32522648Y-12661350D01*
X32560819Y-12775863D01*
X32560819Y-12846761D01*
X32522648Y-12961273D01*
X32487548Y-12996373D01*
X32465866Y-13042870D01*
X32479143Y-13092425D01*
X32521168Y-13121851D01*
X32572275Y-13117381D01*
X32593612Y-13102441D01*
X32641232Y-13054822D01*
X32643127Y-13050757D01*
X32646948Y-13048410D01*
X32659351Y-13025505D01*
X32706970Y-12882649D01*
X32706925Y-12881013D01*
X32710819Y-12858931D01*
X32710819Y-12763693D01*
X32710259Y-12762155D01*
X32706970Y-12739975D01*
X32659351Y-12597119D01*
X32656564Y-12593608D01*
X32656174Y-12589140D01*
X32641233Y-12567803D01*
X32545994Y-12472565D01*
X32544512Y-12471874D01*
X32526502Y-12458516D01*
X32431264Y-12410897D01*
X32427735Y-12410490D01*
X32415913Y-12405218D01*
X32225437Y-12357599D01*
X32221988Y-12357959D01*
X32207247Y-12355360D01*
X32064390Y-12355360D01*
X32061132Y-12356545D01*
X32046200Y-12357599D01*
X31855724Y-12405218D01*
X31852779Y-12407206D01*
X31840373Y-12410897D01*
X31745135Y-12458516D01*
X31744011Y-12459702D01*
X31725643Y-12472565D01*
X31630405Y-12567803D01*
X31628510Y-12571866D01*
X31624689Y-12574214D01*
X31612287Y-12597119D01*
X31564668Y-12739976D01*
X31564712Y-12741610D01*
X31560819Y-12763693D01*
X31560819Y-12858931D01*
X31417962Y-12858931D01*
X31417962Y-12212503D01*
X32853676Y-12212503D01*
X32853676Y-13266978D01*
G37*
G36*
X32853676Y-16518464D02*
G01*
X31417962Y-16518464D01*
X31417962Y-16157750D01*
X31560819Y-16157750D01*
X31562352Y-16161963D01*
X31561311Y-16166324D01*
X31568737Y-16191291D01*
X31616356Y-16286529D01*
X31653610Y-16321801D01*
X31704820Y-16324876D01*
X31746026Y-16294312D01*
X31757946Y-16244413D01*
X31750520Y-16219447D01*
X31710819Y-16140045D01*
X31710819Y-16027063D01*
X31748990Y-15912549D01*
X31823103Y-15838437D01*
X31900090Y-15799943D01*
X32073624Y-15756560D01*
X32198013Y-15756560D01*
X32371547Y-15799943D01*
X32448534Y-15838437D01*
X32522648Y-15912550D01*
X32560819Y-16027063D01*
X32560819Y-16097961D01*
X32522648Y-16212473D01*
X32509514Y-16225607D01*
X32282247Y-16225607D01*
X32282247Y-16110131D01*
X32264700Y-16061922D01*
X32220271Y-16036270D01*
X32169747Y-16045179D01*
X32136770Y-16084479D01*
X32132247Y-16110131D01*
X32132247Y-16300607D01*
X32138910Y-16318915D01*
X32142295Y-16338107D01*
X32147479Y-16342457D01*
X32149794Y-16348816D01*
X32166667Y-16358558D01*
X32181595Y-16371084D01*
X32191337Y-16372801D01*
X32194223Y-16374468D01*
X32197505Y-16373889D01*
X32207247Y-16375607D01*
X32540580Y-16375607D01*
X32555963Y-16370007D01*
X32572275Y-16368581D01*
X32585689Y-16359188D01*
X32588789Y-16358060D01*
X32589798Y-16356310D01*
X32593612Y-16353641D01*
X32641232Y-16306022D01*
X32643127Y-16301957D01*
X32646948Y-16299610D01*
X32659351Y-16276705D01*
X32706970Y-16133849D01*
X32706925Y-16132213D01*
X32710819Y-16110131D01*
X32710819Y-16014893D01*
X32710259Y-16013355D01*
X32706970Y-15991175D01*
X32659351Y-15848319D01*
X32656564Y-15844808D01*
X32656174Y-15840340D01*
X32641233Y-15819003D01*
X32545994Y-15723765D01*
X32544512Y-15723074D01*
X32526502Y-15709716D01*
X32431264Y-15662097D01*
X32427735Y-15661690D01*
X32415913Y-15656418D01*
X32225437Y-15608799D01*
X32221988Y-15609159D01*
X32207247Y-15606560D01*
X32064390Y-15606560D01*
X32061132Y-15607745D01*
X32046200Y-15608799D01*
X31855724Y-15656418D01*
X31852779Y-15658406D01*
X31840373Y-15662097D01*
X31745135Y-15709716D01*
X31744011Y-15710902D01*
X31725643Y-15723765D01*
X31630405Y-15819003D01*
X31628510Y-15823066D01*
X31624689Y-15825414D01*
X31612287Y-15848319D01*
X31564668Y-15991176D01*
X31564712Y-15992810D01*
X31560819Y-16014893D01*
X31560819Y-16157750D01*
X31417962Y-16157750D01*
X31417962Y-15463703D01*
X32853676Y-15463703D01*
X32853676Y-16518464D01*
G37*
D11*
%TO.C,JP1*%
X21933600Y-17013200D02*
X21933600Y-16413200D01*
X21233600Y-15713200D02*
X19833600Y-15713200D01*
X19833600Y-17713200D02*
X21233600Y-17713200D01*
X19133600Y-16413200D02*
X19133600Y-17013200D01*
X21233600Y-17713200D02*
G75*
G03*
X21933600Y-17013200I1J699999D01*
G01*
X21933600Y-16413200D02*
G75*
G03*
X21233600Y-15713200I-699999J1D01*
G01*
X19133600Y-17013200D02*
G75*
G03*
X19833600Y-17713200I700000J0D01*
G01*
X19833600Y-15713200D02*
G75*
G03*
X19133600Y-16413200I0J-700000D01*
G01*
%TO.C,J1*%
X17756600Y-27974800D02*
X12556600Y-27974800D01*
X17756600Y-15214800D02*
X17756600Y-27974800D01*
X17756600Y-15214800D02*
X15156600Y-15214800D01*
X17756600Y-13944800D02*
X17756600Y-12614800D01*
X17756600Y-12614800D02*
X16426600Y-12614800D01*
X15156600Y-15214800D02*
X15156600Y-12614800D01*
X15156600Y-12614800D02*
X12556600Y-12614800D01*
X12556600Y-12614800D02*
X12556600Y-27974800D01*
%TD*%
M02*
